%TF.GenerationSoftware,KiCad,Pcbnew,(5.1.12)-1*%
%TF.CreationDate,2022-01-26T00:14:16-03:00*%
%TF.ProjectId,BPS,4250532e-6b69-4636-9164-5f7063625858,3*%
%TF.SameCoordinates,Original*%
%TF.FileFunction,Copper,L1,Top*%
%TF.FilePolarity,Positive*%
%FSLAX46Y46*%
G04 Gerber Fmt 4.6, Leading zero omitted, Abs format (unit mm)*
G04 Created by KiCad (PCBNEW (5.1.12)-1) date 2022-01-26 00:14:16*
%MOMM*%
%LPD*%
G01*
G04 APERTURE LIST*
%TA.AperFunction,ComponentPad*%
%ADD10R,2.000000X2.000000*%
%TD*%
%TA.AperFunction,ComponentPad*%
%ADD11C,2.000000*%
%TD*%
%TA.AperFunction,ComponentPad*%
%ADD12R,1.600000X1.600000*%
%TD*%
%TA.AperFunction,ComponentPad*%
%ADD13C,1.600000*%
%TD*%
%TA.AperFunction,ComponentPad*%
%ADD14R,2.200000X2.200000*%
%TD*%
%TA.AperFunction,ComponentPad*%
%ADD15O,2.200000X2.200000*%
%TD*%
%TA.AperFunction,ComponentPad*%
%ADD16R,1.800000X1.800000*%
%TD*%
%TA.AperFunction,ComponentPad*%
%ADD17C,1.800000*%
%TD*%
%TA.AperFunction,ComponentPad*%
%ADD18R,2.600000X2.600000*%
%TD*%
%TA.AperFunction,ComponentPad*%
%ADD19C,2.600000*%
%TD*%
%TA.AperFunction,ComponentPad*%
%ADD20R,1.700000X1.700000*%
%TD*%
%TA.AperFunction,ComponentPad*%
%ADD21O,1.700000X1.700000*%
%TD*%
%TA.AperFunction,ComponentPad*%
%ADD22O,1.600000X1.600000*%
%TD*%
%TA.AperFunction,ComponentPad*%
%ADD23R,1.900000X1.900000*%
%TD*%
%TA.AperFunction,ComponentPad*%
%ADD24C,1.900000*%
%TD*%
%TA.AperFunction,ComponentPad*%
%ADD25R,1.905000X2.000000*%
%TD*%
%TA.AperFunction,ComponentPad*%
%ADD26O,1.905000X2.000000*%
%TD*%
%TA.AperFunction,Conductor*%
%ADD27C,0.300000*%
%TD*%
G04 APERTURE END LIST*
D10*
%TO.P,C1,1*%
%TO.N,/Vin*%
X117475000Y-108966000D03*
D11*
%TO.P,C1,2*%
%TO.N,/V-*%
X122475000Y-108966000D03*
%TD*%
D12*
%TO.P,C2,1*%
%TO.N,/Vout1*%
X128905000Y-106299000D03*
D13*
%TO.P,C2,2*%
%TO.N,/V-*%
X131405000Y-106299000D03*
%TD*%
D14*
%TO.P,D1,1*%
%TO.N,/Vin*%
X115570000Y-134323666D03*
D15*
%TO.P,D1,2*%
%TO.N,/BJ_pin1*%
X125730000Y-134323666D03*
%TD*%
D14*
%TO.P,D2,1*%
%TO.N,/BJ_pin1*%
X115570000Y-125349000D03*
D15*
%TO.P,D2,2*%
%TO.N,/V-*%
X125730000Y-125349000D03*
%TD*%
%TO.P,D3,2*%
%TO.N,/BJ_pin2*%
X125730000Y-138811000D03*
D14*
%TO.P,D3,1*%
%TO.N,/Vin*%
X115570000Y-138811000D03*
%TD*%
D15*
%TO.P,D4,2*%
%TO.N,/V-*%
X125730000Y-129836333D03*
D14*
%TO.P,D4,1*%
%TO.N,/BJ_pin2*%
X115570000Y-129836333D03*
%TD*%
D16*
%TO.P,D5,1*%
%TO.N,/V-*%
X132969000Y-137414000D03*
D17*
%TO.P,D5,2*%
%TO.N,Net-(D5-Pad2)*%
X135509000Y-137414000D03*
%TD*%
%TO.P,D6,2*%
%TO.N,Net-(D6-Pad2)*%
X135509000Y-115062000D03*
D16*
%TO.P,D6,1*%
%TO.N,/V-*%
X132969000Y-115062000D03*
%TD*%
D18*
%TO.P,J1,1*%
%TO.N,/BJ_pin1*%
X127889000Y-146939000D03*
D19*
%TO.P,J1,2*%
%TO.N,/BJ_pin2*%
X121889000Y-146939000D03*
%TO.P,J1,3*%
%TO.N,Net-(J1-Pad3)*%
X124889000Y-151639000D03*
%TD*%
D20*
%TO.P,J2,1*%
%TO.N,/Vout2*%
X139319000Y-103884000D03*
D21*
%TO.P,J2,2*%
X141859000Y-103884000D03*
%TO.P,J2,3*%
%TO.N,/V-*%
X139319000Y-106424000D03*
%TO.P,J2,4*%
X141859000Y-106424000D03*
%TD*%
%TO.P,J3,4*%
%TO.N,/V-*%
X141859000Y-151384000D03*
%TO.P,J3,3*%
X139319000Y-151384000D03*
%TO.P,J3,2*%
%TO.N,/Vout2*%
X141859000Y-148844000D03*
D20*
%TO.P,J3,1*%
X139319000Y-148844000D03*
%TD*%
D13*
%TO.P,R1,1*%
%TO.N,Net-(D5-Pad2)*%
X133858000Y-151257000D03*
D22*
%TO.P,R1,2*%
%TO.N,/Vout1*%
X133858000Y-143637000D03*
%TD*%
%TO.P,R2,2*%
%TO.N,/Vout2*%
X127762000Y-113411000D03*
D13*
%TO.P,R2,1*%
%TO.N,Net-(D6-Pad2)*%
X127762000Y-121031000D03*
%TD*%
D23*
%TO.P,SW1,1*%
%TO.N,/Vout2*%
X134112000Y-128618000D03*
D24*
%TO.P,SW1,2*%
%TO.N,/Vout1*%
X134112000Y-126118000D03*
%TO.P,SW1,3*%
%TO.N,Net-(SW1-Pad3)*%
X134112000Y-123618000D03*
%TD*%
D25*
%TO.P,U1,1*%
%TO.N,/Vin*%
X116967000Y-119761000D03*
D26*
%TO.P,U1,2*%
%TO.N,/V-*%
X119507000Y-119761000D03*
%TO.P,U1,3*%
%TO.N,/Vout1*%
X122047000Y-119761000D03*
%TD*%
D27*
%TO.N,/Vin*%
X117120001Y-132773665D02*
X115570000Y-134323666D01*
X117120001Y-119914001D02*
X117120001Y-132773665D01*
X116967000Y-119761000D02*
X117120001Y-119914001D01*
X115570000Y-134323666D02*
X115570000Y-138811000D01*
X116967000Y-109474000D02*
X117475000Y-108966000D01*
X116967000Y-119761000D02*
X116967000Y-109474000D01*
%TO.N,/Vout1*%
X131618999Y-141397999D02*
X133858000Y-143637000D01*
X131618999Y-128400999D02*
X131618999Y-141397999D01*
X133901998Y-126118000D02*
X131618999Y-128400999D01*
X134112000Y-126118000D02*
X133901998Y-126118000D01*
X131792999Y-123798999D02*
X126084999Y-123798999D01*
X126084999Y-123798999D02*
X122047000Y-119761000D01*
X134112000Y-126118000D02*
X131792999Y-123798999D01*
X122047000Y-113157000D02*
X122047000Y-119761000D01*
X128905000Y-106299000D02*
X122047000Y-113157000D01*
%TO.N,/BJ_pin1*%
X127889000Y-136482666D02*
X125730000Y-134323666D01*
X127889000Y-146939000D02*
X127889000Y-136482666D01*
X114019999Y-140271001D02*
X114019999Y-126899001D01*
X114019999Y-126899001D02*
X115570000Y-125349000D01*
X114109999Y-140361001D02*
X114019999Y-140271001D01*
X119692665Y-140361001D02*
X114109999Y-140361001D01*
X125730000Y-134323666D02*
X119692665Y-140361001D01*
%TO.N,Net-(D5-Pad2)*%
X135509000Y-149606000D02*
X133858000Y-151257000D01*
X135509000Y-137414000D02*
X135509000Y-149606000D01*
%TO.N,Net-(D6-Pad2)*%
X129540000Y-121031000D02*
X127762000Y-121031000D01*
X135509000Y-115062000D02*
X129540000Y-121031000D01*
%TO.N,/Vout2*%
X141859000Y-148844000D02*
X139319000Y-148844000D01*
X136859001Y-131365001D02*
X134112000Y-128618000D01*
X136859001Y-147534001D02*
X136859001Y-131365001D01*
X138169000Y-148844000D02*
X136859001Y-147534001D01*
X139319000Y-148844000D02*
X138169000Y-148844000D01*
X141859000Y-103884000D02*
X139319000Y-103884000D01*
X134112000Y-128618000D02*
X137319990Y-125410010D01*
X137319990Y-125410010D02*
X137319990Y-112046990D01*
X137319990Y-112046990D02*
X134747000Y-109474000D01*
X131699000Y-109474000D02*
X127762000Y-113411000D01*
X134747000Y-109474000D02*
X131699000Y-109474000D01*
X139319000Y-103884000D02*
X134747000Y-108456000D01*
X134747000Y-108456000D02*
X134747000Y-109474000D01*
%TD*%
M02*
