%TF.GenerationSoftware,KiCad,Pcbnew,(5.1.12)-1*%
%TF.CreationDate,2022-01-26T00:14:16-03:00*%
%TF.ProjectId,BPS,4250532e-6b69-4636-9164-5f7063625858,3*%
%TF.SameCoordinates,Original*%
%TF.FileFunction,Copper,L2,Bot*%
%TF.FilePolarity,Positive*%
%FSLAX46Y46*%
G04 Gerber Fmt 4.6, Leading zero omitted, Abs format (unit mm)*
G04 Created by KiCad (PCBNEW (5.1.12)-1) date 2022-01-26 00:14:16*
%MOMM*%
%LPD*%
G01*
G04 APERTURE LIST*
%TA.AperFunction,ComponentPad*%
%ADD10R,2.000000X2.000000*%
%TD*%
%TA.AperFunction,ComponentPad*%
%ADD11C,2.000000*%
%TD*%
%TA.AperFunction,ComponentPad*%
%ADD12R,1.600000X1.600000*%
%TD*%
%TA.AperFunction,ComponentPad*%
%ADD13C,1.600000*%
%TD*%
%TA.AperFunction,ComponentPad*%
%ADD14R,2.200000X2.200000*%
%TD*%
%TA.AperFunction,ComponentPad*%
%ADD15O,2.200000X2.200000*%
%TD*%
%TA.AperFunction,ComponentPad*%
%ADD16R,1.800000X1.800000*%
%TD*%
%TA.AperFunction,ComponentPad*%
%ADD17C,1.800000*%
%TD*%
%TA.AperFunction,ComponentPad*%
%ADD18R,2.600000X2.600000*%
%TD*%
%TA.AperFunction,ComponentPad*%
%ADD19C,2.600000*%
%TD*%
%TA.AperFunction,ComponentPad*%
%ADD20R,1.700000X1.700000*%
%TD*%
%TA.AperFunction,ComponentPad*%
%ADD21O,1.700000X1.700000*%
%TD*%
%TA.AperFunction,ComponentPad*%
%ADD22O,1.600000X1.600000*%
%TD*%
%TA.AperFunction,ComponentPad*%
%ADD23R,1.900000X1.900000*%
%TD*%
%TA.AperFunction,ComponentPad*%
%ADD24C,1.900000*%
%TD*%
%TA.AperFunction,ComponentPad*%
%ADD25R,1.905000X2.000000*%
%TD*%
%TA.AperFunction,ComponentPad*%
%ADD26O,1.905000X2.000000*%
%TD*%
%TA.AperFunction,Conductor*%
%ADD27C,0.300000*%
%TD*%
%TA.AperFunction,Conductor*%
%ADD28C,0.254000*%
%TD*%
%TA.AperFunction,Conductor*%
%ADD29C,0.100000*%
%TD*%
G04 APERTURE END LIST*
D10*
%TO.P,C1,1*%
%TO.N,/Vin*%
X117475000Y-108966000D03*
D11*
%TO.P,C1,2*%
%TO.N,/V-*%
X122475000Y-108966000D03*
%TD*%
D12*
%TO.P,C2,1*%
%TO.N,/Vout1*%
X128905000Y-106299000D03*
D13*
%TO.P,C2,2*%
%TO.N,/V-*%
X131405000Y-106299000D03*
%TD*%
D14*
%TO.P,D1,1*%
%TO.N,/Vin*%
X115570000Y-134323666D03*
D15*
%TO.P,D1,2*%
%TO.N,/BJ_pin1*%
X125730000Y-134323666D03*
%TD*%
D14*
%TO.P,D2,1*%
%TO.N,/BJ_pin1*%
X115570000Y-125349000D03*
D15*
%TO.P,D2,2*%
%TO.N,/V-*%
X125730000Y-125349000D03*
%TD*%
%TO.P,D3,2*%
%TO.N,/BJ_pin2*%
X125730000Y-138811000D03*
D14*
%TO.P,D3,1*%
%TO.N,/Vin*%
X115570000Y-138811000D03*
%TD*%
D15*
%TO.P,D4,2*%
%TO.N,/V-*%
X125730000Y-129836333D03*
D14*
%TO.P,D4,1*%
%TO.N,/BJ_pin2*%
X115570000Y-129836333D03*
%TD*%
D16*
%TO.P,D5,1*%
%TO.N,/V-*%
X132969000Y-137414000D03*
D17*
%TO.P,D5,2*%
%TO.N,Net-(D5-Pad2)*%
X135509000Y-137414000D03*
%TD*%
%TO.P,D6,2*%
%TO.N,Net-(D6-Pad2)*%
X135509000Y-115062000D03*
D16*
%TO.P,D6,1*%
%TO.N,/V-*%
X132969000Y-115062000D03*
%TD*%
D18*
%TO.P,J1,1*%
%TO.N,/BJ_pin1*%
X127889000Y-146939000D03*
D19*
%TO.P,J1,2*%
%TO.N,/BJ_pin2*%
X121889000Y-146939000D03*
%TO.P,J1,3*%
%TO.N,Net-(J1-Pad3)*%
X124889000Y-151639000D03*
%TD*%
D20*
%TO.P,J2,1*%
%TO.N,/Vout2*%
X139319000Y-103884000D03*
D21*
%TO.P,J2,2*%
X141859000Y-103884000D03*
%TO.P,J2,3*%
%TO.N,/V-*%
X139319000Y-106424000D03*
%TO.P,J2,4*%
X141859000Y-106424000D03*
%TD*%
%TO.P,J3,4*%
%TO.N,/V-*%
X141859000Y-151384000D03*
%TO.P,J3,3*%
X139319000Y-151384000D03*
%TO.P,J3,2*%
%TO.N,/Vout2*%
X141859000Y-148844000D03*
D20*
%TO.P,J3,1*%
X139319000Y-148844000D03*
%TD*%
D13*
%TO.P,R1,1*%
%TO.N,Net-(D5-Pad2)*%
X133858000Y-151257000D03*
D22*
%TO.P,R1,2*%
%TO.N,/Vout1*%
X133858000Y-143637000D03*
%TD*%
%TO.P,R2,2*%
%TO.N,/Vout2*%
X127762000Y-113411000D03*
D13*
%TO.P,R2,1*%
%TO.N,Net-(D6-Pad2)*%
X127762000Y-121031000D03*
%TD*%
D23*
%TO.P,SW1,1*%
%TO.N,/Vout2*%
X134112000Y-128618000D03*
D24*
%TO.P,SW1,2*%
%TO.N,/Vout1*%
X134112000Y-126118000D03*
%TO.P,SW1,3*%
%TO.N,Net-(SW1-Pad3)*%
X134112000Y-123618000D03*
%TD*%
D25*
%TO.P,U1,1*%
%TO.N,/Vin*%
X116967000Y-119761000D03*
D26*
%TO.P,U1,2*%
%TO.N,/V-*%
X119507000Y-119761000D03*
%TO.P,U1,3*%
%TO.N,/Vout1*%
X122047000Y-119761000D03*
%TD*%
D27*
%TO.N,/V-*%
X141859000Y-151384000D02*
X139319000Y-151384000D01*
X139319000Y-151384000D02*
X136398000Y-151384000D01*
X132607999Y-137775001D02*
X132969000Y-137414000D01*
X132607999Y-147593999D02*
X132607999Y-137775001D01*
X136398000Y-151384000D02*
X132607999Y-147593999D01*
X132969000Y-137075333D02*
X125730000Y-129836333D01*
X132969000Y-137414000D02*
X132969000Y-137075333D01*
X125730000Y-125349000D02*
X125730000Y-129836333D01*
X132969000Y-118110000D02*
X125730000Y-125349000D01*
X132969000Y-115062000D02*
X132969000Y-118110000D01*
X125095000Y-125349000D02*
X125730000Y-125349000D01*
X119507000Y-119761000D02*
X125095000Y-125349000D01*
X119507000Y-111934000D02*
X122475000Y-108966000D01*
X119507000Y-119761000D02*
X119507000Y-111934000D01*
X128738000Y-108966000D02*
X131405000Y-106299000D01*
X122475000Y-108966000D02*
X128738000Y-108966000D01*
X141859000Y-106424000D02*
X139319000Y-106424000D01*
X131530000Y-106424000D02*
X131405000Y-106299000D01*
X139319000Y-106424000D02*
X131530000Y-106424000D01*
%TO.N,/BJ_pin2*%
X121889000Y-142652000D02*
X125730000Y-138811000D01*
X121889000Y-146939000D02*
X121889000Y-142652000D01*
X116755333Y-129836333D02*
X115570000Y-129836333D01*
X125730000Y-138811000D02*
X116755333Y-129836333D01*
%TD*%
D28*
%TO.N,/V-*%
X143358000Y-107925000D02*
X137827419Y-107925000D01*
X137795000Y-107921807D01*
X137762581Y-107925000D01*
X137665617Y-107934550D01*
X137541207Y-107972290D01*
X137426550Y-108033575D01*
X137326052Y-108116052D01*
X137243575Y-108216550D01*
X137182290Y-108331207D01*
X137144550Y-108455617D01*
X137131807Y-108585000D01*
X137135001Y-108617429D01*
X137135000Y-146525581D01*
X137131807Y-146558000D01*
X137144550Y-146687383D01*
X137182290Y-146811793D01*
X137243575Y-146926450D01*
X137285521Y-146977561D01*
X137326052Y-147026948D01*
X137426550Y-147109425D01*
X137541207Y-147170710D01*
X137665617Y-147208450D01*
X137795000Y-147221193D01*
X137827419Y-147218000D01*
X143358001Y-147218000D01*
X143358000Y-152883000D01*
X126381504Y-152883000D01*
X126392013Y-152872491D01*
X126603775Y-152555566D01*
X126749639Y-152203419D01*
X126824000Y-151829581D01*
X126824000Y-151448419D01*
X126757812Y-151115665D01*
X132423000Y-151115665D01*
X132423000Y-151398335D01*
X132478147Y-151675574D01*
X132586320Y-151936727D01*
X132743363Y-152171759D01*
X132943241Y-152371637D01*
X133178273Y-152528680D01*
X133439426Y-152636853D01*
X133716665Y-152692000D01*
X133999335Y-152692000D01*
X134276574Y-152636853D01*
X134537727Y-152528680D01*
X134772759Y-152371637D01*
X134972637Y-152171759D01*
X135129680Y-151936727D01*
X135210798Y-151740890D01*
X137877524Y-151740890D01*
X137922175Y-151888099D01*
X138047359Y-152150920D01*
X138221412Y-152384269D01*
X138437645Y-152579178D01*
X138687748Y-152728157D01*
X138962109Y-152825481D01*
X139192000Y-152704814D01*
X139192000Y-151511000D01*
X139446000Y-151511000D01*
X139446000Y-152704814D01*
X139675891Y-152825481D01*
X139950252Y-152728157D01*
X140200355Y-152579178D01*
X140416588Y-152384269D01*
X140589000Y-152153120D01*
X140761412Y-152384269D01*
X140977645Y-152579178D01*
X141227748Y-152728157D01*
X141502109Y-152825481D01*
X141732000Y-152704814D01*
X141732000Y-151511000D01*
X141986000Y-151511000D01*
X141986000Y-152704814D01*
X142215891Y-152825481D01*
X142490252Y-152728157D01*
X142740355Y-152579178D01*
X142956588Y-152384269D01*
X143130641Y-152150920D01*
X143255825Y-151888099D01*
X143300476Y-151740890D01*
X143179155Y-151511000D01*
X141986000Y-151511000D01*
X141732000Y-151511000D01*
X139446000Y-151511000D01*
X139192000Y-151511000D01*
X137998845Y-151511000D01*
X137877524Y-151740890D01*
X135210798Y-151740890D01*
X135237853Y-151675574D01*
X135293000Y-151398335D01*
X135293000Y-151115665D01*
X135237853Y-150838426D01*
X135129680Y-150577273D01*
X134972637Y-150342241D01*
X134772759Y-150142363D01*
X134537727Y-149985320D01*
X134276574Y-149877147D01*
X133999335Y-149822000D01*
X133716665Y-149822000D01*
X133439426Y-149877147D01*
X133178273Y-149985320D01*
X132943241Y-150142363D01*
X132743363Y-150342241D01*
X132586320Y-150577273D01*
X132478147Y-150838426D01*
X132423000Y-151115665D01*
X126757812Y-151115665D01*
X126749639Y-151074581D01*
X126603775Y-150722434D01*
X126392013Y-150405509D01*
X126122491Y-150135987D01*
X125805566Y-149924225D01*
X125453419Y-149778361D01*
X125079581Y-149704000D01*
X124698419Y-149704000D01*
X124324581Y-149778361D01*
X123972434Y-149924225D01*
X123655509Y-150135987D01*
X123385987Y-150405509D01*
X123174225Y-150722434D01*
X123028361Y-151074581D01*
X122954000Y-151448419D01*
X122954000Y-151829581D01*
X123028361Y-152203419D01*
X123174225Y-152555566D01*
X123385987Y-152872491D01*
X123396496Y-152883000D01*
X114198000Y-152883000D01*
X114198000Y-140485632D01*
X114225820Y-140500502D01*
X114345518Y-140536812D01*
X114470000Y-140549072D01*
X116670000Y-140549072D01*
X116794482Y-140536812D01*
X116914180Y-140500502D01*
X117024494Y-140441537D01*
X117121185Y-140362185D01*
X117200537Y-140265494D01*
X117259502Y-140155180D01*
X117295812Y-140035482D01*
X117308072Y-139911000D01*
X117308072Y-137711000D01*
X117295812Y-137586518D01*
X117259502Y-137466820D01*
X117200537Y-137356506D01*
X117121185Y-137259815D01*
X117024494Y-137180463D01*
X116914180Y-137121498D01*
X116794482Y-137085188D01*
X116670000Y-137072928D01*
X114470000Y-137072928D01*
X114345518Y-137085188D01*
X114225820Y-137121498D01*
X114198000Y-137136368D01*
X114198000Y-135998298D01*
X114225820Y-136013168D01*
X114345518Y-136049478D01*
X114470000Y-136061738D01*
X116670000Y-136061738D01*
X116794482Y-136049478D01*
X116914180Y-136013168D01*
X117024494Y-135954203D01*
X117121185Y-135874851D01*
X117200537Y-135778160D01*
X117259502Y-135667846D01*
X117295812Y-135548148D01*
X117308072Y-135423666D01*
X117308072Y-133223666D01*
X117295812Y-133099184D01*
X117259502Y-132979486D01*
X117200537Y-132869172D01*
X117121185Y-132772481D01*
X117024494Y-132693129D01*
X116914180Y-132634164D01*
X116794482Y-132597854D01*
X116670000Y-132585594D01*
X114470000Y-132585594D01*
X114345518Y-132597854D01*
X114225820Y-132634164D01*
X114198000Y-132649034D01*
X114198000Y-131510965D01*
X114225820Y-131525835D01*
X114345518Y-131562145D01*
X114470000Y-131574405D01*
X116670000Y-131574405D01*
X116794482Y-131562145D01*
X116914180Y-131525835D01*
X117024494Y-131466870D01*
X117121185Y-131387518D01*
X117155071Y-131346228D01*
X124076931Y-138268088D01*
X124061675Y-138304919D01*
X123995000Y-138640117D01*
X123995000Y-138981883D01*
X124061675Y-139317081D01*
X124076931Y-139353912D01*
X121361185Y-142069658D01*
X121331237Y-142094236D01*
X121306659Y-142124184D01*
X121306655Y-142124188D01*
X121273690Y-142164356D01*
X121233139Y-142213767D01*
X121209952Y-142257147D01*
X121160246Y-142350141D01*
X121115359Y-142498114D01*
X121100203Y-142652000D01*
X121104001Y-142690563D01*
X121104000Y-145169728D01*
X120972434Y-145224225D01*
X120655509Y-145435987D01*
X120385987Y-145705509D01*
X120174225Y-146022434D01*
X120028361Y-146374581D01*
X119954000Y-146748419D01*
X119954000Y-147129581D01*
X120028361Y-147503419D01*
X120174225Y-147855566D01*
X120385987Y-148172491D01*
X120655509Y-148442013D01*
X120972434Y-148653775D01*
X121324581Y-148799639D01*
X121698419Y-148874000D01*
X122079581Y-148874000D01*
X122453419Y-148799639D01*
X122805566Y-148653775D01*
X123122491Y-148442013D01*
X123392013Y-148172491D01*
X123603775Y-147855566D01*
X123749639Y-147503419D01*
X123824000Y-147129581D01*
X123824000Y-146748419D01*
X123749639Y-146374581D01*
X123603775Y-146022434D01*
X123392013Y-145705509D01*
X123325504Y-145639000D01*
X125950928Y-145639000D01*
X125950928Y-148239000D01*
X125963188Y-148363482D01*
X125999498Y-148483180D01*
X126058463Y-148593494D01*
X126137815Y-148690185D01*
X126234506Y-148769537D01*
X126344820Y-148828502D01*
X126464518Y-148864812D01*
X126589000Y-148877072D01*
X129189000Y-148877072D01*
X129313482Y-148864812D01*
X129433180Y-148828502D01*
X129543494Y-148769537D01*
X129640185Y-148690185D01*
X129719537Y-148593494D01*
X129778502Y-148483180D01*
X129814812Y-148363482D01*
X129827072Y-148239000D01*
X129827072Y-147994000D01*
X137830928Y-147994000D01*
X137830928Y-149694000D01*
X137843188Y-149818482D01*
X137879498Y-149938180D01*
X137938463Y-150048494D01*
X138017815Y-150145185D01*
X138114506Y-150224537D01*
X138224820Y-150283502D01*
X138305466Y-150307966D01*
X138221412Y-150383731D01*
X138047359Y-150617080D01*
X137922175Y-150879901D01*
X137877524Y-151027110D01*
X137998845Y-151257000D01*
X139192000Y-151257000D01*
X139192000Y-151237000D01*
X139446000Y-151237000D01*
X139446000Y-151257000D01*
X141732000Y-151257000D01*
X141732000Y-151237000D01*
X141986000Y-151237000D01*
X141986000Y-151257000D01*
X143179155Y-151257000D01*
X143300476Y-151027110D01*
X143255825Y-150879901D01*
X143130641Y-150617080D01*
X142956588Y-150383731D01*
X142740355Y-150188822D01*
X142623466Y-150119195D01*
X142805632Y-149997475D01*
X143012475Y-149790632D01*
X143174990Y-149547411D01*
X143286932Y-149277158D01*
X143344000Y-148990260D01*
X143344000Y-148697740D01*
X143286932Y-148410842D01*
X143174990Y-148140589D01*
X143012475Y-147897368D01*
X142805632Y-147690525D01*
X142562411Y-147528010D01*
X142292158Y-147416068D01*
X142005260Y-147359000D01*
X141712740Y-147359000D01*
X141425842Y-147416068D01*
X141155589Y-147528010D01*
X140912368Y-147690525D01*
X140780513Y-147822380D01*
X140758502Y-147749820D01*
X140699537Y-147639506D01*
X140620185Y-147542815D01*
X140523494Y-147463463D01*
X140413180Y-147404498D01*
X140293482Y-147368188D01*
X140169000Y-147355928D01*
X138469000Y-147355928D01*
X138344518Y-147368188D01*
X138224820Y-147404498D01*
X138114506Y-147463463D01*
X138017815Y-147542815D01*
X137938463Y-147639506D01*
X137879498Y-147749820D01*
X137843188Y-147869518D01*
X137830928Y-147994000D01*
X129827072Y-147994000D01*
X129827072Y-145639000D01*
X129814812Y-145514518D01*
X129778502Y-145394820D01*
X129719537Y-145284506D01*
X129640185Y-145187815D01*
X129543494Y-145108463D01*
X129433180Y-145049498D01*
X129313482Y-145013188D01*
X129189000Y-145000928D01*
X126589000Y-145000928D01*
X126464518Y-145013188D01*
X126344820Y-145049498D01*
X126234506Y-145108463D01*
X126137815Y-145187815D01*
X126058463Y-145284506D01*
X125999498Y-145394820D01*
X125963188Y-145514518D01*
X125950928Y-145639000D01*
X123325504Y-145639000D01*
X123122491Y-145435987D01*
X122805566Y-145224225D01*
X122674000Y-145169729D01*
X122674000Y-143495665D01*
X132423000Y-143495665D01*
X132423000Y-143778335D01*
X132478147Y-144055574D01*
X132586320Y-144316727D01*
X132743363Y-144551759D01*
X132943241Y-144751637D01*
X133178273Y-144908680D01*
X133439426Y-145016853D01*
X133716665Y-145072000D01*
X133999335Y-145072000D01*
X134276574Y-145016853D01*
X134537727Y-144908680D01*
X134772759Y-144751637D01*
X134972637Y-144551759D01*
X135129680Y-144316727D01*
X135237853Y-144055574D01*
X135293000Y-143778335D01*
X135293000Y-143495665D01*
X135237853Y-143218426D01*
X135129680Y-142957273D01*
X134972637Y-142722241D01*
X134772759Y-142522363D01*
X134537727Y-142365320D01*
X134276574Y-142257147D01*
X133999335Y-142202000D01*
X133716665Y-142202000D01*
X133439426Y-142257147D01*
X133178273Y-142365320D01*
X132943241Y-142522363D01*
X132743363Y-142722241D01*
X132586320Y-142957273D01*
X132478147Y-143218426D01*
X132423000Y-143495665D01*
X122674000Y-143495665D01*
X122674000Y-142977157D01*
X125187088Y-140464069D01*
X125223919Y-140479325D01*
X125559117Y-140546000D01*
X125900883Y-140546000D01*
X126236081Y-140479325D01*
X126551831Y-140348537D01*
X126835998Y-140158663D01*
X127077663Y-139916998D01*
X127267537Y-139632831D01*
X127398325Y-139317081D01*
X127465000Y-138981883D01*
X127465000Y-138640117D01*
X127400132Y-138314000D01*
X131430928Y-138314000D01*
X131443188Y-138438482D01*
X131479498Y-138558180D01*
X131538463Y-138668494D01*
X131617815Y-138765185D01*
X131714506Y-138844537D01*
X131824820Y-138903502D01*
X131944518Y-138939812D01*
X132069000Y-138952072D01*
X132683250Y-138949000D01*
X132842000Y-138790250D01*
X132842000Y-137541000D01*
X131592750Y-137541000D01*
X131434000Y-137699750D01*
X131430928Y-138314000D01*
X127400132Y-138314000D01*
X127398325Y-138304919D01*
X127267537Y-137989169D01*
X127077663Y-137705002D01*
X126835998Y-137463337D01*
X126551831Y-137273463D01*
X126236081Y-137142675D01*
X125900883Y-137076000D01*
X125559117Y-137076000D01*
X125223919Y-137142675D01*
X125187088Y-137157931D01*
X124543157Y-136514000D01*
X131430928Y-136514000D01*
X131434000Y-137128250D01*
X131592750Y-137287000D01*
X132842000Y-137287000D01*
X132842000Y-136037750D01*
X133096000Y-136037750D01*
X133096000Y-137287000D01*
X133116000Y-137287000D01*
X133116000Y-137541000D01*
X133096000Y-137541000D01*
X133096000Y-138790250D01*
X133254750Y-138949000D01*
X133869000Y-138952072D01*
X133993482Y-138939812D01*
X134113180Y-138903502D01*
X134223494Y-138844537D01*
X134320185Y-138765185D01*
X134399537Y-138668494D01*
X134458502Y-138558180D01*
X134464056Y-138539873D01*
X134530495Y-138606312D01*
X134781905Y-138774299D01*
X135061257Y-138890011D01*
X135357816Y-138949000D01*
X135660184Y-138949000D01*
X135956743Y-138890011D01*
X136236095Y-138774299D01*
X136487505Y-138606312D01*
X136701312Y-138392505D01*
X136869299Y-138141095D01*
X136985011Y-137861743D01*
X137044000Y-137565184D01*
X137044000Y-137262816D01*
X136985011Y-136966257D01*
X136869299Y-136686905D01*
X136701312Y-136435495D01*
X136487505Y-136221688D01*
X136236095Y-136053701D01*
X135956743Y-135937989D01*
X135660184Y-135879000D01*
X135357816Y-135879000D01*
X135061257Y-135937989D01*
X134781905Y-136053701D01*
X134530495Y-136221688D01*
X134464056Y-136288127D01*
X134458502Y-136269820D01*
X134399537Y-136159506D01*
X134320185Y-136062815D01*
X134223494Y-135983463D01*
X134113180Y-135924498D01*
X133993482Y-135888188D01*
X133869000Y-135875928D01*
X133254750Y-135879000D01*
X133096000Y-136037750D01*
X132842000Y-136037750D01*
X132683250Y-135879000D01*
X132069000Y-135875928D01*
X131944518Y-135888188D01*
X131824820Y-135924498D01*
X131714506Y-135983463D01*
X131617815Y-136062815D01*
X131538463Y-136159506D01*
X131479498Y-136269820D01*
X131443188Y-136389518D01*
X131430928Y-136514000D01*
X124543157Y-136514000D01*
X122181940Y-134152783D01*
X123995000Y-134152783D01*
X123995000Y-134494549D01*
X124061675Y-134829747D01*
X124192463Y-135145497D01*
X124382337Y-135429664D01*
X124624002Y-135671329D01*
X124908169Y-135861203D01*
X125223919Y-135991991D01*
X125559117Y-136058666D01*
X125900883Y-136058666D01*
X126236081Y-135991991D01*
X126551831Y-135861203D01*
X126835998Y-135671329D01*
X127077663Y-135429664D01*
X127267537Y-135145497D01*
X127398325Y-134829747D01*
X127465000Y-134494549D01*
X127465000Y-134152783D01*
X127398325Y-133817585D01*
X127267537Y-133501835D01*
X127077663Y-133217668D01*
X126835998Y-132976003D01*
X126551831Y-132786129D01*
X126236081Y-132655341D01*
X125900883Y-132588666D01*
X125559117Y-132588666D01*
X125223919Y-132655341D01*
X124908169Y-132786129D01*
X124624002Y-132976003D01*
X124382337Y-133217668D01*
X124192463Y-133501835D01*
X124061675Y-133817585D01*
X123995000Y-134152783D01*
X122181940Y-134152783D01*
X118261612Y-130232455D01*
X124040825Y-130232455D01*
X124105425Y-130445427D01*
X124255469Y-130750662D01*
X124462178Y-131020760D01*
X124717609Y-131245341D01*
X125011946Y-131415775D01*
X125333877Y-131525512D01*
X125603000Y-131407933D01*
X125603000Y-129963333D01*
X125857000Y-129963333D01*
X125857000Y-131407933D01*
X126126123Y-131525512D01*
X126448054Y-131415775D01*
X126742391Y-131245341D01*
X126997822Y-131020760D01*
X127204531Y-130750662D01*
X127354575Y-130445427D01*
X127419175Y-130232455D01*
X127301125Y-129963333D01*
X125857000Y-129963333D01*
X125603000Y-129963333D01*
X124158875Y-129963333D01*
X124040825Y-130232455D01*
X118261612Y-130232455D01*
X117469368Y-129440211D01*
X124040825Y-129440211D01*
X124158875Y-129709333D01*
X125603000Y-129709333D01*
X125603000Y-128264733D01*
X125857000Y-128264733D01*
X125857000Y-129709333D01*
X127301125Y-129709333D01*
X127419175Y-129440211D01*
X127354575Y-129227239D01*
X127204531Y-128922004D01*
X126997822Y-128651906D01*
X126742391Y-128427325D01*
X126448054Y-128256891D01*
X126126123Y-128147154D01*
X125857000Y-128264733D01*
X125603000Y-128264733D01*
X125333877Y-128147154D01*
X125011946Y-128256891D01*
X124717609Y-128427325D01*
X124462178Y-128651906D01*
X124255469Y-128922004D01*
X124105425Y-129227239D01*
X124040825Y-129440211D01*
X117469368Y-129440211D01*
X117337680Y-129308523D01*
X117313097Y-129278569D01*
X117308072Y-129274445D01*
X117308072Y-128736333D01*
X117295812Y-128611851D01*
X117259502Y-128492153D01*
X117200537Y-128381839D01*
X117121185Y-128285148D01*
X117024494Y-128205796D01*
X116914180Y-128146831D01*
X116794482Y-128110521D01*
X116670000Y-128098261D01*
X114470000Y-128098261D01*
X114345518Y-128110521D01*
X114225820Y-128146831D01*
X114198000Y-128161701D01*
X114198000Y-127668000D01*
X132523928Y-127668000D01*
X132523928Y-129568000D01*
X132536188Y-129692482D01*
X132572498Y-129812180D01*
X132631463Y-129922494D01*
X132710815Y-130019185D01*
X132807506Y-130098537D01*
X132917820Y-130157502D01*
X133037518Y-130193812D01*
X133162000Y-130206072D01*
X135062000Y-130206072D01*
X135186482Y-130193812D01*
X135306180Y-130157502D01*
X135416494Y-130098537D01*
X135513185Y-130019185D01*
X135592537Y-129922494D01*
X135651502Y-129812180D01*
X135687812Y-129692482D01*
X135700072Y-129568000D01*
X135700072Y-127668000D01*
X135687812Y-127543518D01*
X135651502Y-127423820D01*
X135592537Y-127313506D01*
X135513185Y-127216815D01*
X135416494Y-127137463D01*
X135357979Y-127106186D01*
X135516609Y-126868779D01*
X135636089Y-126580327D01*
X135697000Y-126274109D01*
X135697000Y-125961891D01*
X135636089Y-125655673D01*
X135516609Y-125367221D01*
X135343150Y-125107621D01*
X135122379Y-124886850D01*
X135094168Y-124868000D01*
X135122379Y-124849150D01*
X135343150Y-124628379D01*
X135516609Y-124368779D01*
X135636089Y-124080327D01*
X135697000Y-123774109D01*
X135697000Y-123461891D01*
X135636089Y-123155673D01*
X135516609Y-122867221D01*
X135343150Y-122607621D01*
X135122379Y-122386850D01*
X134862779Y-122213391D01*
X134574327Y-122093911D01*
X134268109Y-122033000D01*
X133955891Y-122033000D01*
X133649673Y-122093911D01*
X133361221Y-122213391D01*
X133101621Y-122386850D01*
X132880850Y-122607621D01*
X132707391Y-122867221D01*
X132587911Y-123155673D01*
X132527000Y-123461891D01*
X132527000Y-123774109D01*
X132587911Y-124080327D01*
X132707391Y-124368779D01*
X132880850Y-124628379D01*
X133101621Y-124849150D01*
X133129832Y-124868000D01*
X133101621Y-124886850D01*
X132880850Y-125107621D01*
X132707391Y-125367221D01*
X132587911Y-125655673D01*
X132527000Y-125961891D01*
X132527000Y-126274109D01*
X132587911Y-126580327D01*
X132707391Y-126868779D01*
X132866021Y-127106186D01*
X132807506Y-127137463D01*
X132710815Y-127216815D01*
X132631463Y-127313506D01*
X132572498Y-127423820D01*
X132536188Y-127543518D01*
X132523928Y-127668000D01*
X114198000Y-127668000D01*
X114198000Y-127023632D01*
X114225820Y-127038502D01*
X114345518Y-127074812D01*
X114470000Y-127087072D01*
X116670000Y-127087072D01*
X116794482Y-127074812D01*
X116914180Y-127038502D01*
X117024494Y-126979537D01*
X117121185Y-126900185D01*
X117200537Y-126803494D01*
X117259502Y-126693180D01*
X117295812Y-126573482D01*
X117308072Y-126449000D01*
X117308072Y-125745122D01*
X124040825Y-125745122D01*
X124105425Y-125958094D01*
X124255469Y-126263329D01*
X124462178Y-126533427D01*
X124717609Y-126758008D01*
X125011946Y-126928442D01*
X125333877Y-127038179D01*
X125603000Y-126920600D01*
X125603000Y-125476000D01*
X125857000Y-125476000D01*
X125857000Y-126920600D01*
X126126123Y-127038179D01*
X126448054Y-126928442D01*
X126742391Y-126758008D01*
X126997822Y-126533427D01*
X127204531Y-126263329D01*
X127354575Y-125958094D01*
X127419175Y-125745122D01*
X127301125Y-125476000D01*
X125857000Y-125476000D01*
X125603000Y-125476000D01*
X124158875Y-125476000D01*
X124040825Y-125745122D01*
X117308072Y-125745122D01*
X117308072Y-124952878D01*
X124040825Y-124952878D01*
X124158875Y-125222000D01*
X125603000Y-125222000D01*
X125603000Y-123777400D01*
X125857000Y-123777400D01*
X125857000Y-125222000D01*
X127301125Y-125222000D01*
X127419175Y-124952878D01*
X127354575Y-124739906D01*
X127204531Y-124434671D01*
X126997822Y-124164573D01*
X126742391Y-123939992D01*
X126448054Y-123769558D01*
X126126123Y-123659821D01*
X125857000Y-123777400D01*
X125603000Y-123777400D01*
X125333877Y-123659821D01*
X125011946Y-123769558D01*
X124717609Y-123939992D01*
X124462178Y-124164573D01*
X124255469Y-124434671D01*
X124105425Y-124739906D01*
X124040825Y-124952878D01*
X117308072Y-124952878D01*
X117308072Y-124249000D01*
X117295812Y-124124518D01*
X117259502Y-124004820D01*
X117200537Y-123894506D01*
X117121185Y-123797815D01*
X117024494Y-123718463D01*
X116914180Y-123659498D01*
X116794482Y-123623188D01*
X116670000Y-123610928D01*
X114470000Y-123610928D01*
X114345518Y-123623188D01*
X114225820Y-123659498D01*
X114198000Y-123674368D01*
X114198000Y-118761000D01*
X115376428Y-118761000D01*
X115376428Y-120761000D01*
X115388688Y-120885482D01*
X115424998Y-121005180D01*
X115483963Y-121115494D01*
X115563315Y-121212185D01*
X115660006Y-121291537D01*
X115770320Y-121350502D01*
X115890018Y-121386812D01*
X116014500Y-121399072D01*
X117919500Y-121399072D01*
X118043982Y-121386812D01*
X118163680Y-121350502D01*
X118273994Y-121291537D01*
X118370685Y-121212185D01*
X118450037Y-121115494D01*
X118499059Y-121023781D01*
X118640077Y-121136969D01*
X118915906Y-121280571D01*
X119134020Y-121351563D01*
X119380000Y-121231594D01*
X119380000Y-119888000D01*
X119360000Y-119888000D01*
X119360000Y-119634000D01*
X119380000Y-119634000D01*
X119380000Y-118290406D01*
X119634000Y-118290406D01*
X119634000Y-119634000D01*
X119654000Y-119634000D01*
X119654000Y-119888000D01*
X119634000Y-119888000D01*
X119634000Y-121231594D01*
X119879980Y-121351563D01*
X120098094Y-121280571D01*
X120373923Y-121136969D01*
X120616437Y-120942315D01*
X120771837Y-120757101D01*
X120919037Y-120936463D01*
X121160766Y-121134845D01*
X121436552Y-121282255D01*
X121735797Y-121373030D01*
X122047000Y-121403681D01*
X122358204Y-121373030D01*
X122657449Y-121282255D01*
X122933235Y-121134845D01*
X123174963Y-120936463D01*
X123213369Y-120889665D01*
X126327000Y-120889665D01*
X126327000Y-121172335D01*
X126382147Y-121449574D01*
X126490320Y-121710727D01*
X126647363Y-121945759D01*
X126847241Y-122145637D01*
X127082273Y-122302680D01*
X127343426Y-122410853D01*
X127620665Y-122466000D01*
X127903335Y-122466000D01*
X128180574Y-122410853D01*
X128441727Y-122302680D01*
X128676759Y-122145637D01*
X128876637Y-121945759D01*
X129033680Y-121710727D01*
X129141853Y-121449574D01*
X129197000Y-121172335D01*
X129197000Y-120889665D01*
X129141853Y-120612426D01*
X129033680Y-120351273D01*
X128876637Y-120116241D01*
X128676759Y-119916363D01*
X128441727Y-119759320D01*
X128180574Y-119651147D01*
X127903335Y-119596000D01*
X127620665Y-119596000D01*
X127343426Y-119651147D01*
X127082273Y-119759320D01*
X126847241Y-119916363D01*
X126647363Y-120116241D01*
X126490320Y-120351273D01*
X126382147Y-120612426D01*
X126327000Y-120889665D01*
X123213369Y-120889665D01*
X123373345Y-120694734D01*
X123520755Y-120418948D01*
X123611530Y-120119703D01*
X123634500Y-119886485D01*
X123634500Y-119635514D01*
X123611530Y-119402296D01*
X123520755Y-119103051D01*
X123373345Y-118827265D01*
X123174963Y-118585537D01*
X122933234Y-118387155D01*
X122657448Y-118239745D01*
X122358203Y-118148970D01*
X122047000Y-118118319D01*
X121735796Y-118148970D01*
X121436551Y-118239745D01*
X121160765Y-118387155D01*
X120919037Y-118585537D01*
X120771838Y-118764900D01*
X120616437Y-118579685D01*
X120373923Y-118385031D01*
X120098094Y-118241429D01*
X119879980Y-118170437D01*
X119634000Y-118290406D01*
X119380000Y-118290406D01*
X119134020Y-118170437D01*
X118915906Y-118241429D01*
X118640077Y-118385031D01*
X118499059Y-118498219D01*
X118450037Y-118406506D01*
X118370685Y-118309815D01*
X118273994Y-118230463D01*
X118163680Y-118171498D01*
X118043982Y-118135188D01*
X117919500Y-118122928D01*
X116014500Y-118122928D01*
X115890018Y-118135188D01*
X115770320Y-118171498D01*
X115660006Y-118230463D01*
X115563315Y-118309815D01*
X115483963Y-118406506D01*
X115424998Y-118516820D01*
X115388688Y-118636518D01*
X115376428Y-118761000D01*
X114198000Y-118761000D01*
X114198000Y-115962000D01*
X131430928Y-115962000D01*
X131443188Y-116086482D01*
X131479498Y-116206180D01*
X131538463Y-116316494D01*
X131617815Y-116413185D01*
X131714506Y-116492537D01*
X131824820Y-116551502D01*
X131944518Y-116587812D01*
X132069000Y-116600072D01*
X132683250Y-116597000D01*
X132842000Y-116438250D01*
X132842000Y-115189000D01*
X131592750Y-115189000D01*
X131434000Y-115347750D01*
X131430928Y-115962000D01*
X114198000Y-115962000D01*
X114198000Y-113269665D01*
X126327000Y-113269665D01*
X126327000Y-113552335D01*
X126382147Y-113829574D01*
X126490320Y-114090727D01*
X126647363Y-114325759D01*
X126847241Y-114525637D01*
X127082273Y-114682680D01*
X127343426Y-114790853D01*
X127620665Y-114846000D01*
X127903335Y-114846000D01*
X128180574Y-114790853D01*
X128441727Y-114682680D01*
X128676759Y-114525637D01*
X128876637Y-114325759D01*
X128986057Y-114162000D01*
X131430928Y-114162000D01*
X131434000Y-114776250D01*
X131592750Y-114935000D01*
X132842000Y-114935000D01*
X132842000Y-113685750D01*
X133096000Y-113685750D01*
X133096000Y-114935000D01*
X133116000Y-114935000D01*
X133116000Y-115189000D01*
X133096000Y-115189000D01*
X133096000Y-116438250D01*
X133254750Y-116597000D01*
X133869000Y-116600072D01*
X133993482Y-116587812D01*
X134113180Y-116551502D01*
X134223494Y-116492537D01*
X134320185Y-116413185D01*
X134399537Y-116316494D01*
X134458502Y-116206180D01*
X134464056Y-116187873D01*
X134530495Y-116254312D01*
X134781905Y-116422299D01*
X135061257Y-116538011D01*
X135357816Y-116597000D01*
X135660184Y-116597000D01*
X135956743Y-116538011D01*
X136236095Y-116422299D01*
X136487505Y-116254312D01*
X136701312Y-116040505D01*
X136869299Y-115789095D01*
X136985011Y-115509743D01*
X137044000Y-115213184D01*
X137044000Y-114910816D01*
X136985011Y-114614257D01*
X136869299Y-114334905D01*
X136701312Y-114083495D01*
X136487505Y-113869688D01*
X136236095Y-113701701D01*
X135956743Y-113585989D01*
X135660184Y-113527000D01*
X135357816Y-113527000D01*
X135061257Y-113585989D01*
X134781905Y-113701701D01*
X134530495Y-113869688D01*
X134464056Y-113936127D01*
X134458502Y-113917820D01*
X134399537Y-113807506D01*
X134320185Y-113710815D01*
X134223494Y-113631463D01*
X134113180Y-113572498D01*
X133993482Y-113536188D01*
X133869000Y-113523928D01*
X133254750Y-113527000D01*
X133096000Y-113685750D01*
X132842000Y-113685750D01*
X132683250Y-113527000D01*
X132069000Y-113523928D01*
X131944518Y-113536188D01*
X131824820Y-113572498D01*
X131714506Y-113631463D01*
X131617815Y-113710815D01*
X131538463Y-113807506D01*
X131479498Y-113917820D01*
X131443188Y-114037518D01*
X131430928Y-114162000D01*
X128986057Y-114162000D01*
X129033680Y-114090727D01*
X129141853Y-113829574D01*
X129197000Y-113552335D01*
X129197000Y-113269665D01*
X129141853Y-112992426D01*
X129033680Y-112731273D01*
X128876637Y-112496241D01*
X128676759Y-112296363D01*
X128441727Y-112139320D01*
X128180574Y-112031147D01*
X127903335Y-111976000D01*
X127620665Y-111976000D01*
X127343426Y-112031147D01*
X127082273Y-112139320D01*
X126847241Y-112296363D01*
X126647363Y-112496241D01*
X126490320Y-112731273D01*
X126382147Y-112992426D01*
X126327000Y-113269665D01*
X114198000Y-113269665D01*
X114198000Y-107966000D01*
X115836928Y-107966000D01*
X115836928Y-109966000D01*
X115849188Y-110090482D01*
X115885498Y-110210180D01*
X115944463Y-110320494D01*
X116023815Y-110417185D01*
X116120506Y-110496537D01*
X116230820Y-110555502D01*
X116350518Y-110591812D01*
X116475000Y-110604072D01*
X118475000Y-110604072D01*
X118599482Y-110591812D01*
X118719180Y-110555502D01*
X118829494Y-110496537D01*
X118926185Y-110417185D01*
X119005537Y-110320494D01*
X119064502Y-110210180D01*
X119097496Y-110101413D01*
X121519192Y-110101413D01*
X121614956Y-110365814D01*
X121904571Y-110506704D01*
X122216108Y-110588384D01*
X122537595Y-110607718D01*
X122856675Y-110563961D01*
X123161088Y-110458795D01*
X123335044Y-110365814D01*
X123430808Y-110101413D01*
X122475000Y-109145605D01*
X121519192Y-110101413D01*
X119097496Y-110101413D01*
X119100812Y-110090482D01*
X119113072Y-109966000D01*
X119113072Y-109028595D01*
X120833282Y-109028595D01*
X120877039Y-109347675D01*
X120982205Y-109652088D01*
X121075186Y-109826044D01*
X121339587Y-109921808D01*
X122295395Y-108966000D01*
X122654605Y-108966000D01*
X123610413Y-109921808D01*
X123874814Y-109826044D01*
X124015704Y-109536429D01*
X124097384Y-109224892D01*
X124116718Y-108903405D01*
X124072961Y-108584325D01*
X123967795Y-108279912D01*
X123874814Y-108105956D01*
X123610413Y-108010192D01*
X122654605Y-108966000D01*
X122295395Y-108966000D01*
X121339587Y-108010192D01*
X121075186Y-108105956D01*
X120934296Y-108395571D01*
X120852616Y-108707108D01*
X120833282Y-109028595D01*
X119113072Y-109028595D01*
X119113072Y-107966000D01*
X119100812Y-107841518D01*
X119097497Y-107830587D01*
X121519192Y-107830587D01*
X122475000Y-108786395D01*
X123430808Y-107830587D01*
X123335044Y-107566186D01*
X123045429Y-107425296D01*
X122733892Y-107343616D01*
X122412405Y-107324282D01*
X122093325Y-107368039D01*
X121788912Y-107473205D01*
X121614956Y-107566186D01*
X121519192Y-107830587D01*
X119097497Y-107830587D01*
X119064502Y-107721820D01*
X119005537Y-107611506D01*
X118926185Y-107514815D01*
X118829494Y-107435463D01*
X118719180Y-107376498D01*
X118599482Y-107340188D01*
X118475000Y-107327928D01*
X116475000Y-107327928D01*
X116350518Y-107340188D01*
X116230820Y-107376498D01*
X116120506Y-107435463D01*
X116023815Y-107514815D01*
X115944463Y-107611506D01*
X115885498Y-107721820D01*
X115849188Y-107841518D01*
X115836928Y-107966000D01*
X114198000Y-107966000D01*
X114198000Y-105499000D01*
X127466928Y-105499000D01*
X127466928Y-107099000D01*
X127479188Y-107223482D01*
X127515498Y-107343180D01*
X127574463Y-107453494D01*
X127653815Y-107550185D01*
X127750506Y-107629537D01*
X127860820Y-107688502D01*
X127980518Y-107724812D01*
X128105000Y-107737072D01*
X129705000Y-107737072D01*
X129829482Y-107724812D01*
X129949180Y-107688502D01*
X130059494Y-107629537D01*
X130156185Y-107550185D01*
X130235537Y-107453494D01*
X130294502Y-107343180D01*
X130310117Y-107291702D01*
X130591903Y-107291702D01*
X130663486Y-107535671D01*
X130918996Y-107656571D01*
X131193184Y-107725300D01*
X131475512Y-107739217D01*
X131755130Y-107697787D01*
X132021292Y-107602603D01*
X132146514Y-107535671D01*
X132218097Y-107291702D01*
X131405000Y-106478605D01*
X130591903Y-107291702D01*
X130310117Y-107291702D01*
X130330812Y-107223482D01*
X130343072Y-107099000D01*
X130343072Y-107091785D01*
X130412298Y-107112097D01*
X131225395Y-106299000D01*
X131584605Y-106299000D01*
X132397702Y-107112097D01*
X132641671Y-107040514D01*
X132762571Y-106785004D01*
X132763602Y-106780890D01*
X137877524Y-106780890D01*
X137922175Y-106928099D01*
X138047359Y-107190920D01*
X138221412Y-107424269D01*
X138437645Y-107619178D01*
X138687748Y-107768157D01*
X138962109Y-107865481D01*
X139192000Y-107744814D01*
X139192000Y-106551000D01*
X139446000Y-106551000D01*
X139446000Y-107744814D01*
X139675891Y-107865481D01*
X139950252Y-107768157D01*
X140200355Y-107619178D01*
X140416588Y-107424269D01*
X140589000Y-107193120D01*
X140761412Y-107424269D01*
X140977645Y-107619178D01*
X141227748Y-107768157D01*
X141502109Y-107865481D01*
X141732000Y-107744814D01*
X141732000Y-106551000D01*
X141986000Y-106551000D01*
X141986000Y-107744814D01*
X142215891Y-107865481D01*
X142490252Y-107768157D01*
X142740355Y-107619178D01*
X142956588Y-107424269D01*
X143130641Y-107190920D01*
X143255825Y-106928099D01*
X143300476Y-106780890D01*
X143179155Y-106551000D01*
X141986000Y-106551000D01*
X141732000Y-106551000D01*
X139446000Y-106551000D01*
X139192000Y-106551000D01*
X137998845Y-106551000D01*
X137877524Y-106780890D01*
X132763602Y-106780890D01*
X132831300Y-106510816D01*
X132845217Y-106228488D01*
X132803787Y-105948870D01*
X132708603Y-105682708D01*
X132641671Y-105557486D01*
X132397702Y-105485903D01*
X131584605Y-106299000D01*
X131225395Y-106299000D01*
X130412298Y-105485903D01*
X130343072Y-105506215D01*
X130343072Y-105499000D01*
X130330812Y-105374518D01*
X130310118Y-105306298D01*
X130591903Y-105306298D01*
X131405000Y-106119395D01*
X132218097Y-105306298D01*
X132146514Y-105062329D01*
X131891004Y-104941429D01*
X131616816Y-104872700D01*
X131334488Y-104858783D01*
X131054870Y-104900213D01*
X130788708Y-104995397D01*
X130663486Y-105062329D01*
X130591903Y-105306298D01*
X130310118Y-105306298D01*
X130294502Y-105254820D01*
X130235537Y-105144506D01*
X130156185Y-105047815D01*
X130059494Y-104968463D01*
X129949180Y-104909498D01*
X129829482Y-104873188D01*
X129705000Y-104860928D01*
X128105000Y-104860928D01*
X127980518Y-104873188D01*
X127860820Y-104909498D01*
X127750506Y-104968463D01*
X127653815Y-105047815D01*
X127574463Y-105144506D01*
X127515498Y-105254820D01*
X127479188Y-105374518D01*
X127466928Y-105499000D01*
X114198000Y-105499000D01*
X114198000Y-103034000D01*
X137830928Y-103034000D01*
X137830928Y-104734000D01*
X137843188Y-104858482D01*
X137879498Y-104978180D01*
X137938463Y-105088494D01*
X138017815Y-105185185D01*
X138114506Y-105264537D01*
X138224820Y-105323502D01*
X138305466Y-105347966D01*
X138221412Y-105423731D01*
X138047359Y-105657080D01*
X137922175Y-105919901D01*
X137877524Y-106067110D01*
X137998845Y-106297000D01*
X139192000Y-106297000D01*
X139192000Y-106277000D01*
X139446000Y-106277000D01*
X139446000Y-106297000D01*
X141732000Y-106297000D01*
X141732000Y-106277000D01*
X141986000Y-106277000D01*
X141986000Y-106297000D01*
X143179155Y-106297000D01*
X143300476Y-106067110D01*
X143255825Y-105919901D01*
X143130641Y-105657080D01*
X142956588Y-105423731D01*
X142740355Y-105228822D01*
X142623466Y-105159195D01*
X142805632Y-105037475D01*
X143012475Y-104830632D01*
X143174990Y-104587411D01*
X143286932Y-104317158D01*
X143344000Y-104030260D01*
X143344000Y-103737740D01*
X143286932Y-103450842D01*
X143174990Y-103180589D01*
X143012475Y-102937368D01*
X142805632Y-102730525D01*
X142562411Y-102568010D01*
X142292158Y-102456068D01*
X142005260Y-102399000D01*
X141712740Y-102399000D01*
X141425842Y-102456068D01*
X141155589Y-102568010D01*
X140912368Y-102730525D01*
X140780513Y-102862380D01*
X140758502Y-102789820D01*
X140699537Y-102679506D01*
X140620185Y-102582815D01*
X140523494Y-102503463D01*
X140413180Y-102444498D01*
X140293482Y-102408188D01*
X140169000Y-102395928D01*
X138469000Y-102395928D01*
X138344518Y-102408188D01*
X138224820Y-102444498D01*
X138114506Y-102503463D01*
X138017815Y-102582815D01*
X137938463Y-102679506D01*
X137879498Y-102789820D01*
X137843188Y-102909518D01*
X137830928Y-103034000D01*
X114198000Y-103034000D01*
X114198000Y-102133000D01*
X143358001Y-102133000D01*
X143358000Y-107925000D01*
%TA.AperFunction,Conductor*%
D29*
G36*
X143358000Y-107925000D02*
G01*
X137827419Y-107925000D01*
X137795000Y-107921807D01*
X137762581Y-107925000D01*
X137665617Y-107934550D01*
X137541207Y-107972290D01*
X137426550Y-108033575D01*
X137326052Y-108116052D01*
X137243575Y-108216550D01*
X137182290Y-108331207D01*
X137144550Y-108455617D01*
X137131807Y-108585000D01*
X137135001Y-108617429D01*
X137135000Y-146525581D01*
X137131807Y-146558000D01*
X137144550Y-146687383D01*
X137182290Y-146811793D01*
X137243575Y-146926450D01*
X137285521Y-146977561D01*
X137326052Y-147026948D01*
X137426550Y-147109425D01*
X137541207Y-147170710D01*
X137665617Y-147208450D01*
X137795000Y-147221193D01*
X137827419Y-147218000D01*
X143358001Y-147218000D01*
X143358000Y-152883000D01*
X126381504Y-152883000D01*
X126392013Y-152872491D01*
X126603775Y-152555566D01*
X126749639Y-152203419D01*
X126824000Y-151829581D01*
X126824000Y-151448419D01*
X126757812Y-151115665D01*
X132423000Y-151115665D01*
X132423000Y-151398335D01*
X132478147Y-151675574D01*
X132586320Y-151936727D01*
X132743363Y-152171759D01*
X132943241Y-152371637D01*
X133178273Y-152528680D01*
X133439426Y-152636853D01*
X133716665Y-152692000D01*
X133999335Y-152692000D01*
X134276574Y-152636853D01*
X134537727Y-152528680D01*
X134772759Y-152371637D01*
X134972637Y-152171759D01*
X135129680Y-151936727D01*
X135210798Y-151740890D01*
X137877524Y-151740890D01*
X137922175Y-151888099D01*
X138047359Y-152150920D01*
X138221412Y-152384269D01*
X138437645Y-152579178D01*
X138687748Y-152728157D01*
X138962109Y-152825481D01*
X139192000Y-152704814D01*
X139192000Y-151511000D01*
X139446000Y-151511000D01*
X139446000Y-152704814D01*
X139675891Y-152825481D01*
X139950252Y-152728157D01*
X140200355Y-152579178D01*
X140416588Y-152384269D01*
X140589000Y-152153120D01*
X140761412Y-152384269D01*
X140977645Y-152579178D01*
X141227748Y-152728157D01*
X141502109Y-152825481D01*
X141732000Y-152704814D01*
X141732000Y-151511000D01*
X141986000Y-151511000D01*
X141986000Y-152704814D01*
X142215891Y-152825481D01*
X142490252Y-152728157D01*
X142740355Y-152579178D01*
X142956588Y-152384269D01*
X143130641Y-152150920D01*
X143255825Y-151888099D01*
X143300476Y-151740890D01*
X143179155Y-151511000D01*
X141986000Y-151511000D01*
X141732000Y-151511000D01*
X139446000Y-151511000D01*
X139192000Y-151511000D01*
X137998845Y-151511000D01*
X137877524Y-151740890D01*
X135210798Y-151740890D01*
X135237853Y-151675574D01*
X135293000Y-151398335D01*
X135293000Y-151115665D01*
X135237853Y-150838426D01*
X135129680Y-150577273D01*
X134972637Y-150342241D01*
X134772759Y-150142363D01*
X134537727Y-149985320D01*
X134276574Y-149877147D01*
X133999335Y-149822000D01*
X133716665Y-149822000D01*
X133439426Y-149877147D01*
X133178273Y-149985320D01*
X132943241Y-150142363D01*
X132743363Y-150342241D01*
X132586320Y-150577273D01*
X132478147Y-150838426D01*
X132423000Y-151115665D01*
X126757812Y-151115665D01*
X126749639Y-151074581D01*
X126603775Y-150722434D01*
X126392013Y-150405509D01*
X126122491Y-150135987D01*
X125805566Y-149924225D01*
X125453419Y-149778361D01*
X125079581Y-149704000D01*
X124698419Y-149704000D01*
X124324581Y-149778361D01*
X123972434Y-149924225D01*
X123655509Y-150135987D01*
X123385987Y-150405509D01*
X123174225Y-150722434D01*
X123028361Y-151074581D01*
X122954000Y-151448419D01*
X122954000Y-151829581D01*
X123028361Y-152203419D01*
X123174225Y-152555566D01*
X123385987Y-152872491D01*
X123396496Y-152883000D01*
X114198000Y-152883000D01*
X114198000Y-140485632D01*
X114225820Y-140500502D01*
X114345518Y-140536812D01*
X114470000Y-140549072D01*
X116670000Y-140549072D01*
X116794482Y-140536812D01*
X116914180Y-140500502D01*
X117024494Y-140441537D01*
X117121185Y-140362185D01*
X117200537Y-140265494D01*
X117259502Y-140155180D01*
X117295812Y-140035482D01*
X117308072Y-139911000D01*
X117308072Y-137711000D01*
X117295812Y-137586518D01*
X117259502Y-137466820D01*
X117200537Y-137356506D01*
X117121185Y-137259815D01*
X117024494Y-137180463D01*
X116914180Y-137121498D01*
X116794482Y-137085188D01*
X116670000Y-137072928D01*
X114470000Y-137072928D01*
X114345518Y-137085188D01*
X114225820Y-137121498D01*
X114198000Y-137136368D01*
X114198000Y-135998298D01*
X114225820Y-136013168D01*
X114345518Y-136049478D01*
X114470000Y-136061738D01*
X116670000Y-136061738D01*
X116794482Y-136049478D01*
X116914180Y-136013168D01*
X117024494Y-135954203D01*
X117121185Y-135874851D01*
X117200537Y-135778160D01*
X117259502Y-135667846D01*
X117295812Y-135548148D01*
X117308072Y-135423666D01*
X117308072Y-133223666D01*
X117295812Y-133099184D01*
X117259502Y-132979486D01*
X117200537Y-132869172D01*
X117121185Y-132772481D01*
X117024494Y-132693129D01*
X116914180Y-132634164D01*
X116794482Y-132597854D01*
X116670000Y-132585594D01*
X114470000Y-132585594D01*
X114345518Y-132597854D01*
X114225820Y-132634164D01*
X114198000Y-132649034D01*
X114198000Y-131510965D01*
X114225820Y-131525835D01*
X114345518Y-131562145D01*
X114470000Y-131574405D01*
X116670000Y-131574405D01*
X116794482Y-131562145D01*
X116914180Y-131525835D01*
X117024494Y-131466870D01*
X117121185Y-131387518D01*
X117155071Y-131346228D01*
X124076931Y-138268088D01*
X124061675Y-138304919D01*
X123995000Y-138640117D01*
X123995000Y-138981883D01*
X124061675Y-139317081D01*
X124076931Y-139353912D01*
X121361185Y-142069658D01*
X121331237Y-142094236D01*
X121306659Y-142124184D01*
X121306655Y-142124188D01*
X121273690Y-142164356D01*
X121233139Y-142213767D01*
X121209952Y-142257147D01*
X121160246Y-142350141D01*
X121115359Y-142498114D01*
X121100203Y-142652000D01*
X121104001Y-142690563D01*
X121104000Y-145169728D01*
X120972434Y-145224225D01*
X120655509Y-145435987D01*
X120385987Y-145705509D01*
X120174225Y-146022434D01*
X120028361Y-146374581D01*
X119954000Y-146748419D01*
X119954000Y-147129581D01*
X120028361Y-147503419D01*
X120174225Y-147855566D01*
X120385987Y-148172491D01*
X120655509Y-148442013D01*
X120972434Y-148653775D01*
X121324581Y-148799639D01*
X121698419Y-148874000D01*
X122079581Y-148874000D01*
X122453419Y-148799639D01*
X122805566Y-148653775D01*
X123122491Y-148442013D01*
X123392013Y-148172491D01*
X123603775Y-147855566D01*
X123749639Y-147503419D01*
X123824000Y-147129581D01*
X123824000Y-146748419D01*
X123749639Y-146374581D01*
X123603775Y-146022434D01*
X123392013Y-145705509D01*
X123325504Y-145639000D01*
X125950928Y-145639000D01*
X125950928Y-148239000D01*
X125963188Y-148363482D01*
X125999498Y-148483180D01*
X126058463Y-148593494D01*
X126137815Y-148690185D01*
X126234506Y-148769537D01*
X126344820Y-148828502D01*
X126464518Y-148864812D01*
X126589000Y-148877072D01*
X129189000Y-148877072D01*
X129313482Y-148864812D01*
X129433180Y-148828502D01*
X129543494Y-148769537D01*
X129640185Y-148690185D01*
X129719537Y-148593494D01*
X129778502Y-148483180D01*
X129814812Y-148363482D01*
X129827072Y-148239000D01*
X129827072Y-147994000D01*
X137830928Y-147994000D01*
X137830928Y-149694000D01*
X137843188Y-149818482D01*
X137879498Y-149938180D01*
X137938463Y-150048494D01*
X138017815Y-150145185D01*
X138114506Y-150224537D01*
X138224820Y-150283502D01*
X138305466Y-150307966D01*
X138221412Y-150383731D01*
X138047359Y-150617080D01*
X137922175Y-150879901D01*
X137877524Y-151027110D01*
X137998845Y-151257000D01*
X139192000Y-151257000D01*
X139192000Y-151237000D01*
X139446000Y-151237000D01*
X139446000Y-151257000D01*
X141732000Y-151257000D01*
X141732000Y-151237000D01*
X141986000Y-151237000D01*
X141986000Y-151257000D01*
X143179155Y-151257000D01*
X143300476Y-151027110D01*
X143255825Y-150879901D01*
X143130641Y-150617080D01*
X142956588Y-150383731D01*
X142740355Y-150188822D01*
X142623466Y-150119195D01*
X142805632Y-149997475D01*
X143012475Y-149790632D01*
X143174990Y-149547411D01*
X143286932Y-149277158D01*
X143344000Y-148990260D01*
X143344000Y-148697740D01*
X143286932Y-148410842D01*
X143174990Y-148140589D01*
X143012475Y-147897368D01*
X142805632Y-147690525D01*
X142562411Y-147528010D01*
X142292158Y-147416068D01*
X142005260Y-147359000D01*
X141712740Y-147359000D01*
X141425842Y-147416068D01*
X141155589Y-147528010D01*
X140912368Y-147690525D01*
X140780513Y-147822380D01*
X140758502Y-147749820D01*
X140699537Y-147639506D01*
X140620185Y-147542815D01*
X140523494Y-147463463D01*
X140413180Y-147404498D01*
X140293482Y-147368188D01*
X140169000Y-147355928D01*
X138469000Y-147355928D01*
X138344518Y-147368188D01*
X138224820Y-147404498D01*
X138114506Y-147463463D01*
X138017815Y-147542815D01*
X137938463Y-147639506D01*
X137879498Y-147749820D01*
X137843188Y-147869518D01*
X137830928Y-147994000D01*
X129827072Y-147994000D01*
X129827072Y-145639000D01*
X129814812Y-145514518D01*
X129778502Y-145394820D01*
X129719537Y-145284506D01*
X129640185Y-145187815D01*
X129543494Y-145108463D01*
X129433180Y-145049498D01*
X129313482Y-145013188D01*
X129189000Y-145000928D01*
X126589000Y-145000928D01*
X126464518Y-145013188D01*
X126344820Y-145049498D01*
X126234506Y-145108463D01*
X126137815Y-145187815D01*
X126058463Y-145284506D01*
X125999498Y-145394820D01*
X125963188Y-145514518D01*
X125950928Y-145639000D01*
X123325504Y-145639000D01*
X123122491Y-145435987D01*
X122805566Y-145224225D01*
X122674000Y-145169729D01*
X122674000Y-143495665D01*
X132423000Y-143495665D01*
X132423000Y-143778335D01*
X132478147Y-144055574D01*
X132586320Y-144316727D01*
X132743363Y-144551759D01*
X132943241Y-144751637D01*
X133178273Y-144908680D01*
X133439426Y-145016853D01*
X133716665Y-145072000D01*
X133999335Y-145072000D01*
X134276574Y-145016853D01*
X134537727Y-144908680D01*
X134772759Y-144751637D01*
X134972637Y-144551759D01*
X135129680Y-144316727D01*
X135237853Y-144055574D01*
X135293000Y-143778335D01*
X135293000Y-143495665D01*
X135237853Y-143218426D01*
X135129680Y-142957273D01*
X134972637Y-142722241D01*
X134772759Y-142522363D01*
X134537727Y-142365320D01*
X134276574Y-142257147D01*
X133999335Y-142202000D01*
X133716665Y-142202000D01*
X133439426Y-142257147D01*
X133178273Y-142365320D01*
X132943241Y-142522363D01*
X132743363Y-142722241D01*
X132586320Y-142957273D01*
X132478147Y-143218426D01*
X132423000Y-143495665D01*
X122674000Y-143495665D01*
X122674000Y-142977157D01*
X125187088Y-140464069D01*
X125223919Y-140479325D01*
X125559117Y-140546000D01*
X125900883Y-140546000D01*
X126236081Y-140479325D01*
X126551831Y-140348537D01*
X126835998Y-140158663D01*
X127077663Y-139916998D01*
X127267537Y-139632831D01*
X127398325Y-139317081D01*
X127465000Y-138981883D01*
X127465000Y-138640117D01*
X127400132Y-138314000D01*
X131430928Y-138314000D01*
X131443188Y-138438482D01*
X131479498Y-138558180D01*
X131538463Y-138668494D01*
X131617815Y-138765185D01*
X131714506Y-138844537D01*
X131824820Y-138903502D01*
X131944518Y-138939812D01*
X132069000Y-138952072D01*
X132683250Y-138949000D01*
X132842000Y-138790250D01*
X132842000Y-137541000D01*
X131592750Y-137541000D01*
X131434000Y-137699750D01*
X131430928Y-138314000D01*
X127400132Y-138314000D01*
X127398325Y-138304919D01*
X127267537Y-137989169D01*
X127077663Y-137705002D01*
X126835998Y-137463337D01*
X126551831Y-137273463D01*
X126236081Y-137142675D01*
X125900883Y-137076000D01*
X125559117Y-137076000D01*
X125223919Y-137142675D01*
X125187088Y-137157931D01*
X124543157Y-136514000D01*
X131430928Y-136514000D01*
X131434000Y-137128250D01*
X131592750Y-137287000D01*
X132842000Y-137287000D01*
X132842000Y-136037750D01*
X133096000Y-136037750D01*
X133096000Y-137287000D01*
X133116000Y-137287000D01*
X133116000Y-137541000D01*
X133096000Y-137541000D01*
X133096000Y-138790250D01*
X133254750Y-138949000D01*
X133869000Y-138952072D01*
X133993482Y-138939812D01*
X134113180Y-138903502D01*
X134223494Y-138844537D01*
X134320185Y-138765185D01*
X134399537Y-138668494D01*
X134458502Y-138558180D01*
X134464056Y-138539873D01*
X134530495Y-138606312D01*
X134781905Y-138774299D01*
X135061257Y-138890011D01*
X135357816Y-138949000D01*
X135660184Y-138949000D01*
X135956743Y-138890011D01*
X136236095Y-138774299D01*
X136487505Y-138606312D01*
X136701312Y-138392505D01*
X136869299Y-138141095D01*
X136985011Y-137861743D01*
X137044000Y-137565184D01*
X137044000Y-137262816D01*
X136985011Y-136966257D01*
X136869299Y-136686905D01*
X136701312Y-136435495D01*
X136487505Y-136221688D01*
X136236095Y-136053701D01*
X135956743Y-135937989D01*
X135660184Y-135879000D01*
X135357816Y-135879000D01*
X135061257Y-135937989D01*
X134781905Y-136053701D01*
X134530495Y-136221688D01*
X134464056Y-136288127D01*
X134458502Y-136269820D01*
X134399537Y-136159506D01*
X134320185Y-136062815D01*
X134223494Y-135983463D01*
X134113180Y-135924498D01*
X133993482Y-135888188D01*
X133869000Y-135875928D01*
X133254750Y-135879000D01*
X133096000Y-136037750D01*
X132842000Y-136037750D01*
X132683250Y-135879000D01*
X132069000Y-135875928D01*
X131944518Y-135888188D01*
X131824820Y-135924498D01*
X131714506Y-135983463D01*
X131617815Y-136062815D01*
X131538463Y-136159506D01*
X131479498Y-136269820D01*
X131443188Y-136389518D01*
X131430928Y-136514000D01*
X124543157Y-136514000D01*
X122181940Y-134152783D01*
X123995000Y-134152783D01*
X123995000Y-134494549D01*
X124061675Y-134829747D01*
X124192463Y-135145497D01*
X124382337Y-135429664D01*
X124624002Y-135671329D01*
X124908169Y-135861203D01*
X125223919Y-135991991D01*
X125559117Y-136058666D01*
X125900883Y-136058666D01*
X126236081Y-135991991D01*
X126551831Y-135861203D01*
X126835998Y-135671329D01*
X127077663Y-135429664D01*
X127267537Y-135145497D01*
X127398325Y-134829747D01*
X127465000Y-134494549D01*
X127465000Y-134152783D01*
X127398325Y-133817585D01*
X127267537Y-133501835D01*
X127077663Y-133217668D01*
X126835998Y-132976003D01*
X126551831Y-132786129D01*
X126236081Y-132655341D01*
X125900883Y-132588666D01*
X125559117Y-132588666D01*
X125223919Y-132655341D01*
X124908169Y-132786129D01*
X124624002Y-132976003D01*
X124382337Y-133217668D01*
X124192463Y-133501835D01*
X124061675Y-133817585D01*
X123995000Y-134152783D01*
X122181940Y-134152783D01*
X118261612Y-130232455D01*
X124040825Y-130232455D01*
X124105425Y-130445427D01*
X124255469Y-130750662D01*
X124462178Y-131020760D01*
X124717609Y-131245341D01*
X125011946Y-131415775D01*
X125333877Y-131525512D01*
X125603000Y-131407933D01*
X125603000Y-129963333D01*
X125857000Y-129963333D01*
X125857000Y-131407933D01*
X126126123Y-131525512D01*
X126448054Y-131415775D01*
X126742391Y-131245341D01*
X126997822Y-131020760D01*
X127204531Y-130750662D01*
X127354575Y-130445427D01*
X127419175Y-130232455D01*
X127301125Y-129963333D01*
X125857000Y-129963333D01*
X125603000Y-129963333D01*
X124158875Y-129963333D01*
X124040825Y-130232455D01*
X118261612Y-130232455D01*
X117469368Y-129440211D01*
X124040825Y-129440211D01*
X124158875Y-129709333D01*
X125603000Y-129709333D01*
X125603000Y-128264733D01*
X125857000Y-128264733D01*
X125857000Y-129709333D01*
X127301125Y-129709333D01*
X127419175Y-129440211D01*
X127354575Y-129227239D01*
X127204531Y-128922004D01*
X126997822Y-128651906D01*
X126742391Y-128427325D01*
X126448054Y-128256891D01*
X126126123Y-128147154D01*
X125857000Y-128264733D01*
X125603000Y-128264733D01*
X125333877Y-128147154D01*
X125011946Y-128256891D01*
X124717609Y-128427325D01*
X124462178Y-128651906D01*
X124255469Y-128922004D01*
X124105425Y-129227239D01*
X124040825Y-129440211D01*
X117469368Y-129440211D01*
X117337680Y-129308523D01*
X117313097Y-129278569D01*
X117308072Y-129274445D01*
X117308072Y-128736333D01*
X117295812Y-128611851D01*
X117259502Y-128492153D01*
X117200537Y-128381839D01*
X117121185Y-128285148D01*
X117024494Y-128205796D01*
X116914180Y-128146831D01*
X116794482Y-128110521D01*
X116670000Y-128098261D01*
X114470000Y-128098261D01*
X114345518Y-128110521D01*
X114225820Y-128146831D01*
X114198000Y-128161701D01*
X114198000Y-127668000D01*
X132523928Y-127668000D01*
X132523928Y-129568000D01*
X132536188Y-129692482D01*
X132572498Y-129812180D01*
X132631463Y-129922494D01*
X132710815Y-130019185D01*
X132807506Y-130098537D01*
X132917820Y-130157502D01*
X133037518Y-130193812D01*
X133162000Y-130206072D01*
X135062000Y-130206072D01*
X135186482Y-130193812D01*
X135306180Y-130157502D01*
X135416494Y-130098537D01*
X135513185Y-130019185D01*
X135592537Y-129922494D01*
X135651502Y-129812180D01*
X135687812Y-129692482D01*
X135700072Y-129568000D01*
X135700072Y-127668000D01*
X135687812Y-127543518D01*
X135651502Y-127423820D01*
X135592537Y-127313506D01*
X135513185Y-127216815D01*
X135416494Y-127137463D01*
X135357979Y-127106186D01*
X135516609Y-126868779D01*
X135636089Y-126580327D01*
X135697000Y-126274109D01*
X135697000Y-125961891D01*
X135636089Y-125655673D01*
X135516609Y-125367221D01*
X135343150Y-125107621D01*
X135122379Y-124886850D01*
X135094168Y-124868000D01*
X135122379Y-124849150D01*
X135343150Y-124628379D01*
X135516609Y-124368779D01*
X135636089Y-124080327D01*
X135697000Y-123774109D01*
X135697000Y-123461891D01*
X135636089Y-123155673D01*
X135516609Y-122867221D01*
X135343150Y-122607621D01*
X135122379Y-122386850D01*
X134862779Y-122213391D01*
X134574327Y-122093911D01*
X134268109Y-122033000D01*
X133955891Y-122033000D01*
X133649673Y-122093911D01*
X133361221Y-122213391D01*
X133101621Y-122386850D01*
X132880850Y-122607621D01*
X132707391Y-122867221D01*
X132587911Y-123155673D01*
X132527000Y-123461891D01*
X132527000Y-123774109D01*
X132587911Y-124080327D01*
X132707391Y-124368779D01*
X132880850Y-124628379D01*
X133101621Y-124849150D01*
X133129832Y-124868000D01*
X133101621Y-124886850D01*
X132880850Y-125107621D01*
X132707391Y-125367221D01*
X132587911Y-125655673D01*
X132527000Y-125961891D01*
X132527000Y-126274109D01*
X132587911Y-126580327D01*
X132707391Y-126868779D01*
X132866021Y-127106186D01*
X132807506Y-127137463D01*
X132710815Y-127216815D01*
X132631463Y-127313506D01*
X132572498Y-127423820D01*
X132536188Y-127543518D01*
X132523928Y-127668000D01*
X114198000Y-127668000D01*
X114198000Y-127023632D01*
X114225820Y-127038502D01*
X114345518Y-127074812D01*
X114470000Y-127087072D01*
X116670000Y-127087072D01*
X116794482Y-127074812D01*
X116914180Y-127038502D01*
X117024494Y-126979537D01*
X117121185Y-126900185D01*
X117200537Y-126803494D01*
X117259502Y-126693180D01*
X117295812Y-126573482D01*
X117308072Y-126449000D01*
X117308072Y-125745122D01*
X124040825Y-125745122D01*
X124105425Y-125958094D01*
X124255469Y-126263329D01*
X124462178Y-126533427D01*
X124717609Y-126758008D01*
X125011946Y-126928442D01*
X125333877Y-127038179D01*
X125603000Y-126920600D01*
X125603000Y-125476000D01*
X125857000Y-125476000D01*
X125857000Y-126920600D01*
X126126123Y-127038179D01*
X126448054Y-126928442D01*
X126742391Y-126758008D01*
X126997822Y-126533427D01*
X127204531Y-126263329D01*
X127354575Y-125958094D01*
X127419175Y-125745122D01*
X127301125Y-125476000D01*
X125857000Y-125476000D01*
X125603000Y-125476000D01*
X124158875Y-125476000D01*
X124040825Y-125745122D01*
X117308072Y-125745122D01*
X117308072Y-124952878D01*
X124040825Y-124952878D01*
X124158875Y-125222000D01*
X125603000Y-125222000D01*
X125603000Y-123777400D01*
X125857000Y-123777400D01*
X125857000Y-125222000D01*
X127301125Y-125222000D01*
X127419175Y-124952878D01*
X127354575Y-124739906D01*
X127204531Y-124434671D01*
X126997822Y-124164573D01*
X126742391Y-123939992D01*
X126448054Y-123769558D01*
X126126123Y-123659821D01*
X125857000Y-123777400D01*
X125603000Y-123777400D01*
X125333877Y-123659821D01*
X125011946Y-123769558D01*
X124717609Y-123939992D01*
X124462178Y-124164573D01*
X124255469Y-124434671D01*
X124105425Y-124739906D01*
X124040825Y-124952878D01*
X117308072Y-124952878D01*
X117308072Y-124249000D01*
X117295812Y-124124518D01*
X117259502Y-124004820D01*
X117200537Y-123894506D01*
X117121185Y-123797815D01*
X117024494Y-123718463D01*
X116914180Y-123659498D01*
X116794482Y-123623188D01*
X116670000Y-123610928D01*
X114470000Y-123610928D01*
X114345518Y-123623188D01*
X114225820Y-123659498D01*
X114198000Y-123674368D01*
X114198000Y-118761000D01*
X115376428Y-118761000D01*
X115376428Y-120761000D01*
X115388688Y-120885482D01*
X115424998Y-121005180D01*
X115483963Y-121115494D01*
X115563315Y-121212185D01*
X115660006Y-121291537D01*
X115770320Y-121350502D01*
X115890018Y-121386812D01*
X116014500Y-121399072D01*
X117919500Y-121399072D01*
X118043982Y-121386812D01*
X118163680Y-121350502D01*
X118273994Y-121291537D01*
X118370685Y-121212185D01*
X118450037Y-121115494D01*
X118499059Y-121023781D01*
X118640077Y-121136969D01*
X118915906Y-121280571D01*
X119134020Y-121351563D01*
X119380000Y-121231594D01*
X119380000Y-119888000D01*
X119360000Y-119888000D01*
X119360000Y-119634000D01*
X119380000Y-119634000D01*
X119380000Y-118290406D01*
X119634000Y-118290406D01*
X119634000Y-119634000D01*
X119654000Y-119634000D01*
X119654000Y-119888000D01*
X119634000Y-119888000D01*
X119634000Y-121231594D01*
X119879980Y-121351563D01*
X120098094Y-121280571D01*
X120373923Y-121136969D01*
X120616437Y-120942315D01*
X120771837Y-120757101D01*
X120919037Y-120936463D01*
X121160766Y-121134845D01*
X121436552Y-121282255D01*
X121735797Y-121373030D01*
X122047000Y-121403681D01*
X122358204Y-121373030D01*
X122657449Y-121282255D01*
X122933235Y-121134845D01*
X123174963Y-120936463D01*
X123213369Y-120889665D01*
X126327000Y-120889665D01*
X126327000Y-121172335D01*
X126382147Y-121449574D01*
X126490320Y-121710727D01*
X126647363Y-121945759D01*
X126847241Y-122145637D01*
X127082273Y-122302680D01*
X127343426Y-122410853D01*
X127620665Y-122466000D01*
X127903335Y-122466000D01*
X128180574Y-122410853D01*
X128441727Y-122302680D01*
X128676759Y-122145637D01*
X128876637Y-121945759D01*
X129033680Y-121710727D01*
X129141853Y-121449574D01*
X129197000Y-121172335D01*
X129197000Y-120889665D01*
X129141853Y-120612426D01*
X129033680Y-120351273D01*
X128876637Y-120116241D01*
X128676759Y-119916363D01*
X128441727Y-119759320D01*
X128180574Y-119651147D01*
X127903335Y-119596000D01*
X127620665Y-119596000D01*
X127343426Y-119651147D01*
X127082273Y-119759320D01*
X126847241Y-119916363D01*
X126647363Y-120116241D01*
X126490320Y-120351273D01*
X126382147Y-120612426D01*
X126327000Y-120889665D01*
X123213369Y-120889665D01*
X123373345Y-120694734D01*
X123520755Y-120418948D01*
X123611530Y-120119703D01*
X123634500Y-119886485D01*
X123634500Y-119635514D01*
X123611530Y-119402296D01*
X123520755Y-119103051D01*
X123373345Y-118827265D01*
X123174963Y-118585537D01*
X122933234Y-118387155D01*
X122657448Y-118239745D01*
X122358203Y-118148970D01*
X122047000Y-118118319D01*
X121735796Y-118148970D01*
X121436551Y-118239745D01*
X121160765Y-118387155D01*
X120919037Y-118585537D01*
X120771838Y-118764900D01*
X120616437Y-118579685D01*
X120373923Y-118385031D01*
X120098094Y-118241429D01*
X119879980Y-118170437D01*
X119634000Y-118290406D01*
X119380000Y-118290406D01*
X119134020Y-118170437D01*
X118915906Y-118241429D01*
X118640077Y-118385031D01*
X118499059Y-118498219D01*
X118450037Y-118406506D01*
X118370685Y-118309815D01*
X118273994Y-118230463D01*
X118163680Y-118171498D01*
X118043982Y-118135188D01*
X117919500Y-118122928D01*
X116014500Y-118122928D01*
X115890018Y-118135188D01*
X115770320Y-118171498D01*
X115660006Y-118230463D01*
X115563315Y-118309815D01*
X115483963Y-118406506D01*
X115424998Y-118516820D01*
X115388688Y-118636518D01*
X115376428Y-118761000D01*
X114198000Y-118761000D01*
X114198000Y-115962000D01*
X131430928Y-115962000D01*
X131443188Y-116086482D01*
X131479498Y-116206180D01*
X131538463Y-116316494D01*
X131617815Y-116413185D01*
X131714506Y-116492537D01*
X131824820Y-116551502D01*
X131944518Y-116587812D01*
X132069000Y-116600072D01*
X132683250Y-116597000D01*
X132842000Y-116438250D01*
X132842000Y-115189000D01*
X131592750Y-115189000D01*
X131434000Y-115347750D01*
X131430928Y-115962000D01*
X114198000Y-115962000D01*
X114198000Y-113269665D01*
X126327000Y-113269665D01*
X126327000Y-113552335D01*
X126382147Y-113829574D01*
X126490320Y-114090727D01*
X126647363Y-114325759D01*
X126847241Y-114525637D01*
X127082273Y-114682680D01*
X127343426Y-114790853D01*
X127620665Y-114846000D01*
X127903335Y-114846000D01*
X128180574Y-114790853D01*
X128441727Y-114682680D01*
X128676759Y-114525637D01*
X128876637Y-114325759D01*
X128986057Y-114162000D01*
X131430928Y-114162000D01*
X131434000Y-114776250D01*
X131592750Y-114935000D01*
X132842000Y-114935000D01*
X132842000Y-113685750D01*
X133096000Y-113685750D01*
X133096000Y-114935000D01*
X133116000Y-114935000D01*
X133116000Y-115189000D01*
X133096000Y-115189000D01*
X133096000Y-116438250D01*
X133254750Y-116597000D01*
X133869000Y-116600072D01*
X133993482Y-116587812D01*
X134113180Y-116551502D01*
X134223494Y-116492537D01*
X134320185Y-116413185D01*
X134399537Y-116316494D01*
X134458502Y-116206180D01*
X134464056Y-116187873D01*
X134530495Y-116254312D01*
X134781905Y-116422299D01*
X135061257Y-116538011D01*
X135357816Y-116597000D01*
X135660184Y-116597000D01*
X135956743Y-116538011D01*
X136236095Y-116422299D01*
X136487505Y-116254312D01*
X136701312Y-116040505D01*
X136869299Y-115789095D01*
X136985011Y-115509743D01*
X137044000Y-115213184D01*
X137044000Y-114910816D01*
X136985011Y-114614257D01*
X136869299Y-114334905D01*
X136701312Y-114083495D01*
X136487505Y-113869688D01*
X136236095Y-113701701D01*
X135956743Y-113585989D01*
X135660184Y-113527000D01*
X135357816Y-113527000D01*
X135061257Y-113585989D01*
X134781905Y-113701701D01*
X134530495Y-113869688D01*
X134464056Y-113936127D01*
X134458502Y-113917820D01*
X134399537Y-113807506D01*
X134320185Y-113710815D01*
X134223494Y-113631463D01*
X134113180Y-113572498D01*
X133993482Y-113536188D01*
X133869000Y-113523928D01*
X133254750Y-113527000D01*
X133096000Y-113685750D01*
X132842000Y-113685750D01*
X132683250Y-113527000D01*
X132069000Y-113523928D01*
X131944518Y-113536188D01*
X131824820Y-113572498D01*
X131714506Y-113631463D01*
X131617815Y-113710815D01*
X131538463Y-113807506D01*
X131479498Y-113917820D01*
X131443188Y-114037518D01*
X131430928Y-114162000D01*
X128986057Y-114162000D01*
X129033680Y-114090727D01*
X129141853Y-113829574D01*
X129197000Y-113552335D01*
X129197000Y-113269665D01*
X129141853Y-112992426D01*
X129033680Y-112731273D01*
X128876637Y-112496241D01*
X128676759Y-112296363D01*
X128441727Y-112139320D01*
X128180574Y-112031147D01*
X127903335Y-111976000D01*
X127620665Y-111976000D01*
X127343426Y-112031147D01*
X127082273Y-112139320D01*
X126847241Y-112296363D01*
X126647363Y-112496241D01*
X126490320Y-112731273D01*
X126382147Y-112992426D01*
X126327000Y-113269665D01*
X114198000Y-113269665D01*
X114198000Y-107966000D01*
X115836928Y-107966000D01*
X115836928Y-109966000D01*
X115849188Y-110090482D01*
X115885498Y-110210180D01*
X115944463Y-110320494D01*
X116023815Y-110417185D01*
X116120506Y-110496537D01*
X116230820Y-110555502D01*
X116350518Y-110591812D01*
X116475000Y-110604072D01*
X118475000Y-110604072D01*
X118599482Y-110591812D01*
X118719180Y-110555502D01*
X118829494Y-110496537D01*
X118926185Y-110417185D01*
X119005537Y-110320494D01*
X119064502Y-110210180D01*
X119097496Y-110101413D01*
X121519192Y-110101413D01*
X121614956Y-110365814D01*
X121904571Y-110506704D01*
X122216108Y-110588384D01*
X122537595Y-110607718D01*
X122856675Y-110563961D01*
X123161088Y-110458795D01*
X123335044Y-110365814D01*
X123430808Y-110101413D01*
X122475000Y-109145605D01*
X121519192Y-110101413D01*
X119097496Y-110101413D01*
X119100812Y-110090482D01*
X119113072Y-109966000D01*
X119113072Y-109028595D01*
X120833282Y-109028595D01*
X120877039Y-109347675D01*
X120982205Y-109652088D01*
X121075186Y-109826044D01*
X121339587Y-109921808D01*
X122295395Y-108966000D01*
X122654605Y-108966000D01*
X123610413Y-109921808D01*
X123874814Y-109826044D01*
X124015704Y-109536429D01*
X124097384Y-109224892D01*
X124116718Y-108903405D01*
X124072961Y-108584325D01*
X123967795Y-108279912D01*
X123874814Y-108105956D01*
X123610413Y-108010192D01*
X122654605Y-108966000D01*
X122295395Y-108966000D01*
X121339587Y-108010192D01*
X121075186Y-108105956D01*
X120934296Y-108395571D01*
X120852616Y-108707108D01*
X120833282Y-109028595D01*
X119113072Y-109028595D01*
X119113072Y-107966000D01*
X119100812Y-107841518D01*
X119097497Y-107830587D01*
X121519192Y-107830587D01*
X122475000Y-108786395D01*
X123430808Y-107830587D01*
X123335044Y-107566186D01*
X123045429Y-107425296D01*
X122733892Y-107343616D01*
X122412405Y-107324282D01*
X122093325Y-107368039D01*
X121788912Y-107473205D01*
X121614956Y-107566186D01*
X121519192Y-107830587D01*
X119097497Y-107830587D01*
X119064502Y-107721820D01*
X119005537Y-107611506D01*
X118926185Y-107514815D01*
X118829494Y-107435463D01*
X118719180Y-107376498D01*
X118599482Y-107340188D01*
X118475000Y-107327928D01*
X116475000Y-107327928D01*
X116350518Y-107340188D01*
X116230820Y-107376498D01*
X116120506Y-107435463D01*
X116023815Y-107514815D01*
X115944463Y-107611506D01*
X115885498Y-107721820D01*
X115849188Y-107841518D01*
X115836928Y-107966000D01*
X114198000Y-107966000D01*
X114198000Y-105499000D01*
X127466928Y-105499000D01*
X127466928Y-107099000D01*
X127479188Y-107223482D01*
X127515498Y-107343180D01*
X127574463Y-107453494D01*
X127653815Y-107550185D01*
X127750506Y-107629537D01*
X127860820Y-107688502D01*
X127980518Y-107724812D01*
X128105000Y-107737072D01*
X129705000Y-107737072D01*
X129829482Y-107724812D01*
X129949180Y-107688502D01*
X130059494Y-107629537D01*
X130156185Y-107550185D01*
X130235537Y-107453494D01*
X130294502Y-107343180D01*
X130310117Y-107291702D01*
X130591903Y-107291702D01*
X130663486Y-107535671D01*
X130918996Y-107656571D01*
X131193184Y-107725300D01*
X131475512Y-107739217D01*
X131755130Y-107697787D01*
X132021292Y-107602603D01*
X132146514Y-107535671D01*
X132218097Y-107291702D01*
X131405000Y-106478605D01*
X130591903Y-107291702D01*
X130310117Y-107291702D01*
X130330812Y-107223482D01*
X130343072Y-107099000D01*
X130343072Y-107091785D01*
X130412298Y-107112097D01*
X131225395Y-106299000D01*
X131584605Y-106299000D01*
X132397702Y-107112097D01*
X132641671Y-107040514D01*
X132762571Y-106785004D01*
X132763602Y-106780890D01*
X137877524Y-106780890D01*
X137922175Y-106928099D01*
X138047359Y-107190920D01*
X138221412Y-107424269D01*
X138437645Y-107619178D01*
X138687748Y-107768157D01*
X138962109Y-107865481D01*
X139192000Y-107744814D01*
X139192000Y-106551000D01*
X139446000Y-106551000D01*
X139446000Y-107744814D01*
X139675891Y-107865481D01*
X139950252Y-107768157D01*
X140200355Y-107619178D01*
X140416588Y-107424269D01*
X140589000Y-107193120D01*
X140761412Y-107424269D01*
X140977645Y-107619178D01*
X141227748Y-107768157D01*
X141502109Y-107865481D01*
X141732000Y-107744814D01*
X141732000Y-106551000D01*
X141986000Y-106551000D01*
X141986000Y-107744814D01*
X142215891Y-107865481D01*
X142490252Y-107768157D01*
X142740355Y-107619178D01*
X142956588Y-107424269D01*
X143130641Y-107190920D01*
X143255825Y-106928099D01*
X143300476Y-106780890D01*
X143179155Y-106551000D01*
X141986000Y-106551000D01*
X141732000Y-106551000D01*
X139446000Y-106551000D01*
X139192000Y-106551000D01*
X137998845Y-106551000D01*
X137877524Y-106780890D01*
X132763602Y-106780890D01*
X132831300Y-106510816D01*
X132845217Y-106228488D01*
X132803787Y-105948870D01*
X132708603Y-105682708D01*
X132641671Y-105557486D01*
X132397702Y-105485903D01*
X131584605Y-106299000D01*
X131225395Y-106299000D01*
X130412298Y-105485903D01*
X130343072Y-105506215D01*
X130343072Y-105499000D01*
X130330812Y-105374518D01*
X130310118Y-105306298D01*
X130591903Y-105306298D01*
X131405000Y-106119395D01*
X132218097Y-105306298D01*
X132146514Y-105062329D01*
X131891004Y-104941429D01*
X131616816Y-104872700D01*
X131334488Y-104858783D01*
X131054870Y-104900213D01*
X130788708Y-104995397D01*
X130663486Y-105062329D01*
X130591903Y-105306298D01*
X130310118Y-105306298D01*
X130294502Y-105254820D01*
X130235537Y-105144506D01*
X130156185Y-105047815D01*
X130059494Y-104968463D01*
X129949180Y-104909498D01*
X129829482Y-104873188D01*
X129705000Y-104860928D01*
X128105000Y-104860928D01*
X127980518Y-104873188D01*
X127860820Y-104909498D01*
X127750506Y-104968463D01*
X127653815Y-105047815D01*
X127574463Y-105144506D01*
X127515498Y-105254820D01*
X127479188Y-105374518D01*
X127466928Y-105499000D01*
X114198000Y-105499000D01*
X114198000Y-103034000D01*
X137830928Y-103034000D01*
X137830928Y-104734000D01*
X137843188Y-104858482D01*
X137879498Y-104978180D01*
X137938463Y-105088494D01*
X138017815Y-105185185D01*
X138114506Y-105264537D01*
X138224820Y-105323502D01*
X138305466Y-105347966D01*
X138221412Y-105423731D01*
X138047359Y-105657080D01*
X137922175Y-105919901D01*
X137877524Y-106067110D01*
X137998845Y-106297000D01*
X139192000Y-106297000D01*
X139192000Y-106277000D01*
X139446000Y-106277000D01*
X139446000Y-106297000D01*
X141732000Y-106297000D01*
X141732000Y-106277000D01*
X141986000Y-106277000D01*
X141986000Y-106297000D01*
X143179155Y-106297000D01*
X143300476Y-106067110D01*
X143255825Y-105919901D01*
X143130641Y-105657080D01*
X142956588Y-105423731D01*
X142740355Y-105228822D01*
X142623466Y-105159195D01*
X142805632Y-105037475D01*
X143012475Y-104830632D01*
X143174990Y-104587411D01*
X143286932Y-104317158D01*
X143344000Y-104030260D01*
X143344000Y-103737740D01*
X143286932Y-103450842D01*
X143174990Y-103180589D01*
X143012475Y-102937368D01*
X142805632Y-102730525D01*
X142562411Y-102568010D01*
X142292158Y-102456068D01*
X142005260Y-102399000D01*
X141712740Y-102399000D01*
X141425842Y-102456068D01*
X141155589Y-102568010D01*
X140912368Y-102730525D01*
X140780513Y-102862380D01*
X140758502Y-102789820D01*
X140699537Y-102679506D01*
X140620185Y-102582815D01*
X140523494Y-102503463D01*
X140413180Y-102444498D01*
X140293482Y-102408188D01*
X140169000Y-102395928D01*
X138469000Y-102395928D01*
X138344518Y-102408188D01*
X138224820Y-102444498D01*
X138114506Y-102503463D01*
X138017815Y-102582815D01*
X137938463Y-102679506D01*
X137879498Y-102789820D01*
X137843188Y-102909518D01*
X137830928Y-103034000D01*
X114198000Y-103034000D01*
X114198000Y-102133000D01*
X143358001Y-102133000D01*
X143358000Y-107925000D01*
G37*
%TD.AperFunction*%
%TD*%
M02*
