%TF.GenerationSoftware,KiCad,Pcbnew,(5.1.12)-1*%
%TF.CreationDate,2022-01-26T00:14:16-03:00*%
%TF.ProjectId,BPS,4250532e-6b69-4636-9164-5f7063625858,3*%
%TF.SameCoordinates,Original*%
%TF.FileFunction,Soldermask,Top*%
%TF.FilePolarity,Negative*%
%FSLAX46Y46*%
G04 Gerber Fmt 4.6, Leading zero omitted, Abs format (unit mm)*
G04 Created by KiCad (PCBNEW (5.1.12)-1) date 2022-01-26 00:14:16*
%MOMM*%
%LPD*%
G01*
G04 APERTURE LIST*
%ADD10R,2.000000X2.000000*%
%ADD11C,2.000000*%
%ADD12R,1.600000X1.600000*%
%ADD13C,1.600000*%
%ADD14R,2.200000X2.200000*%
%ADD15O,2.200000X2.200000*%
%ADD16R,1.800000X1.800000*%
%ADD17C,1.800000*%
%ADD18R,2.600000X2.600000*%
%ADD19C,2.600000*%
%ADD20R,1.700000X1.700000*%
%ADD21O,1.700000X1.700000*%
%ADD22O,1.600000X1.600000*%
%ADD23R,1.900000X1.900000*%
%ADD24C,1.900000*%
%ADD25R,1.905000X2.000000*%
%ADD26O,1.905000X2.000000*%
G04 APERTURE END LIST*
D10*
%TO.C,C1*%
X117475000Y-108966000D03*
D11*
X122475000Y-108966000D03*
%TD*%
D12*
%TO.C,C2*%
X128905000Y-106299000D03*
D13*
X131405000Y-106299000D03*
%TD*%
D14*
%TO.C,D1*%
X115570000Y-134323666D03*
D15*
X125730000Y-134323666D03*
%TD*%
D14*
%TO.C,D2*%
X115570000Y-125349000D03*
D15*
X125730000Y-125349000D03*
%TD*%
%TO.C,D3*%
X125730000Y-138811000D03*
D14*
X115570000Y-138811000D03*
%TD*%
D15*
%TO.C,D4*%
X125730000Y-129836333D03*
D14*
X115570000Y-129836333D03*
%TD*%
D16*
%TO.C,D5*%
X132969000Y-137414000D03*
D17*
X135509000Y-137414000D03*
%TD*%
%TO.C,D6*%
X135509000Y-115062000D03*
D16*
X132969000Y-115062000D03*
%TD*%
D18*
%TO.C,J1*%
X127889000Y-146939000D03*
D19*
X121889000Y-146939000D03*
X124889000Y-151639000D03*
%TD*%
D20*
%TO.C,J2*%
X139319000Y-103884000D03*
D21*
X141859000Y-103884000D03*
X139319000Y-106424000D03*
X141859000Y-106424000D03*
%TD*%
%TO.C,J3*%
X141859000Y-151384000D03*
X139319000Y-151384000D03*
X141859000Y-148844000D03*
D20*
X139319000Y-148844000D03*
%TD*%
D13*
%TO.C,R1*%
X133858000Y-151257000D03*
D22*
X133858000Y-143637000D03*
%TD*%
%TO.C,R2*%
X127762000Y-113411000D03*
D13*
X127762000Y-121031000D03*
%TD*%
D23*
%TO.C,SW1*%
X134112000Y-128618000D03*
D24*
X134112000Y-126118000D03*
X134112000Y-123618000D03*
%TD*%
D25*
%TO.C,U1*%
X116967000Y-119761000D03*
D26*
X119507000Y-119761000D03*
X122047000Y-119761000D03*
%TD*%
M02*
