M48
; DRILL file {KiCad (5.1.12)-1} date 01/26/22 00:14:58
; FORMAT={-:-/ absolute / inch / decimal}
; #@! TF.CreationDate,2022-01-26T00:14:58-03:00
; #@! TF.GenerationSoftware,Kicad,Pcbnew,(5.1.12)-1
; #@! TF.FileFunction,Plated,1,2,PTH
FMAT,2
INCH
T1C0.0315
T2C0.0354
T3C0.0394
T4C0.0433
T5C0.0630
%
G90
G05
T1
X5.03Y-4.465
X5.03Y-4.765
X5.075Y-4.185
X5.1734Y-4.185
X5.27Y-5.655
X5.27Y-5.955
T2
X5.235Y-4.53
X5.235Y-5.41
X5.28Y-4.8669
X5.28Y-4.9653
X5.28Y-5.0637
X5.335Y-4.53
X5.335Y-5.41
T3
X4.625Y-4.29
X4.8219Y-4.29
X5.485Y-4.0899
X5.485Y-4.1899
X5.485Y-5.86
X5.485Y-5.96
X5.585Y-4.0899
X5.585Y-4.1899
X5.585Y-5.86
X5.585Y-5.96
T4
X4.55Y-4.935
X4.55Y-5.1117
X4.55Y-5.2883
X4.55Y-5.465
X4.605Y-4.715
X4.705Y-4.715
X4.805Y-4.715
X4.95Y-4.935
X4.95Y-5.1117
X4.95Y-5.2883
X4.95Y-5.465
T5
X4.7988Y-5.785
X4.9169Y-5.97
X5.035Y-5.785
T0
M30
