%TF.GenerationSoftware,KiCad,Pcbnew,(5.1.12)-1*%
%TF.CreationDate,2022-01-26T00:14:16-03:00*%
%TF.ProjectId,BPS,4250532e-6b69-4636-9164-5f7063625858,3*%
%TF.SameCoordinates,Original*%
%TF.FileFunction,Legend,Bot*%
%TF.FilePolarity,Positive*%
%FSLAX46Y46*%
G04 Gerber Fmt 4.6, Leading zero omitted, Abs format (unit mm)*
G04 Created by KiCad (PCBNEW (5.1.12)-1) date 2022-01-26 00:14:16*
%MOMM*%
%LPD*%
G01*
G04 APERTURE LIST*
%ADD10C,0.150000*%
%ADD11C,0.120000*%
%ADD12C,0.250000*%
%ADD13C,0.010000*%
G04 APERTURE END LIST*
D10*
X124587523Y-160234380D02*
X125206571Y-160234380D01*
X124873238Y-160615333D01*
X125016095Y-160615333D01*
X125111333Y-160662952D01*
X125158952Y-160710571D01*
X125206571Y-160805809D01*
X125206571Y-161043904D01*
X125158952Y-161139142D01*
X125111333Y-161186761D01*
X125016095Y-161234380D01*
X124730380Y-161234380D01*
X124635142Y-161186761D01*
X124587523Y-161139142D01*
X125825619Y-160234380D02*
X125920857Y-160234380D01*
X126016095Y-160282000D01*
X126063714Y-160329619D01*
X126111333Y-160424857D01*
X126158952Y-160615333D01*
X126158952Y-160853428D01*
X126111333Y-161043904D01*
X126063714Y-161139142D01*
X126016095Y-161186761D01*
X125920857Y-161234380D01*
X125825619Y-161234380D01*
X125730380Y-161186761D01*
X125682761Y-161139142D01*
X125635142Y-161043904D01*
X125587523Y-160853428D01*
X125587523Y-160615333D01*
X125635142Y-160424857D01*
X125682761Y-160329619D01*
X125730380Y-160282000D01*
X125825619Y-160234380D01*
X126587523Y-161139142D02*
X126635142Y-161186761D01*
X126587523Y-161234380D01*
X126539904Y-161186761D01*
X126587523Y-161139142D01*
X126587523Y-161234380D01*
X127492285Y-160567714D02*
X127492285Y-161234380D01*
X127254190Y-160186761D02*
X127016095Y-160901047D01*
X127635142Y-160901047D01*
X128158952Y-160662952D02*
X128063714Y-160615333D01*
X128016095Y-160567714D01*
X127968476Y-160472476D01*
X127968476Y-160424857D01*
X128016095Y-160329619D01*
X128063714Y-160282000D01*
X128158952Y-160234380D01*
X128349428Y-160234380D01*
X128444666Y-160282000D01*
X128492285Y-160329619D01*
X128539904Y-160424857D01*
X128539904Y-160472476D01*
X128492285Y-160567714D01*
X128444666Y-160615333D01*
X128349428Y-160662952D01*
X128158952Y-160662952D01*
X128063714Y-160710571D01*
X128016095Y-160758190D01*
X127968476Y-160853428D01*
X127968476Y-161043904D01*
X128016095Y-161139142D01*
X128063714Y-161186761D01*
X128158952Y-161234380D01*
X128349428Y-161234380D01*
X128444666Y-161186761D01*
X128492285Y-161139142D01*
X128539904Y-161043904D01*
X128539904Y-160853428D01*
X128492285Y-160758190D01*
X128444666Y-160710571D01*
X128349428Y-160662952D01*
X129158952Y-160234380D02*
X129254190Y-160234380D01*
X129349428Y-160282000D01*
X129397047Y-160329619D01*
X129444666Y-160424857D01*
X129492285Y-160615333D01*
X129492285Y-160853428D01*
X129444666Y-161043904D01*
X129397047Y-161139142D01*
X129349428Y-161186761D01*
X129254190Y-161234380D01*
X129158952Y-161234380D01*
X129063714Y-161186761D01*
X129016095Y-161139142D01*
X128968476Y-161043904D01*
X128920857Y-160853428D01*
X128920857Y-160615333D01*
X128968476Y-160424857D01*
X129016095Y-160329619D01*
X129063714Y-160282000D01*
X129158952Y-160234380D01*
X130682761Y-161234380D02*
X130682761Y-160567714D01*
X130682761Y-160662952D02*
X130730380Y-160615333D01*
X130825619Y-160567714D01*
X130968476Y-160567714D01*
X131063714Y-160615333D01*
X131111333Y-160710571D01*
X131111333Y-161234380D01*
X131111333Y-160710571D02*
X131158952Y-160615333D01*
X131254190Y-160567714D01*
X131397047Y-160567714D01*
X131492285Y-160615333D01*
X131539904Y-160710571D01*
X131539904Y-161234380D01*
X132016095Y-161234380D02*
X132016095Y-160567714D01*
X132016095Y-160662952D02*
X132063714Y-160615333D01*
X132158952Y-160567714D01*
X132301809Y-160567714D01*
X132397047Y-160615333D01*
X132444666Y-160710571D01*
X132444666Y-161234380D01*
X132444666Y-160710571D02*
X132492285Y-160615333D01*
X132587523Y-160567714D01*
X132730380Y-160567714D01*
X132825619Y-160615333D01*
X132873238Y-160710571D01*
X132873238Y-161234380D01*
D11*
X113538000Y-159512000D02*
X144018000Y-159512000D01*
X113538000Y-153543000D02*
X113538000Y-160098421D01*
X144018000Y-153543000D02*
X144018000Y-160098421D01*
X144018000Y-159512000D02*
X142891496Y-160098421D01*
X144018000Y-159512000D02*
X142891496Y-158925579D01*
X113538000Y-159512000D02*
X114664504Y-160098421D01*
X113538000Y-159512000D02*
X114664504Y-158925579D01*
D10*
X162012380Y-108743285D02*
X162012380Y-108076619D01*
X163012380Y-108505190D01*
X162917142Y-107695666D02*
X162964761Y-107648047D01*
X163012380Y-107695666D01*
X162964761Y-107743285D01*
X162917142Y-107695666D01*
X163012380Y-107695666D01*
X163012380Y-106695666D02*
X163012380Y-107267095D01*
X163012380Y-106981380D02*
X162012380Y-106981380D01*
X162155238Y-107076619D01*
X162250476Y-107171857D01*
X162298095Y-107267095D01*
X163012380Y-105743285D02*
X163012380Y-106314714D01*
X163012380Y-106029000D02*
X162012380Y-106029000D01*
X162155238Y-106124238D01*
X162250476Y-106219476D01*
X162298095Y-106314714D01*
X162107619Y-105362333D02*
X162060000Y-105314714D01*
X162012380Y-105219476D01*
X162012380Y-104981380D01*
X162060000Y-104886142D01*
X162107619Y-104838523D01*
X162202857Y-104790904D01*
X162298095Y-104790904D01*
X162440952Y-104838523D01*
X163012380Y-105409952D01*
X163012380Y-104790904D01*
X163012380Y-103600428D02*
X162345714Y-103600428D01*
X162440952Y-103600428D02*
X162393333Y-103552809D01*
X162345714Y-103457571D01*
X162345714Y-103314714D01*
X162393333Y-103219476D01*
X162488571Y-103171857D01*
X163012380Y-103171857D01*
X162488571Y-103171857D02*
X162393333Y-103124238D01*
X162345714Y-103029000D01*
X162345714Y-102886142D01*
X162393333Y-102790904D01*
X162488571Y-102743285D01*
X163012380Y-102743285D01*
X163012380Y-102267095D02*
X162345714Y-102267095D01*
X162440952Y-102267095D02*
X162393333Y-102219476D01*
X162345714Y-102124238D01*
X162345714Y-101981380D01*
X162393333Y-101886142D01*
X162488571Y-101838523D01*
X163012380Y-101838523D01*
X162488571Y-101838523D02*
X162393333Y-101790904D01*
X162345714Y-101695666D01*
X162345714Y-101552809D01*
X162393333Y-101457571D01*
X162488571Y-101409952D01*
X163012380Y-101409952D01*
D11*
X161290000Y-108585000D02*
X161290000Y-101473000D01*
X144018000Y-108585000D02*
X161876421Y-108585000D01*
X144018000Y-101473000D02*
X161876421Y-101473000D01*
X161290000Y-101473000D02*
X161876421Y-102599504D01*
X161290000Y-101473000D02*
X160703579Y-102599504D01*
X161290000Y-108585000D02*
X161876421Y-107458496D01*
X161290000Y-108585000D02*
X160703579Y-107458496D01*
D10*
X151725380Y-131761976D02*
X151725380Y-131142928D01*
X152106333Y-131476261D01*
X152106333Y-131333404D01*
X152153952Y-131238166D01*
X152201571Y-131190547D01*
X152296809Y-131142928D01*
X152534904Y-131142928D01*
X152630142Y-131190547D01*
X152677761Y-131238166D01*
X152725380Y-131333404D01*
X152725380Y-131619119D01*
X152677761Y-131714357D01*
X152630142Y-131761976D01*
X151725380Y-130809595D02*
X151725380Y-130142928D01*
X152725380Y-130571500D01*
X152630142Y-129761976D02*
X152677761Y-129714357D01*
X152725380Y-129761976D01*
X152677761Y-129809595D01*
X152630142Y-129761976D01*
X152725380Y-129761976D01*
X152725380Y-129238166D02*
X152725380Y-129047690D01*
X152677761Y-128952452D01*
X152630142Y-128904833D01*
X152487285Y-128809595D01*
X152296809Y-128761976D01*
X151915857Y-128761976D01*
X151820619Y-128809595D01*
X151773000Y-128857214D01*
X151725380Y-128952452D01*
X151725380Y-129142928D01*
X151773000Y-129238166D01*
X151820619Y-129285785D01*
X151915857Y-129333404D01*
X152153952Y-129333404D01*
X152249190Y-129285785D01*
X152296809Y-129238166D01*
X152344428Y-129142928D01*
X152344428Y-128952452D01*
X152296809Y-128857214D01*
X152249190Y-128809595D01*
X152153952Y-128761976D01*
X151725380Y-128428642D02*
X151725380Y-127761976D01*
X152725380Y-128190547D01*
X151725380Y-127476261D02*
X151725380Y-126857214D01*
X152106333Y-127190547D01*
X152106333Y-127047690D01*
X152153952Y-126952452D01*
X152201571Y-126904833D01*
X152296809Y-126857214D01*
X152534904Y-126857214D01*
X152630142Y-126904833D01*
X152677761Y-126952452D01*
X152725380Y-127047690D01*
X152725380Y-127333404D01*
X152677761Y-127428642D01*
X152630142Y-127476261D01*
X152725380Y-125666738D02*
X152058714Y-125666738D01*
X152153952Y-125666738D02*
X152106333Y-125619119D01*
X152058714Y-125523880D01*
X152058714Y-125381023D01*
X152106333Y-125285785D01*
X152201571Y-125238166D01*
X152725380Y-125238166D01*
X152201571Y-125238166D02*
X152106333Y-125190547D01*
X152058714Y-125095309D01*
X152058714Y-124952452D01*
X152106333Y-124857214D01*
X152201571Y-124809595D01*
X152725380Y-124809595D01*
X152725380Y-124333404D02*
X152058714Y-124333404D01*
X152153952Y-124333404D02*
X152106333Y-124285785D01*
X152058714Y-124190547D01*
X152058714Y-124047690D01*
X152106333Y-123952452D01*
X152201571Y-123904833D01*
X152725380Y-123904833D01*
X152201571Y-123904833D02*
X152106333Y-123857214D01*
X152058714Y-123761976D01*
X152058714Y-123619119D01*
X152106333Y-123523880D01*
X152201571Y-123476261D01*
X152725380Y-123476261D01*
D11*
X151003000Y-146558000D02*
X151003000Y-108585000D01*
X144018000Y-146558000D02*
X151589421Y-146558000D01*
X144018000Y-108585000D02*
X151589421Y-108585000D01*
X151003000Y-108585000D02*
X151589421Y-109711504D01*
X151003000Y-108585000D02*
X150416579Y-109711504D01*
X151003000Y-146558000D02*
X151589421Y-145431496D01*
X151003000Y-146558000D02*
X150416579Y-145431496D01*
D10*
X155789380Y-131127047D02*
X155789380Y-131603238D01*
X156265571Y-131650857D01*
X156217952Y-131603238D01*
X156170333Y-131508000D01*
X156170333Y-131269904D01*
X156217952Y-131174666D01*
X156265571Y-131127047D01*
X156360809Y-131079428D01*
X156598904Y-131079428D01*
X156694142Y-131127047D01*
X156741761Y-131174666D01*
X156789380Y-131269904D01*
X156789380Y-131508000D01*
X156741761Y-131603238D01*
X156694142Y-131650857D01*
X155884619Y-130698476D02*
X155837000Y-130650857D01*
X155789380Y-130555619D01*
X155789380Y-130317523D01*
X155837000Y-130222285D01*
X155884619Y-130174666D01*
X155979857Y-130127047D01*
X156075095Y-130127047D01*
X156217952Y-130174666D01*
X156789380Y-130746095D01*
X156789380Y-130127047D01*
X156694142Y-129698476D02*
X156741761Y-129650857D01*
X156789380Y-129698476D01*
X156741761Y-129746095D01*
X156694142Y-129698476D01*
X156789380Y-129698476D01*
X155789380Y-129031809D02*
X155789380Y-128936571D01*
X155837000Y-128841333D01*
X155884619Y-128793714D01*
X155979857Y-128746095D01*
X156170333Y-128698476D01*
X156408428Y-128698476D01*
X156598904Y-128746095D01*
X156694142Y-128793714D01*
X156741761Y-128841333D01*
X156789380Y-128936571D01*
X156789380Y-129031809D01*
X156741761Y-129127047D01*
X156694142Y-129174666D01*
X156598904Y-129222285D01*
X156408428Y-129269904D01*
X156170333Y-129269904D01*
X155979857Y-129222285D01*
X155884619Y-129174666D01*
X155837000Y-129127047D01*
X155789380Y-129031809D01*
X155789380Y-128365142D02*
X155789380Y-127698476D01*
X156789380Y-128127047D01*
X155789380Y-127127047D02*
X155789380Y-127031809D01*
X155837000Y-126936571D01*
X155884619Y-126888952D01*
X155979857Y-126841333D01*
X156170333Y-126793714D01*
X156408428Y-126793714D01*
X156598904Y-126841333D01*
X156694142Y-126888952D01*
X156741761Y-126936571D01*
X156789380Y-127031809D01*
X156789380Y-127127047D01*
X156741761Y-127222285D01*
X156694142Y-127269904D01*
X156598904Y-127317523D01*
X156408428Y-127365142D01*
X156170333Y-127365142D01*
X155979857Y-127317523D01*
X155884619Y-127269904D01*
X155837000Y-127222285D01*
X155789380Y-127127047D01*
X156789380Y-125603238D02*
X156122714Y-125603238D01*
X156217952Y-125603238D02*
X156170333Y-125555619D01*
X156122714Y-125460380D01*
X156122714Y-125317523D01*
X156170333Y-125222285D01*
X156265571Y-125174666D01*
X156789380Y-125174666D01*
X156265571Y-125174666D02*
X156170333Y-125127047D01*
X156122714Y-125031809D01*
X156122714Y-124888952D01*
X156170333Y-124793714D01*
X156265571Y-124746095D01*
X156789380Y-124746095D01*
X156789380Y-124269904D02*
X156122714Y-124269904D01*
X156217952Y-124269904D02*
X156170333Y-124222285D01*
X156122714Y-124127047D01*
X156122714Y-123984190D01*
X156170333Y-123888952D01*
X156265571Y-123841333D01*
X156789380Y-123841333D01*
X156265571Y-123841333D02*
X156170333Y-123793714D01*
X156122714Y-123698476D01*
X156122714Y-123555619D01*
X156170333Y-123460380D01*
X156265571Y-123412761D01*
X156789380Y-123412761D01*
D11*
X155067000Y-153543000D02*
X155067000Y-101473000D01*
X144018000Y-153543000D02*
X155653421Y-153543000D01*
X144018000Y-101473000D02*
X155653421Y-101473000D01*
X155067000Y-101473000D02*
X155653421Y-102599504D01*
X155067000Y-101473000D02*
X154480579Y-102599504D01*
X155067000Y-153543000D02*
X155653421Y-152416496D01*
X155067000Y-153543000D02*
X154480579Y-152416496D01*
D10*
X129325714Y-123214904D02*
X129325714Y-123595857D01*
X129992380Y-123357761D02*
X129135238Y-123357761D01*
X129040000Y-123405380D01*
X128992380Y-123500619D01*
X128992380Y-123595857D01*
X129992380Y-124357761D02*
X129468571Y-124357761D01*
X129373333Y-124310142D01*
X129325714Y-124214904D01*
X129325714Y-124024428D01*
X129373333Y-123929190D01*
X129944761Y-124357761D02*
X129992380Y-124262523D01*
X129992380Y-124024428D01*
X129944761Y-123929190D01*
X129849523Y-123881571D01*
X129754285Y-123881571D01*
X129659047Y-123929190D01*
X129611428Y-124024428D01*
X129611428Y-124262523D01*
X129563809Y-124357761D01*
X129944761Y-125262523D02*
X129992380Y-125167285D01*
X129992380Y-124976809D01*
X129944761Y-124881571D01*
X129897142Y-124833952D01*
X129801904Y-124786333D01*
X129516190Y-124786333D01*
X129420952Y-124833952D01*
X129373333Y-124881571D01*
X129325714Y-124976809D01*
X129325714Y-125167285D01*
X129373333Y-125262523D01*
X129325714Y-126119666D02*
X129992380Y-126119666D01*
X129325714Y-125691095D02*
X129849523Y-125691095D01*
X129944761Y-125738714D01*
X129992380Y-125833952D01*
X129992380Y-125976809D01*
X129944761Y-126072047D01*
X129897142Y-126119666D01*
X129325714Y-126595857D02*
X129992380Y-126595857D01*
X129420952Y-126595857D02*
X129373333Y-126643476D01*
X129325714Y-126738714D01*
X129325714Y-126881571D01*
X129373333Y-126976809D01*
X129468571Y-127024428D01*
X129992380Y-127024428D01*
X129992380Y-127929190D02*
X128992380Y-127929190D01*
X129944761Y-127929190D02*
X129992380Y-127833952D01*
X129992380Y-127643476D01*
X129944761Y-127548238D01*
X129897142Y-127500619D01*
X129801904Y-127453000D01*
X129516190Y-127453000D01*
X129420952Y-127500619D01*
X129373333Y-127548238D01*
X129325714Y-127643476D01*
X129325714Y-127833952D01*
X129373333Y-127929190D01*
X129992380Y-128548238D02*
X129944761Y-128453000D01*
X129897142Y-128405380D01*
X129801904Y-128357761D01*
X129516190Y-128357761D01*
X129420952Y-128405380D01*
X129373333Y-128453000D01*
X129325714Y-128548238D01*
X129325714Y-128691095D01*
X129373333Y-128786333D01*
X129420952Y-128833952D01*
X129516190Y-128881571D01*
X129801904Y-128881571D01*
X129897142Y-128833952D01*
X129944761Y-128786333D01*
X129992380Y-128691095D01*
X129992380Y-128548238D01*
X129325714Y-129738714D02*
X130325714Y-129738714D01*
X129944761Y-129738714D02*
X129992380Y-129643476D01*
X129992380Y-129453000D01*
X129944761Y-129357761D01*
X129897142Y-129310142D01*
X129801904Y-129262523D01*
X129516190Y-129262523D01*
X129420952Y-129310142D01*
X129373333Y-129357761D01*
X129325714Y-129453000D01*
X129325714Y-129643476D01*
X129373333Y-129738714D01*
X129325714Y-130643476D02*
X130135238Y-130643476D01*
X130230476Y-130595857D01*
X130278095Y-130548238D01*
X130325714Y-130453000D01*
X130325714Y-130310142D01*
X130278095Y-130214904D01*
X129944761Y-130643476D02*
X129992380Y-130548238D01*
X129992380Y-130357761D01*
X129944761Y-130262523D01*
X129897142Y-130214904D01*
X129801904Y-130167285D01*
X129516190Y-130167285D01*
X129420952Y-130214904D01*
X129373333Y-130262523D01*
X129325714Y-130357761D01*
X129325714Y-130548238D01*
X129373333Y-130643476D01*
X129992380Y-131548238D02*
X129468571Y-131548238D01*
X129373333Y-131500619D01*
X129325714Y-131405380D01*
X129325714Y-131214904D01*
X129373333Y-131119666D01*
X129944761Y-131548238D02*
X129992380Y-131453000D01*
X129992380Y-131214904D01*
X129944761Y-131119666D01*
X129849523Y-131072047D01*
X129754285Y-131072047D01*
X129659047Y-131119666D01*
X129611428Y-131214904D01*
X129611428Y-131453000D01*
X129563809Y-131548238D01*
X129516190Y-132643476D02*
X129468571Y-132595857D01*
X129420952Y-132500619D01*
X129420952Y-132405380D01*
X129468571Y-132310142D01*
X129516190Y-132262523D01*
X129611428Y-132214904D01*
X129706666Y-132214904D01*
X129801904Y-132262523D01*
X129849523Y-132310142D01*
X129897142Y-132405380D01*
X129897142Y-132500619D01*
X129849523Y-132595857D01*
X129801904Y-132643476D01*
X129420952Y-132643476D02*
X129801904Y-132643476D01*
X129849523Y-132691095D01*
X129849523Y-132738714D01*
X129801904Y-132833952D01*
X129706666Y-132881571D01*
X129468571Y-132881571D01*
X129325714Y-132786333D01*
X129230476Y-132643476D01*
X129182857Y-132453000D01*
X129230476Y-132262523D01*
X129325714Y-132119666D01*
X129468571Y-132024428D01*
X129659047Y-131976809D01*
X129849523Y-132024428D01*
X129992380Y-132119666D01*
X130087619Y-132262523D01*
X130135238Y-132453000D01*
X130087619Y-132643476D01*
X129992380Y-132786333D01*
X129325714Y-133738714D02*
X130135238Y-133738714D01*
X130230476Y-133691095D01*
X130278095Y-133643476D01*
X130325714Y-133548238D01*
X130325714Y-133405380D01*
X130278095Y-133310142D01*
X129944761Y-133738714D02*
X129992380Y-133643476D01*
X129992380Y-133453000D01*
X129944761Y-133357761D01*
X129897142Y-133310142D01*
X129801904Y-133262523D01*
X129516190Y-133262523D01*
X129420952Y-133310142D01*
X129373333Y-133357761D01*
X129325714Y-133453000D01*
X129325714Y-133643476D01*
X129373333Y-133738714D01*
X129992380Y-134214904D02*
X129325714Y-134214904D01*
X129420952Y-134214904D02*
X129373333Y-134262523D01*
X129325714Y-134357761D01*
X129325714Y-134500619D01*
X129373333Y-134595857D01*
X129468571Y-134643476D01*
X129992380Y-134643476D01*
X129468571Y-134643476D02*
X129373333Y-134691095D01*
X129325714Y-134786333D01*
X129325714Y-134929190D01*
X129373333Y-135024428D01*
X129468571Y-135072047D01*
X129992380Y-135072047D01*
X129992380Y-135976809D02*
X129468571Y-135976809D01*
X129373333Y-135929190D01*
X129325714Y-135833952D01*
X129325714Y-135643476D01*
X129373333Y-135548238D01*
X129944761Y-135976809D02*
X129992380Y-135881571D01*
X129992380Y-135643476D01*
X129944761Y-135548238D01*
X129849523Y-135500619D01*
X129754285Y-135500619D01*
X129659047Y-135548238D01*
X129611428Y-135643476D01*
X129611428Y-135881571D01*
X129563809Y-135976809D01*
X129992380Y-136453000D02*
X129325714Y-136453000D01*
X128992380Y-136453000D02*
X129040000Y-136405380D01*
X129087619Y-136453000D01*
X129040000Y-136500619D01*
X128992380Y-136453000D01*
X129087619Y-136453000D01*
X129992380Y-137072047D02*
X129944761Y-136976809D01*
X129849523Y-136929190D01*
X128992380Y-136929190D01*
X129897142Y-137453000D02*
X129944761Y-137500619D01*
X129992380Y-137453000D01*
X129944761Y-137405380D01*
X129897142Y-137453000D01*
X129992380Y-137453000D01*
X129944761Y-138357761D02*
X129992380Y-138262523D01*
X129992380Y-138072047D01*
X129944761Y-137976809D01*
X129897142Y-137929190D01*
X129801904Y-137881571D01*
X129516190Y-137881571D01*
X129420952Y-137929190D01*
X129373333Y-137976809D01*
X129325714Y-138072047D01*
X129325714Y-138262523D01*
X129373333Y-138357761D01*
X129992380Y-138929190D02*
X129944761Y-138833952D01*
X129897142Y-138786333D01*
X129801904Y-138738714D01*
X129516190Y-138738714D01*
X129420952Y-138786333D01*
X129373333Y-138833952D01*
X129325714Y-138929190D01*
X129325714Y-139072047D01*
X129373333Y-139167285D01*
X129420952Y-139214904D01*
X129516190Y-139262523D01*
X129801904Y-139262523D01*
X129897142Y-139214904D01*
X129944761Y-139167285D01*
X129992380Y-139072047D01*
X129992380Y-138929190D01*
X129992380Y-139691095D02*
X129325714Y-139691095D01*
X129420952Y-139691095D02*
X129373333Y-139738714D01*
X129325714Y-139833952D01*
X129325714Y-139976809D01*
X129373333Y-140072047D01*
X129468571Y-140119666D01*
X129992380Y-140119666D01*
X129468571Y-140119666D02*
X129373333Y-140167285D01*
X129325714Y-140262523D01*
X129325714Y-140405380D01*
X129373333Y-140500619D01*
X129468571Y-140548238D01*
X129992380Y-140548238D01*
D12*
X115653571Y-144285119D02*
X115701190Y-144427976D01*
X115748809Y-144475595D01*
X115844047Y-144523214D01*
X115986904Y-144523214D01*
X116082142Y-144475595D01*
X116129761Y-144427976D01*
X116177380Y-144332738D01*
X116177380Y-143951785D01*
X115177380Y-143951785D01*
X115177380Y-144285119D01*
X115225000Y-144380357D01*
X115272619Y-144427976D01*
X115367857Y-144475595D01*
X115463095Y-144475595D01*
X115558333Y-144427976D01*
X115605952Y-144380357D01*
X115653571Y-144285119D01*
X115653571Y-143951785D01*
X116177380Y-144951785D02*
X115510714Y-144951785D01*
X115701190Y-144951785D02*
X115605952Y-144999404D01*
X115558333Y-145047023D01*
X115510714Y-145142261D01*
X115510714Y-145237500D01*
X116129761Y-145951785D02*
X116177380Y-145856547D01*
X116177380Y-145666071D01*
X116129761Y-145570833D01*
X116034523Y-145523214D01*
X115653571Y-145523214D01*
X115558333Y-145570833D01*
X115510714Y-145666071D01*
X115510714Y-145856547D01*
X115558333Y-145951785D01*
X115653571Y-145999404D01*
X115748809Y-145999404D01*
X115844047Y-145523214D01*
X116177380Y-146856547D02*
X115653571Y-146856547D01*
X115558333Y-146808928D01*
X115510714Y-146713690D01*
X115510714Y-146523214D01*
X115558333Y-146427976D01*
X116129761Y-146856547D02*
X116177380Y-146761309D01*
X116177380Y-146523214D01*
X116129761Y-146427976D01*
X116034523Y-146380357D01*
X115939285Y-146380357D01*
X115844047Y-146427976D01*
X115796428Y-146523214D01*
X115796428Y-146761309D01*
X115748809Y-146856547D01*
X116177380Y-147761309D02*
X115177380Y-147761309D01*
X116129761Y-147761309D02*
X116177380Y-147666071D01*
X116177380Y-147475595D01*
X116129761Y-147380357D01*
X116082142Y-147332738D01*
X115986904Y-147285119D01*
X115701190Y-147285119D01*
X115605952Y-147332738D01*
X115558333Y-147380357D01*
X115510714Y-147475595D01*
X115510714Y-147666071D01*
X115558333Y-147761309D01*
X116177380Y-148237500D02*
X115177380Y-148237500D01*
X115558333Y-148237500D02*
X115510714Y-148332738D01*
X115510714Y-148523214D01*
X115558333Y-148618452D01*
X115605952Y-148666071D01*
X115701190Y-148713690D01*
X115986904Y-148713690D01*
X116082142Y-148666071D01*
X116129761Y-148618452D01*
X116177380Y-148523214D01*
X116177380Y-148332738D01*
X116129761Y-148237500D01*
X116177380Y-149285119D02*
X116129761Y-149189880D01*
X116082142Y-149142261D01*
X115986904Y-149094642D01*
X115701190Y-149094642D01*
X115605952Y-149142261D01*
X115558333Y-149189880D01*
X115510714Y-149285119D01*
X115510714Y-149427976D01*
X115558333Y-149523214D01*
X115605952Y-149570833D01*
X115701190Y-149618452D01*
X115986904Y-149618452D01*
X116082142Y-149570833D01*
X116129761Y-149523214D01*
X116177380Y-149427976D01*
X116177380Y-149285119D01*
X116177380Y-150475595D02*
X115653571Y-150475595D01*
X115558333Y-150427976D01*
X115510714Y-150332738D01*
X115510714Y-150142261D01*
X115558333Y-150047023D01*
X116129761Y-150475595D02*
X116177380Y-150380357D01*
X116177380Y-150142261D01*
X116129761Y-150047023D01*
X116034523Y-149999404D01*
X115939285Y-149999404D01*
X115844047Y-150047023D01*
X115796428Y-150142261D01*
X115796428Y-150380357D01*
X115748809Y-150475595D01*
X116177380Y-150951785D02*
X115510714Y-150951785D01*
X115701190Y-150951785D02*
X115605952Y-150999404D01*
X115558333Y-151047023D01*
X115510714Y-151142261D01*
X115510714Y-151237500D01*
X116177380Y-151999404D02*
X115177380Y-151999404D01*
X116129761Y-151999404D02*
X116177380Y-151904166D01*
X116177380Y-151713690D01*
X116129761Y-151618452D01*
X116082142Y-151570833D01*
X115986904Y-151523214D01*
X115701190Y-151523214D01*
X115605952Y-151570833D01*
X115558333Y-151618452D01*
X115510714Y-151713690D01*
X115510714Y-151904166D01*
X115558333Y-151999404D01*
X117927380Y-142332738D02*
X116927380Y-142332738D01*
X116927380Y-142713690D01*
X116975000Y-142808928D01*
X117022619Y-142856547D01*
X117117857Y-142904166D01*
X117260714Y-142904166D01*
X117355952Y-142856547D01*
X117403571Y-142808928D01*
X117451190Y-142713690D01*
X117451190Y-142332738D01*
X117927380Y-143475595D02*
X117879761Y-143380357D01*
X117832142Y-143332738D01*
X117736904Y-143285119D01*
X117451190Y-143285119D01*
X117355952Y-143332738D01*
X117308333Y-143380357D01*
X117260714Y-143475595D01*
X117260714Y-143618452D01*
X117308333Y-143713690D01*
X117355952Y-143761309D01*
X117451190Y-143808928D01*
X117736904Y-143808928D01*
X117832142Y-143761309D01*
X117879761Y-143713690D01*
X117927380Y-143618452D01*
X117927380Y-143475595D01*
X117260714Y-144142261D02*
X117927380Y-144332738D01*
X117451190Y-144523214D01*
X117927380Y-144713690D01*
X117260714Y-144904166D01*
X117879761Y-145666071D02*
X117927380Y-145570833D01*
X117927380Y-145380357D01*
X117879761Y-145285119D01*
X117784523Y-145237500D01*
X117403571Y-145237500D01*
X117308333Y-145285119D01*
X117260714Y-145380357D01*
X117260714Y-145570833D01*
X117308333Y-145666071D01*
X117403571Y-145713690D01*
X117498809Y-145713690D01*
X117594047Y-145237500D01*
X117927380Y-146142261D02*
X117260714Y-146142261D01*
X117451190Y-146142261D02*
X117355952Y-146189880D01*
X117308333Y-146237500D01*
X117260714Y-146332738D01*
X117260714Y-146427976D01*
X117879761Y-147475595D02*
X117927380Y-147618452D01*
X117927380Y-147856547D01*
X117879761Y-147951785D01*
X117832142Y-147999404D01*
X117736904Y-148047023D01*
X117641666Y-148047023D01*
X117546428Y-147999404D01*
X117498809Y-147951785D01*
X117451190Y-147856547D01*
X117403571Y-147666071D01*
X117355952Y-147570833D01*
X117308333Y-147523214D01*
X117213095Y-147475595D01*
X117117857Y-147475595D01*
X117022619Y-147523214D01*
X116975000Y-147570833D01*
X116927380Y-147666071D01*
X116927380Y-147904166D01*
X116975000Y-148047023D01*
X117260714Y-148904166D02*
X117927380Y-148904166D01*
X117260714Y-148475595D02*
X117784523Y-148475595D01*
X117879761Y-148523214D01*
X117927380Y-148618452D01*
X117927380Y-148761309D01*
X117879761Y-148856547D01*
X117832142Y-148904166D01*
X117260714Y-149380357D02*
X118260714Y-149380357D01*
X117308333Y-149380357D02*
X117260714Y-149475595D01*
X117260714Y-149666071D01*
X117308333Y-149761309D01*
X117355952Y-149808928D01*
X117451190Y-149856547D01*
X117736904Y-149856547D01*
X117832142Y-149808928D01*
X117879761Y-149761309D01*
X117927380Y-149666071D01*
X117927380Y-149475595D01*
X117879761Y-149380357D01*
X117260714Y-150285119D02*
X118260714Y-150285119D01*
X117308333Y-150285119D02*
X117260714Y-150380357D01*
X117260714Y-150570833D01*
X117308333Y-150666071D01*
X117355952Y-150713690D01*
X117451190Y-150761309D01*
X117736904Y-150761309D01*
X117832142Y-150713690D01*
X117879761Y-150666071D01*
X117927380Y-150570833D01*
X117927380Y-150380357D01*
X117879761Y-150285119D01*
X117927380Y-151332738D02*
X117879761Y-151237500D01*
X117784523Y-151189880D01*
X116927380Y-151189880D01*
X117260714Y-151618452D02*
X117927380Y-151856547D01*
X117260714Y-152094642D02*
X117927380Y-151856547D01*
X118165476Y-151761309D01*
X118213095Y-151713690D01*
X118260714Y-151618452D01*
X119010714Y-149237500D02*
X119677380Y-149475595D01*
X119010714Y-149713690D01*
X118677380Y-149999404D02*
X118677380Y-150618452D01*
X119058333Y-150285119D01*
X119058333Y-150427976D01*
X119105952Y-150523214D01*
X119153571Y-150570833D01*
X119248809Y-150618452D01*
X119486904Y-150618452D01*
X119582142Y-150570833D01*
X119629761Y-150523214D01*
X119677380Y-150427976D01*
X119677380Y-150142261D01*
X119629761Y-150047023D01*
X119582142Y-149999404D01*
X119582142Y-151047023D02*
X119629761Y-151094642D01*
X119677380Y-151047023D01*
X119629761Y-150999404D01*
X119582142Y-151047023D01*
X119677380Y-151047023D01*
X118677380Y-151713690D02*
X118677380Y-151808928D01*
X118725000Y-151904166D01*
X118772619Y-151951785D01*
X118867857Y-151999404D01*
X119058333Y-152047023D01*
X119296428Y-152047023D01*
X119486904Y-151999404D01*
X119582142Y-151951785D01*
X119629761Y-151904166D01*
X119677380Y-151808928D01*
X119677380Y-151713690D01*
X119629761Y-151618452D01*
X119582142Y-151570833D01*
X119486904Y-151523214D01*
X119296428Y-151475595D01*
X119058333Y-151475595D01*
X118867857Y-151523214D01*
X118772619Y-151570833D01*
X118725000Y-151618452D01*
X118677380Y-151713690D01*
D13*
%TO.C,REF\u002A\u002A*%
G36*
X119610910Y-117819652D02*
G01*
X119689454Y-117819222D01*
X119746298Y-117818058D01*
X119785105Y-117815793D01*
X119809538Y-117812060D01*
X119823262Y-117806494D01*
X119829940Y-117798727D01*
X119833236Y-117788395D01*
X119833556Y-117787057D01*
X119838562Y-117762921D01*
X119847829Y-117715299D01*
X119860392Y-117649259D01*
X119875287Y-117569872D01*
X119891551Y-117482204D01*
X119892119Y-117479125D01*
X119908410Y-117393211D01*
X119923652Y-117317304D01*
X119936861Y-117255955D01*
X119947054Y-117213718D01*
X119953248Y-117195145D01*
X119953543Y-117194816D01*
X119971788Y-117185747D01*
X120009405Y-117170633D01*
X120058271Y-117152738D01*
X120058543Y-117152642D01*
X120120093Y-117129507D01*
X120192657Y-117100035D01*
X120261057Y-117070403D01*
X120264294Y-117068938D01*
X120375702Y-117018374D01*
X120622399Y-117186840D01*
X120698077Y-117238197D01*
X120766631Y-117284111D01*
X120824088Y-117321970D01*
X120866476Y-117349163D01*
X120889825Y-117363079D01*
X120892042Y-117364111D01*
X120909010Y-117359516D01*
X120940701Y-117337345D01*
X120988352Y-117296553D01*
X121053198Y-117236095D01*
X121119397Y-117171773D01*
X121183214Y-117108388D01*
X121240329Y-117050549D01*
X121287305Y-117001825D01*
X121320703Y-116965790D01*
X121337085Y-116946016D01*
X121337694Y-116944998D01*
X121339505Y-116931428D01*
X121332683Y-116909267D01*
X121315540Y-116875522D01*
X121286393Y-116827200D01*
X121243555Y-116761308D01*
X121186448Y-116676483D01*
X121135766Y-116601823D01*
X121090461Y-116534860D01*
X121053150Y-116479484D01*
X121026452Y-116439580D01*
X121012985Y-116419038D01*
X121012137Y-116417644D01*
X121013781Y-116397962D01*
X121026245Y-116359707D01*
X121047048Y-116310111D01*
X121054462Y-116294272D01*
X121086814Y-116223710D01*
X121121328Y-116143647D01*
X121149365Y-116074371D01*
X121169568Y-116022955D01*
X121185615Y-115983881D01*
X121194888Y-115963459D01*
X121196041Y-115961886D01*
X121213096Y-115959279D01*
X121253298Y-115952137D01*
X121311302Y-115941477D01*
X121381763Y-115928315D01*
X121459335Y-115913667D01*
X121538672Y-115898551D01*
X121614431Y-115883982D01*
X121681264Y-115870978D01*
X121733828Y-115860555D01*
X121766776Y-115853730D01*
X121774857Y-115851801D01*
X121783205Y-115847038D01*
X121789506Y-115836282D01*
X121794045Y-115815902D01*
X121797104Y-115782266D01*
X121798967Y-115731745D01*
X121799918Y-115660708D01*
X121800240Y-115565524D01*
X121800257Y-115526508D01*
X121800257Y-115209201D01*
X121724057Y-115194161D01*
X121681663Y-115186005D01*
X121618400Y-115174101D01*
X121541962Y-115159884D01*
X121460043Y-115144790D01*
X121437400Y-115140645D01*
X121361806Y-115125947D01*
X121295953Y-115111495D01*
X121245366Y-115098625D01*
X121215574Y-115088678D01*
X121210612Y-115085713D01*
X121198426Y-115064717D01*
X121180953Y-115024033D01*
X121161577Y-114971678D01*
X121157734Y-114960400D01*
X121132339Y-114890477D01*
X121100817Y-114811582D01*
X121069969Y-114740734D01*
X121069817Y-114740405D01*
X121018447Y-114629267D01*
X121187399Y-114380747D01*
X121356352Y-114132228D01*
X121139429Y-113914942D01*
X121073819Y-113850274D01*
X121013979Y-113793267D01*
X120963267Y-113746967D01*
X120925046Y-113714416D01*
X120902675Y-113698657D01*
X120899466Y-113697657D01*
X120880626Y-113705531D01*
X120842180Y-113727422D01*
X120788330Y-113760733D01*
X120723276Y-113802869D01*
X120652940Y-113850057D01*
X120581555Y-113898190D01*
X120517908Y-113940072D01*
X120466041Y-113973129D01*
X120429995Y-113994782D01*
X120413867Y-114002457D01*
X120394189Y-113995963D01*
X120356875Y-113978850D01*
X120309621Y-113954674D01*
X120304612Y-113951987D01*
X120240977Y-113920073D01*
X120197341Y-113904421D01*
X120170202Y-113904255D01*
X120156057Y-113918796D01*
X120155975Y-113919000D01*
X120148905Y-113936221D01*
X120132042Y-113977101D01*
X120106695Y-114038475D01*
X120074171Y-114117181D01*
X120035778Y-114210053D01*
X119992822Y-114313928D01*
X119951222Y-114414498D01*
X119905504Y-114525484D01*
X119863526Y-114628297D01*
X119826548Y-114719785D01*
X119795827Y-114796799D01*
X119772622Y-114856185D01*
X119758190Y-114894791D01*
X119753743Y-114909200D01*
X119764896Y-114925728D01*
X119794069Y-114952070D01*
X119832971Y-114981113D01*
X119943757Y-115072961D01*
X120030351Y-115178241D01*
X120091716Y-115294734D01*
X120126815Y-115420224D01*
X120134608Y-115552493D01*
X120128943Y-115613543D01*
X120098078Y-115740205D01*
X120044920Y-115852059D01*
X119972767Y-115947999D01*
X119884917Y-116026924D01*
X119784665Y-116087730D01*
X119675310Y-116129313D01*
X119560147Y-116150572D01*
X119442475Y-116150401D01*
X119325590Y-116127699D01*
X119212789Y-116081362D01*
X119107369Y-116010287D01*
X119063368Y-115970089D01*
X118978979Y-115866871D01*
X118920222Y-115754075D01*
X118886704Y-115634990D01*
X118878035Y-115512905D01*
X118893823Y-115391107D01*
X118933678Y-115272884D01*
X118997207Y-115161525D01*
X119084021Y-115060316D01*
X119181029Y-114981113D01*
X119221437Y-114950838D01*
X119249982Y-114924781D01*
X119260257Y-114909175D01*
X119254877Y-114892157D01*
X119239575Y-114851500D01*
X119215612Y-114790358D01*
X119184244Y-114711881D01*
X119146732Y-114619220D01*
X119104333Y-114515528D01*
X119062663Y-114414474D01*
X119016690Y-114303393D01*
X118974107Y-114200459D01*
X118936221Y-114108835D01*
X118904340Y-114031684D01*
X118879771Y-113972169D01*
X118863820Y-113933456D01*
X118857910Y-113919000D01*
X118843948Y-113904315D01*
X118816940Y-113904358D01*
X118773413Y-113919901D01*
X118709890Y-113951716D01*
X118709388Y-113951987D01*
X118661560Y-113976677D01*
X118622897Y-113994662D01*
X118601095Y-114002386D01*
X118600133Y-114002457D01*
X118583721Y-113994622D01*
X118547487Y-113972835D01*
X118495474Y-113939672D01*
X118431725Y-113897709D01*
X118361060Y-113850057D01*
X118289116Y-113801809D01*
X118224274Y-113759849D01*
X118170735Y-113726773D01*
X118132697Y-113705179D01*
X118114533Y-113697657D01*
X118097808Y-113707543D01*
X118064180Y-113735174D01*
X118017010Y-113777505D01*
X117959658Y-113831495D01*
X117895484Y-113894101D01*
X117874497Y-113915017D01*
X117657499Y-114132377D01*
X117822668Y-114374780D01*
X117872864Y-114449219D01*
X117916919Y-114516028D01*
X117952362Y-114571335D01*
X117976719Y-114611271D01*
X117987522Y-114631964D01*
X117987838Y-114633437D01*
X117982143Y-114652942D01*
X117966826Y-114692178D01*
X117944537Y-114744570D01*
X117928893Y-114779645D01*
X117899641Y-114846799D01*
X117872094Y-114914642D01*
X117850737Y-114971966D01*
X117844935Y-114989428D01*
X117828452Y-115036062D01*
X117812340Y-115072095D01*
X117803490Y-115085713D01*
X117783960Y-115094048D01*
X117741334Y-115105863D01*
X117681145Y-115119819D01*
X117608922Y-115134578D01*
X117576600Y-115140645D01*
X117494522Y-115155727D01*
X117415795Y-115170331D01*
X117348109Y-115183020D01*
X117299160Y-115192358D01*
X117289943Y-115194161D01*
X117213743Y-115209201D01*
X117213743Y-115526508D01*
X117213914Y-115630846D01*
X117214616Y-115709787D01*
X117216134Y-115766962D01*
X117218749Y-115806001D01*
X117222746Y-115830535D01*
X117228409Y-115844195D01*
X117236020Y-115850611D01*
X117239143Y-115851801D01*
X117257978Y-115856020D01*
X117299588Y-115864438D01*
X117358630Y-115876039D01*
X117429757Y-115889805D01*
X117507625Y-115904720D01*
X117586887Y-115919768D01*
X117662198Y-115933931D01*
X117728213Y-115946194D01*
X117779587Y-115955539D01*
X117810975Y-115960950D01*
X117817959Y-115961886D01*
X117824285Y-115974404D01*
X117838290Y-116007754D01*
X117857355Y-116055623D01*
X117864634Y-116074371D01*
X117893996Y-116146805D01*
X117928571Y-116226830D01*
X117959537Y-116294272D01*
X117982323Y-116345841D01*
X117997482Y-116388215D01*
X118002542Y-116414166D01*
X118001736Y-116417644D01*
X117991041Y-116434064D01*
X117966620Y-116470583D01*
X117931095Y-116523313D01*
X117887087Y-116588365D01*
X117837217Y-116661849D01*
X117827356Y-116676355D01*
X117769492Y-116762296D01*
X117726956Y-116827739D01*
X117698054Y-116875696D01*
X117681090Y-116909180D01*
X117674367Y-116931205D01*
X117676190Y-116944783D01*
X117676236Y-116944869D01*
X117690586Y-116962703D01*
X117722323Y-116997183D01*
X117768010Y-117044732D01*
X117824204Y-117101778D01*
X117887468Y-117164745D01*
X117894602Y-117171773D01*
X117974330Y-117248980D01*
X118035857Y-117305670D01*
X118080421Y-117342890D01*
X118109257Y-117361685D01*
X118121958Y-117364111D01*
X118140494Y-117353529D01*
X118178961Y-117329084D01*
X118233386Y-117293388D01*
X118299798Y-117249053D01*
X118374225Y-117198689D01*
X118391601Y-117186840D01*
X118638297Y-117018374D01*
X118749706Y-117068938D01*
X118817457Y-117098405D01*
X118890183Y-117128041D01*
X118952703Y-117151670D01*
X118955457Y-117152642D01*
X119004360Y-117170543D01*
X119042057Y-117185680D01*
X119060425Y-117194790D01*
X119060456Y-117194816D01*
X119066285Y-117211283D01*
X119076192Y-117251781D01*
X119089195Y-117311758D01*
X119104309Y-117386660D01*
X119120552Y-117471936D01*
X119121881Y-117479125D01*
X119138175Y-117566986D01*
X119153133Y-117646740D01*
X119165791Y-117713319D01*
X119175186Y-117761653D01*
X119180354Y-117786675D01*
X119180444Y-117787057D01*
X119183589Y-117797701D01*
X119189704Y-117805738D01*
X119202453Y-117811533D01*
X119225500Y-117815453D01*
X119262509Y-117817865D01*
X119317144Y-117819135D01*
X119393067Y-117819629D01*
X119493944Y-117819714D01*
X119507000Y-117819714D01*
X119610910Y-117819652D01*
G37*
X119610910Y-117819652D02*
X119689454Y-117819222D01*
X119746298Y-117818058D01*
X119785105Y-117815793D01*
X119809538Y-117812060D01*
X119823262Y-117806494D01*
X119829940Y-117798727D01*
X119833236Y-117788395D01*
X119833556Y-117787057D01*
X119838562Y-117762921D01*
X119847829Y-117715299D01*
X119860392Y-117649259D01*
X119875287Y-117569872D01*
X119891551Y-117482204D01*
X119892119Y-117479125D01*
X119908410Y-117393211D01*
X119923652Y-117317304D01*
X119936861Y-117255955D01*
X119947054Y-117213718D01*
X119953248Y-117195145D01*
X119953543Y-117194816D01*
X119971788Y-117185747D01*
X120009405Y-117170633D01*
X120058271Y-117152738D01*
X120058543Y-117152642D01*
X120120093Y-117129507D01*
X120192657Y-117100035D01*
X120261057Y-117070403D01*
X120264294Y-117068938D01*
X120375702Y-117018374D01*
X120622399Y-117186840D01*
X120698077Y-117238197D01*
X120766631Y-117284111D01*
X120824088Y-117321970D01*
X120866476Y-117349163D01*
X120889825Y-117363079D01*
X120892042Y-117364111D01*
X120909010Y-117359516D01*
X120940701Y-117337345D01*
X120988352Y-117296553D01*
X121053198Y-117236095D01*
X121119397Y-117171773D01*
X121183214Y-117108388D01*
X121240329Y-117050549D01*
X121287305Y-117001825D01*
X121320703Y-116965790D01*
X121337085Y-116946016D01*
X121337694Y-116944998D01*
X121339505Y-116931428D01*
X121332683Y-116909267D01*
X121315540Y-116875522D01*
X121286393Y-116827200D01*
X121243555Y-116761308D01*
X121186448Y-116676483D01*
X121135766Y-116601823D01*
X121090461Y-116534860D01*
X121053150Y-116479484D01*
X121026452Y-116439580D01*
X121012985Y-116419038D01*
X121012137Y-116417644D01*
X121013781Y-116397962D01*
X121026245Y-116359707D01*
X121047048Y-116310111D01*
X121054462Y-116294272D01*
X121086814Y-116223710D01*
X121121328Y-116143647D01*
X121149365Y-116074371D01*
X121169568Y-116022955D01*
X121185615Y-115983881D01*
X121194888Y-115963459D01*
X121196041Y-115961886D01*
X121213096Y-115959279D01*
X121253298Y-115952137D01*
X121311302Y-115941477D01*
X121381763Y-115928315D01*
X121459335Y-115913667D01*
X121538672Y-115898551D01*
X121614431Y-115883982D01*
X121681264Y-115870978D01*
X121733828Y-115860555D01*
X121766776Y-115853730D01*
X121774857Y-115851801D01*
X121783205Y-115847038D01*
X121789506Y-115836282D01*
X121794045Y-115815902D01*
X121797104Y-115782266D01*
X121798967Y-115731745D01*
X121799918Y-115660708D01*
X121800240Y-115565524D01*
X121800257Y-115526508D01*
X121800257Y-115209201D01*
X121724057Y-115194161D01*
X121681663Y-115186005D01*
X121618400Y-115174101D01*
X121541962Y-115159884D01*
X121460043Y-115144790D01*
X121437400Y-115140645D01*
X121361806Y-115125947D01*
X121295953Y-115111495D01*
X121245366Y-115098625D01*
X121215574Y-115088678D01*
X121210612Y-115085713D01*
X121198426Y-115064717D01*
X121180953Y-115024033D01*
X121161577Y-114971678D01*
X121157734Y-114960400D01*
X121132339Y-114890477D01*
X121100817Y-114811582D01*
X121069969Y-114740734D01*
X121069817Y-114740405D01*
X121018447Y-114629267D01*
X121187399Y-114380747D01*
X121356352Y-114132228D01*
X121139429Y-113914942D01*
X121073819Y-113850274D01*
X121013979Y-113793267D01*
X120963267Y-113746967D01*
X120925046Y-113714416D01*
X120902675Y-113698657D01*
X120899466Y-113697657D01*
X120880626Y-113705531D01*
X120842180Y-113727422D01*
X120788330Y-113760733D01*
X120723276Y-113802869D01*
X120652940Y-113850057D01*
X120581555Y-113898190D01*
X120517908Y-113940072D01*
X120466041Y-113973129D01*
X120429995Y-113994782D01*
X120413867Y-114002457D01*
X120394189Y-113995963D01*
X120356875Y-113978850D01*
X120309621Y-113954674D01*
X120304612Y-113951987D01*
X120240977Y-113920073D01*
X120197341Y-113904421D01*
X120170202Y-113904255D01*
X120156057Y-113918796D01*
X120155975Y-113919000D01*
X120148905Y-113936221D01*
X120132042Y-113977101D01*
X120106695Y-114038475D01*
X120074171Y-114117181D01*
X120035778Y-114210053D01*
X119992822Y-114313928D01*
X119951222Y-114414498D01*
X119905504Y-114525484D01*
X119863526Y-114628297D01*
X119826548Y-114719785D01*
X119795827Y-114796799D01*
X119772622Y-114856185D01*
X119758190Y-114894791D01*
X119753743Y-114909200D01*
X119764896Y-114925728D01*
X119794069Y-114952070D01*
X119832971Y-114981113D01*
X119943757Y-115072961D01*
X120030351Y-115178241D01*
X120091716Y-115294734D01*
X120126815Y-115420224D01*
X120134608Y-115552493D01*
X120128943Y-115613543D01*
X120098078Y-115740205D01*
X120044920Y-115852059D01*
X119972767Y-115947999D01*
X119884917Y-116026924D01*
X119784665Y-116087730D01*
X119675310Y-116129313D01*
X119560147Y-116150572D01*
X119442475Y-116150401D01*
X119325590Y-116127699D01*
X119212789Y-116081362D01*
X119107369Y-116010287D01*
X119063368Y-115970089D01*
X118978979Y-115866871D01*
X118920222Y-115754075D01*
X118886704Y-115634990D01*
X118878035Y-115512905D01*
X118893823Y-115391107D01*
X118933678Y-115272884D01*
X118997207Y-115161525D01*
X119084021Y-115060316D01*
X119181029Y-114981113D01*
X119221437Y-114950838D01*
X119249982Y-114924781D01*
X119260257Y-114909175D01*
X119254877Y-114892157D01*
X119239575Y-114851500D01*
X119215612Y-114790358D01*
X119184244Y-114711881D01*
X119146732Y-114619220D01*
X119104333Y-114515528D01*
X119062663Y-114414474D01*
X119016690Y-114303393D01*
X118974107Y-114200459D01*
X118936221Y-114108835D01*
X118904340Y-114031684D01*
X118879771Y-113972169D01*
X118863820Y-113933456D01*
X118857910Y-113919000D01*
X118843948Y-113904315D01*
X118816940Y-113904358D01*
X118773413Y-113919901D01*
X118709890Y-113951716D01*
X118709388Y-113951987D01*
X118661560Y-113976677D01*
X118622897Y-113994662D01*
X118601095Y-114002386D01*
X118600133Y-114002457D01*
X118583721Y-113994622D01*
X118547487Y-113972835D01*
X118495474Y-113939672D01*
X118431725Y-113897709D01*
X118361060Y-113850057D01*
X118289116Y-113801809D01*
X118224274Y-113759849D01*
X118170735Y-113726773D01*
X118132697Y-113705179D01*
X118114533Y-113697657D01*
X118097808Y-113707543D01*
X118064180Y-113735174D01*
X118017010Y-113777505D01*
X117959658Y-113831495D01*
X117895484Y-113894101D01*
X117874497Y-113915017D01*
X117657499Y-114132377D01*
X117822668Y-114374780D01*
X117872864Y-114449219D01*
X117916919Y-114516028D01*
X117952362Y-114571335D01*
X117976719Y-114611271D01*
X117987522Y-114631964D01*
X117987838Y-114633437D01*
X117982143Y-114652942D01*
X117966826Y-114692178D01*
X117944537Y-114744570D01*
X117928893Y-114779645D01*
X117899641Y-114846799D01*
X117872094Y-114914642D01*
X117850737Y-114971966D01*
X117844935Y-114989428D01*
X117828452Y-115036062D01*
X117812340Y-115072095D01*
X117803490Y-115085713D01*
X117783960Y-115094048D01*
X117741334Y-115105863D01*
X117681145Y-115119819D01*
X117608922Y-115134578D01*
X117576600Y-115140645D01*
X117494522Y-115155727D01*
X117415795Y-115170331D01*
X117348109Y-115183020D01*
X117299160Y-115192358D01*
X117289943Y-115194161D01*
X117213743Y-115209201D01*
X117213743Y-115526508D01*
X117213914Y-115630846D01*
X117214616Y-115709787D01*
X117216134Y-115766962D01*
X117218749Y-115806001D01*
X117222746Y-115830535D01*
X117228409Y-115844195D01*
X117236020Y-115850611D01*
X117239143Y-115851801D01*
X117257978Y-115856020D01*
X117299588Y-115864438D01*
X117358630Y-115876039D01*
X117429757Y-115889805D01*
X117507625Y-115904720D01*
X117586887Y-115919768D01*
X117662198Y-115933931D01*
X117728213Y-115946194D01*
X117779587Y-115955539D01*
X117810975Y-115960950D01*
X117817959Y-115961886D01*
X117824285Y-115974404D01*
X117838290Y-116007754D01*
X117857355Y-116055623D01*
X117864634Y-116074371D01*
X117893996Y-116146805D01*
X117928571Y-116226830D01*
X117959537Y-116294272D01*
X117982323Y-116345841D01*
X117997482Y-116388215D01*
X118002542Y-116414166D01*
X118001736Y-116417644D01*
X117991041Y-116434064D01*
X117966620Y-116470583D01*
X117931095Y-116523313D01*
X117887087Y-116588365D01*
X117837217Y-116661849D01*
X117827356Y-116676355D01*
X117769492Y-116762296D01*
X117726956Y-116827739D01*
X117698054Y-116875696D01*
X117681090Y-116909180D01*
X117674367Y-116931205D01*
X117676190Y-116944783D01*
X117676236Y-116944869D01*
X117690586Y-116962703D01*
X117722323Y-116997183D01*
X117768010Y-117044732D01*
X117824204Y-117101778D01*
X117887468Y-117164745D01*
X117894602Y-117171773D01*
X117974330Y-117248980D01*
X118035857Y-117305670D01*
X118080421Y-117342890D01*
X118109257Y-117361685D01*
X118121958Y-117364111D01*
X118140494Y-117353529D01*
X118178961Y-117329084D01*
X118233386Y-117293388D01*
X118299798Y-117249053D01*
X118374225Y-117198689D01*
X118391601Y-117186840D01*
X118638297Y-117018374D01*
X118749706Y-117068938D01*
X118817457Y-117098405D01*
X118890183Y-117128041D01*
X118952703Y-117151670D01*
X118955457Y-117152642D01*
X119004360Y-117170543D01*
X119042057Y-117185680D01*
X119060425Y-117194790D01*
X119060456Y-117194816D01*
X119066285Y-117211283D01*
X119076192Y-117251781D01*
X119089195Y-117311758D01*
X119104309Y-117386660D01*
X119120552Y-117471936D01*
X119121881Y-117479125D01*
X119138175Y-117566986D01*
X119153133Y-117646740D01*
X119165791Y-117713319D01*
X119175186Y-117761653D01*
X119180354Y-117786675D01*
X119180444Y-117787057D01*
X119183589Y-117797701D01*
X119189704Y-117805738D01*
X119202453Y-117811533D01*
X119225500Y-117815453D01*
X119262509Y-117817865D01*
X119317144Y-117819135D01*
X119393067Y-117819629D01*
X119493944Y-117819714D01*
X119507000Y-117819714D01*
X119610910Y-117819652D01*
G36*
X122660595Y-113095034D02*
G01*
X122718021Y-113057503D01*
X122745719Y-113023904D01*
X122767662Y-112962936D01*
X122769405Y-112914692D01*
X122765457Y-112850184D01*
X122616686Y-112785066D01*
X122544349Y-112751798D01*
X122497084Y-112725036D01*
X122472507Y-112701856D01*
X122468237Y-112679333D01*
X122481889Y-112654545D01*
X122496943Y-112638114D01*
X122540746Y-112611765D01*
X122588389Y-112609919D01*
X122632145Y-112630454D01*
X122664289Y-112671248D01*
X122670038Y-112685653D01*
X122697576Y-112730644D01*
X122729258Y-112749818D01*
X122772714Y-112766221D01*
X122772714Y-112704034D01*
X122768872Y-112661717D01*
X122753823Y-112626031D01*
X122722280Y-112585057D01*
X122717592Y-112579733D01*
X122682506Y-112543280D01*
X122652347Y-112523717D01*
X122614615Y-112514717D01*
X122583335Y-112511770D01*
X122527385Y-112511035D01*
X122487555Y-112520340D01*
X122462708Y-112534154D01*
X122423656Y-112564533D01*
X122396625Y-112597387D01*
X122379517Y-112638706D01*
X122370238Y-112694479D01*
X122366693Y-112770695D01*
X122366410Y-112809378D01*
X122367372Y-112855753D01*
X122455007Y-112855753D01*
X122456023Y-112830874D01*
X122458556Y-112826800D01*
X122475274Y-112832335D01*
X122511249Y-112846983D01*
X122559331Y-112867810D01*
X122569386Y-112872286D01*
X122630152Y-112903186D01*
X122663632Y-112930343D01*
X122670990Y-112955780D01*
X122653391Y-112981519D01*
X122638856Y-112992891D01*
X122586410Y-113015636D01*
X122537322Y-113011878D01*
X122496227Y-112984116D01*
X122467758Y-112934848D01*
X122458631Y-112895743D01*
X122455007Y-112855753D01*
X122367372Y-112855753D01*
X122368285Y-112899751D01*
X122375196Y-112966616D01*
X122388884Y-113015305D01*
X122411096Y-113051151D01*
X122443574Y-113079487D01*
X122457733Y-113088645D01*
X122522053Y-113112493D01*
X122592473Y-113113994D01*
X122660595Y-113095034D01*
G37*
X122660595Y-113095034D02*
X122718021Y-113057503D01*
X122745719Y-113023904D01*
X122767662Y-112962936D01*
X122769405Y-112914692D01*
X122765457Y-112850184D01*
X122616686Y-112785066D01*
X122544349Y-112751798D01*
X122497084Y-112725036D01*
X122472507Y-112701856D01*
X122468237Y-112679333D01*
X122481889Y-112654545D01*
X122496943Y-112638114D01*
X122540746Y-112611765D01*
X122588389Y-112609919D01*
X122632145Y-112630454D01*
X122664289Y-112671248D01*
X122670038Y-112685653D01*
X122697576Y-112730644D01*
X122729258Y-112749818D01*
X122772714Y-112766221D01*
X122772714Y-112704034D01*
X122768872Y-112661717D01*
X122753823Y-112626031D01*
X122722280Y-112585057D01*
X122717592Y-112579733D01*
X122682506Y-112543280D01*
X122652347Y-112523717D01*
X122614615Y-112514717D01*
X122583335Y-112511770D01*
X122527385Y-112511035D01*
X122487555Y-112520340D01*
X122462708Y-112534154D01*
X122423656Y-112564533D01*
X122396625Y-112597387D01*
X122379517Y-112638706D01*
X122370238Y-112694479D01*
X122366693Y-112770695D01*
X122366410Y-112809378D01*
X122367372Y-112855753D01*
X122455007Y-112855753D01*
X122456023Y-112830874D01*
X122458556Y-112826800D01*
X122475274Y-112832335D01*
X122511249Y-112846983D01*
X122559331Y-112867810D01*
X122569386Y-112872286D01*
X122630152Y-112903186D01*
X122663632Y-112930343D01*
X122670990Y-112955780D01*
X122653391Y-112981519D01*
X122638856Y-112992891D01*
X122586410Y-113015636D01*
X122537322Y-113011878D01*
X122496227Y-112984116D01*
X122467758Y-112934848D01*
X122458631Y-112895743D01*
X122455007Y-112855753D01*
X122367372Y-112855753D01*
X122368285Y-112899751D01*
X122375196Y-112966616D01*
X122388884Y-113015305D01*
X122411096Y-113051151D01*
X122443574Y-113079487D01*
X122457733Y-113088645D01*
X122522053Y-113112493D01*
X122592473Y-113113994D01*
X122660595Y-113095034D01*
G36*
X122159600Y-113103248D02*
G01*
X122176948Y-113095666D01*
X122218356Y-113062872D01*
X122253765Y-113015453D01*
X122275664Y-112964849D01*
X122279229Y-112939902D01*
X122267279Y-112905073D01*
X122241067Y-112886643D01*
X122212964Y-112875484D01*
X122200095Y-112873428D01*
X122193829Y-112888351D01*
X122181456Y-112920825D01*
X122176028Y-112935498D01*
X122145590Y-112986256D01*
X122101520Y-113011573D01*
X122045010Y-113010794D01*
X122040825Y-113009797D01*
X122010655Y-112995493D01*
X121988476Y-112967607D01*
X121973327Y-112922713D01*
X121964250Y-112857385D01*
X121960286Y-112768196D01*
X121959914Y-112720739D01*
X121959730Y-112645929D01*
X121958522Y-112594931D01*
X121955309Y-112562529D01*
X121949109Y-112543505D01*
X121938940Y-112532644D01*
X121923819Y-112524728D01*
X121922946Y-112524330D01*
X121893828Y-112512019D01*
X121879403Y-112507486D01*
X121877186Y-112521191D01*
X121875289Y-112559075D01*
X121873847Y-112616285D01*
X121872998Y-112687973D01*
X121872829Y-112740435D01*
X121873692Y-112841953D01*
X121877070Y-112918968D01*
X121884142Y-112975977D01*
X121896088Y-113017474D01*
X121914090Y-113047957D01*
X121939327Y-113071920D01*
X121964247Y-113088645D01*
X122024171Y-113110903D01*
X122093911Y-113115924D01*
X122159600Y-113103248D01*
G37*
X122159600Y-113103248D02*
X122176948Y-113095666D01*
X122218356Y-113062872D01*
X122253765Y-113015453D01*
X122275664Y-112964849D01*
X122279229Y-112939902D01*
X122267279Y-112905073D01*
X122241067Y-112886643D01*
X122212964Y-112875484D01*
X122200095Y-112873428D01*
X122193829Y-112888351D01*
X122181456Y-112920825D01*
X122176028Y-112935498D01*
X122145590Y-112986256D01*
X122101520Y-113011573D01*
X122045010Y-113010794D01*
X122040825Y-113009797D01*
X122010655Y-112995493D01*
X121988476Y-112967607D01*
X121973327Y-112922713D01*
X121964250Y-112857385D01*
X121960286Y-112768196D01*
X121959914Y-112720739D01*
X121959730Y-112645929D01*
X121958522Y-112594931D01*
X121955309Y-112562529D01*
X121949109Y-112543505D01*
X121938940Y-112532644D01*
X121923819Y-112524728D01*
X121922946Y-112524330D01*
X121893828Y-112512019D01*
X121879403Y-112507486D01*
X121877186Y-112521191D01*
X121875289Y-112559075D01*
X121873847Y-112616285D01*
X121872998Y-112687973D01*
X121872829Y-112740435D01*
X121873692Y-112841953D01*
X121877070Y-112918968D01*
X121884142Y-112975977D01*
X121896088Y-113017474D01*
X121914090Y-113047957D01*
X121939327Y-113071920D01*
X121964247Y-113088645D01*
X122024171Y-113110903D01*
X122093911Y-113115924D01*
X122159600Y-113103248D01*
G36*
X121651876Y-113105665D02*
G01*
X121693667Y-113086656D01*
X121726469Y-113063622D01*
X121750503Y-113037867D01*
X121767097Y-113004642D01*
X121777577Y-112959200D01*
X121783271Y-112896793D01*
X121785507Y-112812673D01*
X121785743Y-112757279D01*
X121785743Y-112541174D01*
X121748774Y-112524330D01*
X121719656Y-112512019D01*
X121705231Y-112507486D01*
X121702472Y-112520975D01*
X121700282Y-112557347D01*
X121698942Y-112610458D01*
X121698657Y-112652628D01*
X121697434Y-112713553D01*
X121694136Y-112761885D01*
X121689321Y-112791482D01*
X121685496Y-112797771D01*
X121659783Y-112791348D01*
X121619418Y-112774875D01*
X121572679Y-112752542D01*
X121527845Y-112728543D01*
X121493193Y-112707070D01*
X121477002Y-112692315D01*
X121476938Y-112692155D01*
X121478330Y-112664848D01*
X121490818Y-112638781D01*
X121512743Y-112617608D01*
X121544743Y-112610526D01*
X121572092Y-112611351D01*
X121610826Y-112611958D01*
X121631158Y-112602884D01*
X121643369Y-112578908D01*
X121644909Y-112574387D01*
X121650203Y-112540194D01*
X121636047Y-112519432D01*
X121599148Y-112509538D01*
X121559289Y-112507708D01*
X121487562Y-112521273D01*
X121450432Y-112540645D01*
X121404576Y-112586155D01*
X121380256Y-112642017D01*
X121378073Y-112701043D01*
X121398629Y-112756047D01*
X121429549Y-112790514D01*
X121460420Y-112809811D01*
X121508942Y-112834241D01*
X121565485Y-112859015D01*
X121574910Y-112862801D01*
X121637019Y-112890209D01*
X121672822Y-112914366D01*
X121684337Y-112938381D01*
X121673580Y-112965365D01*
X121655114Y-112986457D01*
X121611469Y-113012428D01*
X121563446Y-113014376D01*
X121519406Y-112994363D01*
X121487709Y-112954449D01*
X121483549Y-112944152D01*
X121459327Y-112906276D01*
X121423965Y-112878158D01*
X121379343Y-112855083D01*
X121379343Y-112920515D01*
X121381969Y-112960494D01*
X121393230Y-112992003D01*
X121418199Y-113025622D01*
X121442169Y-113051516D01*
X121479441Y-113088183D01*
X121508401Y-113107879D01*
X121539505Y-113115780D01*
X121574713Y-113117086D01*
X121651876Y-113105665D01*
G37*
X121651876Y-113105665D02*
X121693667Y-113086656D01*
X121726469Y-113063622D01*
X121750503Y-113037867D01*
X121767097Y-113004642D01*
X121777577Y-112959200D01*
X121783271Y-112896793D01*
X121785507Y-112812673D01*
X121785743Y-112757279D01*
X121785743Y-112541174D01*
X121748774Y-112524330D01*
X121719656Y-112512019D01*
X121705231Y-112507486D01*
X121702472Y-112520975D01*
X121700282Y-112557347D01*
X121698942Y-112610458D01*
X121698657Y-112652628D01*
X121697434Y-112713553D01*
X121694136Y-112761885D01*
X121689321Y-112791482D01*
X121685496Y-112797771D01*
X121659783Y-112791348D01*
X121619418Y-112774875D01*
X121572679Y-112752542D01*
X121527845Y-112728543D01*
X121493193Y-112707070D01*
X121477002Y-112692315D01*
X121476938Y-112692155D01*
X121478330Y-112664848D01*
X121490818Y-112638781D01*
X121512743Y-112617608D01*
X121544743Y-112610526D01*
X121572092Y-112611351D01*
X121610826Y-112611958D01*
X121631158Y-112602884D01*
X121643369Y-112578908D01*
X121644909Y-112574387D01*
X121650203Y-112540194D01*
X121636047Y-112519432D01*
X121599148Y-112509538D01*
X121559289Y-112507708D01*
X121487562Y-112521273D01*
X121450432Y-112540645D01*
X121404576Y-112586155D01*
X121380256Y-112642017D01*
X121378073Y-112701043D01*
X121398629Y-112756047D01*
X121429549Y-112790514D01*
X121460420Y-112809811D01*
X121508942Y-112834241D01*
X121565485Y-112859015D01*
X121574910Y-112862801D01*
X121637019Y-112890209D01*
X121672822Y-112914366D01*
X121684337Y-112938381D01*
X121673580Y-112965365D01*
X121655114Y-112986457D01*
X121611469Y-113012428D01*
X121563446Y-113014376D01*
X121519406Y-112994363D01*
X121487709Y-112954449D01*
X121483549Y-112944152D01*
X121459327Y-112906276D01*
X121423965Y-112878158D01*
X121379343Y-112855083D01*
X121379343Y-112920515D01*
X121381969Y-112960494D01*
X121393230Y-112992003D01*
X121418199Y-113025622D01*
X121442169Y-113051516D01*
X121479441Y-113088183D01*
X121508401Y-113107879D01*
X121539505Y-113115780D01*
X121574713Y-113117086D01*
X121651876Y-113105665D01*
G36*
X121286833Y-113103337D02*
G01*
X121289048Y-113065150D01*
X121290784Y-113007114D01*
X121291899Y-112933820D01*
X121292257Y-112856945D01*
X121292257Y-112596804D01*
X121246326Y-112550873D01*
X121214675Y-112522571D01*
X121186890Y-112511107D01*
X121148915Y-112511832D01*
X121133840Y-112513679D01*
X121086726Y-112519052D01*
X121047756Y-112522131D01*
X121038257Y-112522415D01*
X121006233Y-112520555D01*
X120960432Y-112515886D01*
X120942674Y-112513679D01*
X120899057Y-112510265D01*
X120869745Y-112517680D01*
X120840680Y-112540573D01*
X120830188Y-112550873D01*
X120784257Y-112596804D01*
X120784257Y-113083398D01*
X120821226Y-113100242D01*
X120853059Y-113112718D01*
X120871683Y-113117086D01*
X120876458Y-113103282D01*
X120880921Y-113064714D01*
X120884775Y-113005644D01*
X120887722Y-112930337D01*
X120889143Y-112866714D01*
X120893114Y-112616343D01*
X120927759Y-112611444D01*
X120959268Y-112614869D01*
X120974708Y-112625959D01*
X120979023Y-112646692D01*
X120982708Y-112690855D01*
X120985469Y-112752854D01*
X120987012Y-112827091D01*
X120987235Y-112865294D01*
X120987457Y-113085217D01*
X121033166Y-113101151D01*
X121065518Y-113111985D01*
X121083115Y-113117038D01*
X121083623Y-113117086D01*
X121085388Y-113103352D01*
X121087329Y-113065270D01*
X121089282Y-113007518D01*
X121091084Y-112934773D01*
X121092343Y-112866714D01*
X121096314Y-112616343D01*
X121183400Y-112616343D01*
X121187396Y-112844760D01*
X121191392Y-113073178D01*
X121233847Y-113095132D01*
X121265192Y-113110207D01*
X121283744Y-113117049D01*
X121284279Y-113117086D01*
X121286833Y-113103337D01*
G37*
X121286833Y-113103337D02*
X121289048Y-113065150D01*
X121290784Y-113007114D01*
X121291899Y-112933820D01*
X121292257Y-112856945D01*
X121292257Y-112596804D01*
X121246326Y-112550873D01*
X121214675Y-112522571D01*
X121186890Y-112511107D01*
X121148915Y-112511832D01*
X121133840Y-112513679D01*
X121086726Y-112519052D01*
X121047756Y-112522131D01*
X121038257Y-112522415D01*
X121006233Y-112520555D01*
X120960432Y-112515886D01*
X120942674Y-112513679D01*
X120899057Y-112510265D01*
X120869745Y-112517680D01*
X120840680Y-112540573D01*
X120830188Y-112550873D01*
X120784257Y-112596804D01*
X120784257Y-113083398D01*
X120821226Y-113100242D01*
X120853059Y-113112718D01*
X120871683Y-113117086D01*
X120876458Y-113103282D01*
X120880921Y-113064714D01*
X120884775Y-113005644D01*
X120887722Y-112930337D01*
X120889143Y-112866714D01*
X120893114Y-112616343D01*
X120927759Y-112611444D01*
X120959268Y-112614869D01*
X120974708Y-112625959D01*
X120979023Y-112646692D01*
X120982708Y-112690855D01*
X120985469Y-112752854D01*
X120987012Y-112827091D01*
X120987235Y-112865294D01*
X120987457Y-113085217D01*
X121033166Y-113101151D01*
X121065518Y-113111985D01*
X121083115Y-113117038D01*
X121083623Y-113117086D01*
X121085388Y-113103352D01*
X121087329Y-113065270D01*
X121089282Y-113007518D01*
X121091084Y-112934773D01*
X121092343Y-112866714D01*
X121096314Y-112616343D01*
X121183400Y-112616343D01*
X121187396Y-112844760D01*
X121191392Y-113073178D01*
X121233847Y-113095132D01*
X121265192Y-113110207D01*
X121283744Y-113117049D01*
X121284279Y-113117086D01*
X121286833Y-113103337D01*
G36*
X120697117Y-112996642D02*
G01*
X120696933Y-112888163D01*
X120696219Y-112804713D01*
X120694675Y-112742296D01*
X120692001Y-112696915D01*
X120687894Y-112664571D01*
X120682055Y-112641267D01*
X120674182Y-112623005D01*
X120668221Y-112612582D01*
X120618855Y-112556055D01*
X120556264Y-112520623D01*
X120487013Y-112507910D01*
X120417668Y-112519537D01*
X120376375Y-112540432D01*
X120333025Y-112576578D01*
X120303481Y-112620724D01*
X120285655Y-112678538D01*
X120277463Y-112755687D01*
X120276302Y-112812286D01*
X120276458Y-112816353D01*
X120377857Y-112816353D01*
X120378476Y-112751450D01*
X120381314Y-112708486D01*
X120387840Y-112680378D01*
X120399523Y-112660047D01*
X120413483Y-112644712D01*
X120460365Y-112615110D01*
X120510701Y-112612581D01*
X120558276Y-112637295D01*
X120561979Y-112640644D01*
X120577783Y-112658065D01*
X120587693Y-112678791D01*
X120593058Y-112709638D01*
X120595228Y-112757423D01*
X120595571Y-112810252D01*
X120594827Y-112876619D01*
X120591748Y-112920894D01*
X120585061Y-112949991D01*
X120573496Y-112970827D01*
X120564013Y-112981893D01*
X120519960Y-113009802D01*
X120469224Y-113013157D01*
X120420796Y-112991841D01*
X120411450Y-112983927D01*
X120395540Y-112966353D01*
X120385610Y-112945413D01*
X120380278Y-112914218D01*
X120378163Y-112865878D01*
X120377857Y-112816353D01*
X120276458Y-112816353D01*
X120279810Y-112903432D01*
X120291726Y-112971914D01*
X120314135Y-113023400D01*
X120349124Y-113063557D01*
X120376375Y-113084139D01*
X120425907Y-113106375D01*
X120483316Y-113116696D01*
X120536682Y-113113933D01*
X120566543Y-113102788D01*
X120578261Y-113099617D01*
X120586037Y-113111443D01*
X120591465Y-113143134D01*
X120595571Y-113191407D01*
X120600067Y-113245171D01*
X120606313Y-113277518D01*
X120617676Y-113296015D01*
X120637528Y-113308230D01*
X120650000Y-113313638D01*
X120697171Y-113333399D01*
X120697117Y-112996642D01*
G37*
X120697117Y-112996642D02*
X120696933Y-112888163D01*
X120696219Y-112804713D01*
X120694675Y-112742296D01*
X120692001Y-112696915D01*
X120687894Y-112664571D01*
X120682055Y-112641267D01*
X120674182Y-112623005D01*
X120668221Y-112612582D01*
X120618855Y-112556055D01*
X120556264Y-112520623D01*
X120487013Y-112507910D01*
X120417668Y-112519537D01*
X120376375Y-112540432D01*
X120333025Y-112576578D01*
X120303481Y-112620724D01*
X120285655Y-112678538D01*
X120277463Y-112755687D01*
X120276302Y-112812286D01*
X120276458Y-112816353D01*
X120377857Y-112816353D01*
X120378476Y-112751450D01*
X120381314Y-112708486D01*
X120387840Y-112680378D01*
X120399523Y-112660047D01*
X120413483Y-112644712D01*
X120460365Y-112615110D01*
X120510701Y-112612581D01*
X120558276Y-112637295D01*
X120561979Y-112640644D01*
X120577783Y-112658065D01*
X120587693Y-112678791D01*
X120593058Y-112709638D01*
X120595228Y-112757423D01*
X120595571Y-112810252D01*
X120594827Y-112876619D01*
X120591748Y-112920894D01*
X120585061Y-112949991D01*
X120573496Y-112970827D01*
X120564013Y-112981893D01*
X120519960Y-113009802D01*
X120469224Y-113013157D01*
X120420796Y-112991841D01*
X120411450Y-112983927D01*
X120395540Y-112966353D01*
X120385610Y-112945413D01*
X120380278Y-112914218D01*
X120378163Y-112865878D01*
X120377857Y-112816353D01*
X120276458Y-112816353D01*
X120279810Y-112903432D01*
X120291726Y-112971914D01*
X120314135Y-113023400D01*
X120349124Y-113063557D01*
X120376375Y-113084139D01*
X120425907Y-113106375D01*
X120483316Y-113116696D01*
X120536682Y-113113933D01*
X120566543Y-113102788D01*
X120578261Y-113099617D01*
X120586037Y-113111443D01*
X120591465Y-113143134D01*
X120595571Y-113191407D01*
X120600067Y-113245171D01*
X120606313Y-113277518D01*
X120617676Y-113296015D01*
X120637528Y-113308230D01*
X120650000Y-113313638D01*
X120697171Y-113333399D01*
X120697117Y-112996642D01*
G36*
X120036926Y-113112245D02*
G01*
X120102858Y-113087916D01*
X120156273Y-113044883D01*
X120177164Y-113014591D01*
X120199939Y-112959006D01*
X120199466Y-112918814D01*
X120175562Y-112891783D01*
X120166717Y-112887187D01*
X120128530Y-112872856D01*
X120109028Y-112876528D01*
X120102422Y-112900593D01*
X120102086Y-112913886D01*
X120089992Y-112962790D01*
X120058471Y-112997001D01*
X120014659Y-113013524D01*
X119965695Y-113009366D01*
X119925894Y-112987773D01*
X119912450Y-112975456D01*
X119902921Y-112960513D01*
X119896485Y-112937925D01*
X119892317Y-112902672D01*
X119889597Y-112849734D01*
X119887502Y-112774093D01*
X119886960Y-112750143D01*
X119884981Y-112668210D01*
X119882731Y-112610545D01*
X119879357Y-112572392D01*
X119874006Y-112548996D01*
X119865824Y-112535602D01*
X119853959Y-112527455D01*
X119846362Y-112523856D01*
X119814102Y-112511548D01*
X119795111Y-112507486D01*
X119788836Y-112521052D01*
X119785006Y-112562066D01*
X119783600Y-112631001D01*
X119784598Y-112728331D01*
X119784908Y-112743343D01*
X119787101Y-112832141D01*
X119789693Y-112896981D01*
X119793382Y-112942933D01*
X119798864Y-112975065D01*
X119806835Y-112998447D01*
X119817993Y-113018148D01*
X119823830Y-113026590D01*
X119857296Y-113063943D01*
X119894727Y-113092997D01*
X119899309Y-113095533D01*
X119966426Y-113115557D01*
X120036926Y-113112245D01*
G37*
X120036926Y-113112245D02*
X120102858Y-113087916D01*
X120156273Y-113044883D01*
X120177164Y-113014591D01*
X120199939Y-112959006D01*
X120199466Y-112918814D01*
X120175562Y-112891783D01*
X120166717Y-112887187D01*
X120128530Y-112872856D01*
X120109028Y-112876528D01*
X120102422Y-112900593D01*
X120102086Y-112913886D01*
X120089992Y-112962790D01*
X120058471Y-112997001D01*
X120014659Y-113013524D01*
X119965695Y-113009366D01*
X119925894Y-112987773D01*
X119912450Y-112975456D01*
X119902921Y-112960513D01*
X119896485Y-112937925D01*
X119892317Y-112902672D01*
X119889597Y-112849734D01*
X119887502Y-112774093D01*
X119886960Y-112750143D01*
X119884981Y-112668210D01*
X119882731Y-112610545D01*
X119879357Y-112572392D01*
X119874006Y-112548996D01*
X119865824Y-112535602D01*
X119853959Y-112527455D01*
X119846362Y-112523856D01*
X119814102Y-112511548D01*
X119795111Y-112507486D01*
X119788836Y-112521052D01*
X119785006Y-112562066D01*
X119783600Y-112631001D01*
X119784598Y-112728331D01*
X119784908Y-112743343D01*
X119787101Y-112832141D01*
X119789693Y-112896981D01*
X119793382Y-112942933D01*
X119798864Y-112975065D01*
X119806835Y-112998447D01*
X119817993Y-113018148D01*
X119823830Y-113026590D01*
X119857296Y-113063943D01*
X119894727Y-113092997D01*
X119899309Y-113095533D01*
X119966426Y-113115557D01*
X120036926Y-113112245D01*
G36*
X119546744Y-113111032D02*
G01*
X119603616Y-113089913D01*
X119604267Y-113089507D01*
X119639440Y-113063620D01*
X119665407Y-113033367D01*
X119683670Y-112993942D01*
X119695732Y-112940538D01*
X119703096Y-112868349D01*
X119707264Y-112772568D01*
X119707629Y-112758922D01*
X119712876Y-112553158D01*
X119668716Y-112530322D01*
X119636763Y-112514890D01*
X119617470Y-112507577D01*
X119616578Y-112507486D01*
X119613239Y-112520978D01*
X119610587Y-112557374D01*
X119608956Y-112610548D01*
X119608600Y-112653607D01*
X119608592Y-112723359D01*
X119605403Y-112767163D01*
X119594288Y-112788056D01*
X119570501Y-112789075D01*
X119529296Y-112773259D01*
X119467086Y-112744185D01*
X119421341Y-112720037D01*
X119397813Y-112699087D01*
X119390896Y-112676253D01*
X119390886Y-112675123D01*
X119402299Y-112635788D01*
X119436092Y-112614538D01*
X119487809Y-112611461D01*
X119525061Y-112611994D01*
X119544703Y-112601265D01*
X119556952Y-112575495D01*
X119564002Y-112542663D01*
X119553842Y-112524034D01*
X119550017Y-112521368D01*
X119514001Y-112510660D01*
X119463566Y-112509144D01*
X119411626Y-112516241D01*
X119374822Y-112529212D01*
X119323938Y-112572415D01*
X119295014Y-112632554D01*
X119289286Y-112679538D01*
X119293657Y-112721918D01*
X119309475Y-112756512D01*
X119340797Y-112787237D01*
X119391678Y-112818010D01*
X119466176Y-112852748D01*
X119470714Y-112854712D01*
X119537821Y-112885713D01*
X119579232Y-112911138D01*
X119596981Y-112933986D01*
X119593107Y-112957255D01*
X119569643Y-112983944D01*
X119562627Y-112990086D01*
X119515630Y-113013900D01*
X119466933Y-113012897D01*
X119424522Y-112989549D01*
X119396384Y-112946325D01*
X119393769Y-112937840D01*
X119368308Y-112896692D01*
X119336001Y-112876872D01*
X119289286Y-112857230D01*
X119289286Y-112908050D01*
X119303496Y-112981918D01*
X119345675Y-113049673D01*
X119367624Y-113072339D01*
X119417517Y-113101431D01*
X119480967Y-113114600D01*
X119546744Y-113111032D01*
G37*
X119546744Y-113111032D02*
X119603616Y-113089913D01*
X119604267Y-113089507D01*
X119639440Y-113063620D01*
X119665407Y-113033367D01*
X119683670Y-112993942D01*
X119695732Y-112940538D01*
X119703096Y-112868349D01*
X119707264Y-112772568D01*
X119707629Y-112758922D01*
X119712876Y-112553158D01*
X119668716Y-112530322D01*
X119636763Y-112514890D01*
X119617470Y-112507577D01*
X119616578Y-112507486D01*
X119613239Y-112520978D01*
X119610587Y-112557374D01*
X119608956Y-112610548D01*
X119608600Y-112653607D01*
X119608592Y-112723359D01*
X119605403Y-112767163D01*
X119594288Y-112788056D01*
X119570501Y-112789075D01*
X119529296Y-112773259D01*
X119467086Y-112744185D01*
X119421341Y-112720037D01*
X119397813Y-112699087D01*
X119390896Y-112676253D01*
X119390886Y-112675123D01*
X119402299Y-112635788D01*
X119436092Y-112614538D01*
X119487809Y-112611461D01*
X119525061Y-112611994D01*
X119544703Y-112601265D01*
X119556952Y-112575495D01*
X119564002Y-112542663D01*
X119553842Y-112524034D01*
X119550017Y-112521368D01*
X119514001Y-112510660D01*
X119463566Y-112509144D01*
X119411626Y-112516241D01*
X119374822Y-112529212D01*
X119323938Y-112572415D01*
X119295014Y-112632554D01*
X119289286Y-112679538D01*
X119293657Y-112721918D01*
X119309475Y-112756512D01*
X119340797Y-112787237D01*
X119391678Y-112818010D01*
X119466176Y-112852748D01*
X119470714Y-112854712D01*
X119537821Y-112885713D01*
X119579232Y-112911138D01*
X119596981Y-112933986D01*
X119593107Y-112957255D01*
X119569643Y-112983944D01*
X119562627Y-112990086D01*
X119515630Y-113013900D01*
X119466933Y-113012897D01*
X119424522Y-112989549D01*
X119396384Y-112946325D01*
X119393769Y-112937840D01*
X119368308Y-112896692D01*
X119336001Y-112876872D01*
X119289286Y-112857230D01*
X119289286Y-112908050D01*
X119303496Y-112981918D01*
X119345675Y-113049673D01*
X119367624Y-113072339D01*
X119417517Y-113101431D01*
X119480967Y-113114600D01*
X119546744Y-113111032D01*
G36*
X118882886Y-113210711D02*
G01*
X118887139Y-113151387D01*
X118892025Y-113116428D01*
X118898795Y-113101180D01*
X118908702Y-113100985D01*
X118911914Y-113102805D01*
X118954644Y-113115985D01*
X119010227Y-113115215D01*
X119066737Y-113101667D01*
X119102082Y-113084139D01*
X119138321Y-113056139D01*
X119164813Y-113024451D01*
X119182999Y-112984187D01*
X119194322Y-112930457D01*
X119200222Y-112858374D01*
X119202143Y-112763049D01*
X119202177Y-112744763D01*
X119202200Y-112539354D01*
X119156491Y-112523420D01*
X119124027Y-112512580D01*
X119106215Y-112507532D01*
X119105691Y-112507486D01*
X119103937Y-112521172D01*
X119102444Y-112558924D01*
X119101326Y-112615776D01*
X119100697Y-112686766D01*
X119100600Y-112729927D01*
X119100398Y-112815027D01*
X119099358Y-112876019D01*
X119096831Y-112917823D01*
X119092164Y-112945358D01*
X119084707Y-112963544D01*
X119073811Y-112977302D01*
X119067007Y-112983927D01*
X119020272Y-113010625D01*
X118969272Y-113012625D01*
X118923001Y-112990045D01*
X118914444Y-112981893D01*
X118901893Y-112966564D01*
X118893188Y-112948382D01*
X118887631Y-112922091D01*
X118884526Y-112882438D01*
X118883176Y-112824168D01*
X118882886Y-112743827D01*
X118882886Y-112539354D01*
X118837177Y-112523420D01*
X118804713Y-112512580D01*
X118786901Y-112507532D01*
X118786377Y-112507486D01*
X118785037Y-112521377D01*
X118783828Y-112560561D01*
X118782801Y-112621300D01*
X118782002Y-112699859D01*
X118781481Y-112792502D01*
X118781286Y-112895491D01*
X118781286Y-113292658D01*
X118828457Y-113312556D01*
X118875629Y-113332453D01*
X118882886Y-113210711D01*
G37*
X118882886Y-113210711D02*
X118887139Y-113151387D01*
X118892025Y-113116428D01*
X118898795Y-113101180D01*
X118908702Y-113100985D01*
X118911914Y-113102805D01*
X118954644Y-113115985D01*
X119010227Y-113115215D01*
X119066737Y-113101667D01*
X119102082Y-113084139D01*
X119138321Y-113056139D01*
X119164813Y-113024451D01*
X119182999Y-112984187D01*
X119194322Y-112930457D01*
X119200222Y-112858374D01*
X119202143Y-112763049D01*
X119202177Y-112744763D01*
X119202200Y-112539354D01*
X119156491Y-112523420D01*
X119124027Y-112512580D01*
X119106215Y-112507532D01*
X119105691Y-112507486D01*
X119103937Y-112521172D01*
X119102444Y-112558924D01*
X119101326Y-112615776D01*
X119100697Y-112686766D01*
X119100600Y-112729927D01*
X119100398Y-112815027D01*
X119099358Y-112876019D01*
X119096831Y-112917823D01*
X119092164Y-112945358D01*
X119084707Y-112963544D01*
X119073811Y-112977302D01*
X119067007Y-112983927D01*
X119020272Y-113010625D01*
X118969272Y-113012625D01*
X118923001Y-112990045D01*
X118914444Y-112981893D01*
X118901893Y-112966564D01*
X118893188Y-112948382D01*
X118887631Y-112922091D01*
X118884526Y-112882438D01*
X118883176Y-112824168D01*
X118882886Y-112743827D01*
X118882886Y-112539354D01*
X118837177Y-112523420D01*
X118804713Y-112512580D01*
X118786901Y-112507532D01*
X118786377Y-112507486D01*
X118785037Y-112521377D01*
X118783828Y-112560561D01*
X118782801Y-112621300D01*
X118782002Y-112699859D01*
X118781481Y-112792502D01*
X118781286Y-112895491D01*
X118781286Y-113292658D01*
X118828457Y-113312556D01*
X118875629Y-113332453D01*
X118882886Y-113210711D01*
G36*
X117675303Y-113130761D02*
G01*
X117732527Y-113092265D01*
X117776749Y-113036665D01*
X117803167Y-112965914D01*
X117808510Y-112913838D01*
X117807903Y-112892107D01*
X117802822Y-112875469D01*
X117788855Y-112860563D01*
X117761589Y-112844027D01*
X117716612Y-112822502D01*
X117649511Y-112792626D01*
X117649171Y-112792476D01*
X117587407Y-112764187D01*
X117536759Y-112739067D01*
X117502404Y-112719821D01*
X117489518Y-112709152D01*
X117489514Y-112709066D01*
X117500872Y-112685834D01*
X117527431Y-112660226D01*
X117557923Y-112641779D01*
X117573370Y-112638114D01*
X117615515Y-112650788D01*
X117651808Y-112682529D01*
X117669517Y-112717428D01*
X117686552Y-112743155D01*
X117719922Y-112772454D01*
X117759149Y-112797765D01*
X117793756Y-112811529D01*
X117800993Y-112812286D01*
X117809139Y-112799840D01*
X117809630Y-112768028D01*
X117803643Y-112725134D01*
X117792357Y-112679442D01*
X117776950Y-112639239D01*
X117776171Y-112637678D01*
X117729804Y-112572938D01*
X117669711Y-112528903D01*
X117601465Y-112507289D01*
X117530638Y-112509815D01*
X117462804Y-112538196D01*
X117459788Y-112540192D01*
X117406427Y-112588552D01*
X117371340Y-112651648D01*
X117351922Y-112734613D01*
X117349316Y-112757922D01*
X117344701Y-112867945D01*
X117350233Y-112919252D01*
X117489514Y-112919252D01*
X117491324Y-112887247D01*
X117501222Y-112877907D01*
X117525898Y-112884895D01*
X117564795Y-112901413D01*
X117608275Y-112922119D01*
X117609356Y-112922667D01*
X117646209Y-112942051D01*
X117661000Y-112954987D01*
X117657353Y-112968549D01*
X117641995Y-112986368D01*
X117602923Y-113012155D01*
X117560846Y-113014050D01*
X117523103Y-112995283D01*
X117497034Y-112959085D01*
X117489514Y-112919252D01*
X117350233Y-112919252D01*
X117354194Y-112955973D01*
X117378550Y-113025788D01*
X117412456Y-113074698D01*
X117473653Y-113124122D01*
X117541063Y-113148641D01*
X117609880Y-113150203D01*
X117675303Y-113130761D01*
G37*
X117675303Y-113130761D02*
X117732527Y-113092265D01*
X117776749Y-113036665D01*
X117803167Y-112965914D01*
X117808510Y-112913838D01*
X117807903Y-112892107D01*
X117802822Y-112875469D01*
X117788855Y-112860563D01*
X117761589Y-112844027D01*
X117716612Y-112822502D01*
X117649511Y-112792626D01*
X117649171Y-112792476D01*
X117587407Y-112764187D01*
X117536759Y-112739067D01*
X117502404Y-112719821D01*
X117489518Y-112709152D01*
X117489514Y-112709066D01*
X117500872Y-112685834D01*
X117527431Y-112660226D01*
X117557923Y-112641779D01*
X117573370Y-112638114D01*
X117615515Y-112650788D01*
X117651808Y-112682529D01*
X117669517Y-112717428D01*
X117686552Y-112743155D01*
X117719922Y-112772454D01*
X117759149Y-112797765D01*
X117793756Y-112811529D01*
X117800993Y-112812286D01*
X117809139Y-112799840D01*
X117809630Y-112768028D01*
X117803643Y-112725134D01*
X117792357Y-112679442D01*
X117776950Y-112639239D01*
X117776171Y-112637678D01*
X117729804Y-112572938D01*
X117669711Y-112528903D01*
X117601465Y-112507289D01*
X117530638Y-112509815D01*
X117462804Y-112538196D01*
X117459788Y-112540192D01*
X117406427Y-112588552D01*
X117371340Y-112651648D01*
X117351922Y-112734613D01*
X117349316Y-112757922D01*
X117344701Y-112867945D01*
X117350233Y-112919252D01*
X117489514Y-112919252D01*
X117491324Y-112887247D01*
X117501222Y-112877907D01*
X117525898Y-112884895D01*
X117564795Y-112901413D01*
X117608275Y-112922119D01*
X117609356Y-112922667D01*
X117646209Y-112942051D01*
X117661000Y-112954987D01*
X117657353Y-112968549D01*
X117641995Y-112986368D01*
X117602923Y-113012155D01*
X117560846Y-113014050D01*
X117523103Y-112995283D01*
X117497034Y-112959085D01*
X117489514Y-112919252D01*
X117350233Y-112919252D01*
X117354194Y-112955973D01*
X117378550Y-113025788D01*
X117412456Y-113074698D01*
X117473653Y-113124122D01*
X117541063Y-113148641D01*
X117609880Y-113150203D01*
X117675303Y-113130761D01*
G36*
X116548115Y-113140038D02*
G01*
X116616145Y-113104267D01*
X116666351Y-113046699D01*
X116684185Y-113009688D01*
X116698063Y-112954118D01*
X116705167Y-112883904D01*
X116705840Y-112807273D01*
X116700427Y-112732448D01*
X116689270Y-112667658D01*
X116672714Y-112621127D01*
X116667626Y-112613113D01*
X116607355Y-112553293D01*
X116535769Y-112517465D01*
X116458092Y-112506980D01*
X116379548Y-112523190D01*
X116357689Y-112532908D01*
X116315122Y-112562857D01*
X116277763Y-112602567D01*
X116274232Y-112607603D01*
X116259881Y-112631876D01*
X116250394Y-112657822D01*
X116244790Y-112691978D01*
X116242086Y-112740881D01*
X116241299Y-112811065D01*
X116241286Y-112826800D01*
X116241322Y-112831808D01*
X116386429Y-112831808D01*
X116387273Y-112765570D01*
X116390596Y-112721614D01*
X116397583Y-112693221D01*
X116409416Y-112673675D01*
X116415457Y-112667143D01*
X116450186Y-112642320D01*
X116483903Y-112643452D01*
X116517995Y-112664984D01*
X116538329Y-112687971D01*
X116550371Y-112721522D01*
X116557134Y-112774431D01*
X116557598Y-112780601D01*
X116558752Y-112876487D01*
X116546688Y-112947701D01*
X116521570Y-112993806D01*
X116483560Y-113014365D01*
X116469992Y-113015486D01*
X116434364Y-113009848D01*
X116409994Y-112990314D01*
X116395093Y-112952958D01*
X116387875Y-112893850D01*
X116386429Y-112831808D01*
X116241322Y-112831808D01*
X116241826Y-112901587D01*
X116244096Y-112953841D01*
X116249068Y-112990051D01*
X116257713Y-113016701D01*
X116271005Y-113040278D01*
X116273943Y-113044662D01*
X116323313Y-113103751D01*
X116377109Y-113138053D01*
X116442602Y-113151669D01*
X116464842Y-113152335D01*
X116548115Y-113140038D01*
G37*
X116548115Y-113140038D02*
X116616145Y-113104267D01*
X116666351Y-113046699D01*
X116684185Y-113009688D01*
X116698063Y-112954118D01*
X116705167Y-112883904D01*
X116705840Y-112807273D01*
X116700427Y-112732448D01*
X116689270Y-112667658D01*
X116672714Y-112621127D01*
X116667626Y-112613113D01*
X116607355Y-112553293D01*
X116535769Y-112517465D01*
X116458092Y-112506980D01*
X116379548Y-112523190D01*
X116357689Y-112532908D01*
X116315122Y-112562857D01*
X116277763Y-112602567D01*
X116274232Y-112607603D01*
X116259881Y-112631876D01*
X116250394Y-112657822D01*
X116244790Y-112691978D01*
X116242086Y-112740881D01*
X116241299Y-112811065D01*
X116241286Y-112826800D01*
X116241322Y-112831808D01*
X116386429Y-112831808D01*
X116387273Y-112765570D01*
X116390596Y-112721614D01*
X116397583Y-112693221D01*
X116409416Y-112673675D01*
X116415457Y-112667143D01*
X116450186Y-112642320D01*
X116483903Y-112643452D01*
X116517995Y-112664984D01*
X116538329Y-112687971D01*
X116550371Y-112721522D01*
X116557134Y-112774431D01*
X116557598Y-112780601D01*
X116558752Y-112876487D01*
X116546688Y-112947701D01*
X116521570Y-112993806D01*
X116483560Y-113014365D01*
X116469992Y-113015486D01*
X116434364Y-113009848D01*
X116409994Y-112990314D01*
X116395093Y-112952958D01*
X116387875Y-112893850D01*
X116386429Y-112831808D01*
X116241322Y-112831808D01*
X116241826Y-112901587D01*
X116244096Y-112953841D01*
X116249068Y-112990051D01*
X116257713Y-113016701D01*
X116271005Y-113040278D01*
X116273943Y-113044662D01*
X116323313Y-113103751D01*
X116377109Y-113138053D01*
X116442602Y-113151669D01*
X116464842Y-113152335D01*
X116548115Y-113140038D01*
G36*
X118223093Y-113134220D02*
G01*
X118269672Y-113107277D01*
X118302057Y-113080534D01*
X118325742Y-113052516D01*
X118342059Y-113018252D01*
X118352339Y-112972773D01*
X118357914Y-112911108D01*
X118360116Y-112828289D01*
X118360371Y-112768754D01*
X118360371Y-112549609D01*
X118298686Y-112521956D01*
X118237000Y-112494303D01*
X118229743Y-112734330D01*
X118226744Y-112823972D01*
X118223598Y-112889038D01*
X118219701Y-112933974D01*
X118214447Y-112963230D01*
X118207231Y-112981252D01*
X118197450Y-112992489D01*
X118194312Y-112994921D01*
X118146761Y-113013917D01*
X118098697Y-113006400D01*
X118070086Y-112986457D01*
X118058447Y-112972325D01*
X118050391Y-112953780D01*
X118045271Y-112925666D01*
X118042441Y-112882827D01*
X118041256Y-112820105D01*
X118041057Y-112754739D01*
X118041018Y-112672732D01*
X118039614Y-112614684D01*
X118034914Y-112575535D01*
X118024987Y-112550220D01*
X118007903Y-112533677D01*
X117981732Y-112520844D01*
X117946775Y-112507509D01*
X117908596Y-112492993D01*
X117913141Y-112750611D01*
X117914971Y-112843481D01*
X117917112Y-112912111D01*
X117920181Y-112961289D01*
X117924794Y-112995802D01*
X117931568Y-113020438D01*
X117941119Y-113039984D01*
X117952634Y-113057230D01*
X118008190Y-113112320D01*
X118075980Y-113144178D01*
X118149713Y-113151809D01*
X118223093Y-113134220D01*
G37*
X118223093Y-113134220D02*
X118269672Y-113107277D01*
X118302057Y-113080534D01*
X118325742Y-113052516D01*
X118342059Y-113018252D01*
X118352339Y-112972773D01*
X118357914Y-112911108D01*
X118360116Y-112828289D01*
X118360371Y-112768754D01*
X118360371Y-112549609D01*
X118298686Y-112521956D01*
X118237000Y-112494303D01*
X118229743Y-112734330D01*
X118226744Y-112823972D01*
X118223598Y-112889038D01*
X118219701Y-112933974D01*
X118214447Y-112963230D01*
X118207231Y-112981252D01*
X118197450Y-112992489D01*
X118194312Y-112994921D01*
X118146761Y-113013917D01*
X118098697Y-113006400D01*
X118070086Y-112986457D01*
X118058447Y-112972325D01*
X118050391Y-112953780D01*
X118045271Y-112925666D01*
X118042441Y-112882827D01*
X118041256Y-112820105D01*
X118041057Y-112754739D01*
X118041018Y-112672732D01*
X118039614Y-112614684D01*
X118034914Y-112575535D01*
X118024987Y-112550220D01*
X118007903Y-112533677D01*
X117981732Y-112520844D01*
X117946775Y-112507509D01*
X117908596Y-112492993D01*
X117913141Y-112750611D01*
X117914971Y-112843481D01*
X117917112Y-112912111D01*
X117920181Y-112961289D01*
X117924794Y-112995802D01*
X117931568Y-113020438D01*
X117941119Y-113039984D01*
X117952634Y-113057230D01*
X118008190Y-113112320D01*
X118075980Y-113144178D01*
X118149713Y-113151809D01*
X118223093Y-113134220D01*
G36*
X117106744Y-113142082D02*
G01*
X117162201Y-113114432D01*
X117211148Y-113063520D01*
X117224629Y-113044662D01*
X117239314Y-113019985D01*
X117248842Y-112993184D01*
X117254293Y-112957413D01*
X117256747Y-112905831D01*
X117257286Y-112837733D01*
X117254852Y-112744412D01*
X117246394Y-112674343D01*
X117230174Y-112622069D01*
X117204454Y-112582131D01*
X117167497Y-112549071D01*
X117164782Y-112547114D01*
X117128360Y-112527092D01*
X117084502Y-112517185D01*
X117028724Y-112514743D01*
X116938048Y-112514743D01*
X116938010Y-112426717D01*
X116937166Y-112377692D01*
X116932024Y-112348935D01*
X116918587Y-112331689D01*
X116892858Y-112317192D01*
X116886679Y-112314231D01*
X116857764Y-112300352D01*
X116835376Y-112291586D01*
X116818729Y-112290829D01*
X116807036Y-112300977D01*
X116799510Y-112324927D01*
X116795366Y-112365574D01*
X116793815Y-112425814D01*
X116794071Y-112508545D01*
X116795349Y-112616661D01*
X116795748Y-112649000D01*
X116797185Y-112760476D01*
X116798472Y-112833397D01*
X116937971Y-112833397D01*
X116938755Y-112771501D01*
X116942240Y-112731003D01*
X116950124Y-112704292D01*
X116964105Y-112683756D01*
X116973597Y-112673740D01*
X117012404Y-112644433D01*
X117046763Y-112642048D01*
X117082216Y-112666250D01*
X117083114Y-112667143D01*
X117097539Y-112685847D01*
X117106313Y-112711268D01*
X117110739Y-112750416D01*
X117112118Y-112810303D01*
X117112143Y-112823570D01*
X117108812Y-112906099D01*
X117097969Y-112963309D01*
X117078340Y-112998234D01*
X117048650Y-113013906D01*
X117031491Y-113015486D01*
X116990766Y-113008074D01*
X116962832Y-112983670D01*
X116946017Y-112939020D01*
X116938650Y-112870870D01*
X116937971Y-112833397D01*
X116798472Y-112833397D01*
X116798708Y-112846755D01*
X116800677Y-112911667D01*
X116803450Y-112959042D01*
X116807388Y-112992710D01*
X116812849Y-113016502D01*
X116820192Y-113034247D01*
X116829777Y-113049776D01*
X116833887Y-113055619D01*
X116888405Y-113110815D01*
X116957336Y-113142110D01*
X117037072Y-113150835D01*
X117106744Y-113142082D01*
G37*
X117106744Y-113142082D02*
X117162201Y-113114432D01*
X117211148Y-113063520D01*
X117224629Y-113044662D01*
X117239314Y-113019985D01*
X117248842Y-112993184D01*
X117254293Y-112957413D01*
X117256747Y-112905831D01*
X117257286Y-112837733D01*
X117254852Y-112744412D01*
X117246394Y-112674343D01*
X117230174Y-112622069D01*
X117204454Y-112582131D01*
X117167497Y-112549071D01*
X117164782Y-112547114D01*
X117128360Y-112527092D01*
X117084502Y-112517185D01*
X117028724Y-112514743D01*
X116938048Y-112514743D01*
X116938010Y-112426717D01*
X116937166Y-112377692D01*
X116932024Y-112348935D01*
X116918587Y-112331689D01*
X116892858Y-112317192D01*
X116886679Y-112314231D01*
X116857764Y-112300352D01*
X116835376Y-112291586D01*
X116818729Y-112290829D01*
X116807036Y-112300977D01*
X116799510Y-112324927D01*
X116795366Y-112365574D01*
X116793815Y-112425814D01*
X116794071Y-112508545D01*
X116795349Y-112616661D01*
X116795748Y-112649000D01*
X116797185Y-112760476D01*
X116798472Y-112833397D01*
X116937971Y-112833397D01*
X116938755Y-112771501D01*
X116942240Y-112731003D01*
X116950124Y-112704292D01*
X116964105Y-112683756D01*
X116973597Y-112673740D01*
X117012404Y-112644433D01*
X117046763Y-112642048D01*
X117082216Y-112666250D01*
X117083114Y-112667143D01*
X117097539Y-112685847D01*
X117106313Y-112711268D01*
X117110739Y-112750416D01*
X117112118Y-112810303D01*
X117112143Y-112823570D01*
X117108812Y-112906099D01*
X117097969Y-112963309D01*
X117078340Y-112998234D01*
X117048650Y-113013906D01*
X117031491Y-113015486D01*
X116990766Y-113008074D01*
X116962832Y-112983670D01*
X116946017Y-112939020D01*
X116938650Y-112870870D01*
X116937971Y-112833397D01*
X116798472Y-112833397D01*
X116798708Y-112846755D01*
X116800677Y-112911667D01*
X116803450Y-112959042D01*
X116807388Y-112992710D01*
X116812849Y-113016502D01*
X116820192Y-113034247D01*
X116829777Y-113049776D01*
X116833887Y-113055619D01*
X116888405Y-113110815D01*
X116957336Y-113142110D01*
X117037072Y-113150835D01*
X117106744Y-113142082D01*
G36*
X122381682Y-111231067D02*
G01*
X122517929Y-111183828D01*
X122644779Y-111109473D01*
X122758067Y-111008013D01*
X122853628Y-110879457D01*
X122896554Y-110798428D01*
X122933705Y-110685092D01*
X122951712Y-110554249D01*
X122949717Y-110419735D01*
X122927577Y-110297842D01*
X122867064Y-110148893D01*
X122779314Y-110019691D01*
X122668788Y-109912777D01*
X122539946Y-109830694D01*
X122397247Y-109775984D01*
X122245151Y-109751190D01*
X122088119Y-109758853D01*
X122010714Y-109775228D01*
X121859859Y-109833911D01*
X121725875Y-109923457D01*
X121611994Y-110041107D01*
X121521448Y-110184098D01*
X121513788Y-110199714D01*
X121487306Y-110258314D01*
X121470678Y-110307666D01*
X121461650Y-110359730D01*
X121457968Y-110426461D01*
X121457357Y-110499071D01*
X121458367Y-110586309D01*
X121462928Y-110649376D01*
X121473334Y-110700364D01*
X121491879Y-110751367D01*
X121514770Y-110801687D01*
X121600154Y-110944530D01*
X121705301Y-111060190D01*
X121826045Y-111148675D01*
X121958221Y-111209995D01*
X122097663Y-111244161D01*
X122240205Y-111251182D01*
X122381682Y-111231067D01*
G37*
X122381682Y-111231067D02*
X122517929Y-111183828D01*
X122644779Y-111109473D01*
X122758067Y-111008013D01*
X122853628Y-110879457D01*
X122896554Y-110798428D01*
X122933705Y-110685092D01*
X122951712Y-110554249D01*
X122949717Y-110419735D01*
X122927577Y-110297842D01*
X122867064Y-110148893D01*
X122779314Y-110019691D01*
X122668788Y-109912777D01*
X122539946Y-109830694D01*
X122397247Y-109775984D01*
X122245151Y-109751190D01*
X122088119Y-109758853D01*
X122010714Y-109775228D01*
X121859859Y-109833911D01*
X121725875Y-109923457D01*
X121611994Y-110041107D01*
X121521448Y-110184098D01*
X121513788Y-110199714D01*
X121487306Y-110258314D01*
X121470678Y-110307666D01*
X121461650Y-110359730D01*
X121457968Y-110426461D01*
X121457357Y-110499071D01*
X121458367Y-110586309D01*
X121462928Y-110649376D01*
X121473334Y-110700364D01*
X121491879Y-110751367D01*
X121514770Y-110801687D01*
X121600154Y-110944530D01*
X121705301Y-111060190D01*
X121826045Y-111148675D01*
X121958221Y-111209995D01*
X122097663Y-111244161D01*
X122240205Y-111251182D01*
X122381682Y-111231067D01*
G36*
X135025571Y-110014911D02*
G01*
X135179876Y-110014277D01*
X135232321Y-110013958D01*
X135953500Y-110009214D01*
X135962571Y-107242428D01*
X135963769Y-106867244D01*
X135964832Y-106526583D01*
X135965827Y-106218682D01*
X135966823Y-105941779D01*
X135967888Y-105694112D01*
X135969091Y-105473919D01*
X135970499Y-105279438D01*
X135972182Y-105108906D01*
X135974206Y-104960560D01*
X135976641Y-104832639D01*
X135979554Y-104723380D01*
X135983015Y-104631021D01*
X135987090Y-104553800D01*
X135991849Y-104489954D01*
X135997360Y-104437722D01*
X136003691Y-104395340D01*
X136010910Y-104361047D01*
X136019085Y-104333080D01*
X136028285Y-104309676D01*
X136038577Y-104289075D01*
X136050031Y-104269513D01*
X136062715Y-104249228D01*
X136076695Y-104226457D01*
X136079561Y-104221607D01*
X136127640Y-104139567D01*
X134737928Y-104149071D01*
X134728857Y-104301705D01*
X134723918Y-104374955D01*
X134718771Y-104417304D01*
X134711786Y-104434108D01*
X134701337Y-104430723D01*
X134692571Y-104421040D01*
X134654388Y-104385771D01*
X134592155Y-104340437D01*
X134514641Y-104290454D01*
X134430613Y-104241239D01*
X134348839Y-104198209D01*
X134286052Y-104169899D01*
X134138954Y-104123376D01*
X133970180Y-104090421D01*
X133792191Y-104072293D01*
X133617447Y-104070250D01*
X133458407Y-104085553D01*
X133455788Y-104085991D01*
X133238168Y-104140598D01*
X133034455Y-104227599D01*
X132846613Y-104345124D01*
X132676607Y-104491303D01*
X132526402Y-104664266D01*
X132397964Y-104862143D01*
X132293257Y-105083064D01*
X132236246Y-105246714D01*
X132198651Y-105383625D01*
X132170771Y-105516202D01*
X132151753Y-105652498D01*
X132140745Y-105800567D01*
X132136895Y-105968463D01*
X132138600Y-106105560D01*
X133477359Y-106105560D01*
X133483694Y-105875671D01*
X133503679Y-105677889D01*
X133537927Y-105510461D01*
X133587055Y-105371631D01*
X133651676Y-105259642D01*
X133732405Y-105172741D01*
X133825591Y-105111308D01*
X133874080Y-105088374D01*
X133916134Y-105074625D01*
X133963020Y-105068334D01*
X134026004Y-105067778D01*
X134093857Y-105070227D01*
X134227295Y-105081996D01*
X134332832Y-105105045D01*
X134366000Y-105116590D01*
X134441735Y-105150689D01*
X134521614Y-105193509D01*
X134556500Y-105214943D01*
X134647214Y-105274444D01*
X134647214Y-107160416D01*
X134547428Y-107220229D01*
X134408267Y-107287815D01*
X134266087Y-107327786D01*
X134126090Y-107340378D01*
X133993474Y-107325827D01*
X133873440Y-107284368D01*
X133771188Y-107216237D01*
X133738195Y-107183534D01*
X133658667Y-107076381D01*
X133594299Y-106946673D01*
X133544553Y-106792186D01*
X133508891Y-106610698D01*
X133486775Y-106399985D01*
X133477667Y-106157825D01*
X133477359Y-106105560D01*
X132138600Y-106105560D01*
X132139310Y-106162626D01*
X132154605Y-106461287D01*
X132185358Y-106730675D01*
X132232381Y-106974715D01*
X132296482Y-107197330D01*
X132378472Y-107402444D01*
X132407730Y-107463254D01*
X132525581Y-107661560D01*
X132667996Y-107837788D01*
X132831629Y-107989092D01*
X133013131Y-108112629D01*
X133209153Y-108205553D01*
X133326655Y-108243885D01*
X133442054Y-108266641D01*
X133580907Y-108280180D01*
X133731574Y-108284508D01*
X133882413Y-108279632D01*
X134021785Y-108265556D01*
X134133691Y-108243475D01*
X134266884Y-108200172D01*
X134395979Y-108144489D01*
X134508928Y-108082064D01*
X134569043Y-108039697D01*
X134610510Y-108008193D01*
X134639545Y-107989010D01*
X134646150Y-107986286D01*
X134648198Y-108003837D01*
X134650107Y-108054125D01*
X134651836Y-108133600D01*
X134653341Y-108238714D01*
X134654581Y-108365917D01*
X134655513Y-108511661D01*
X134656095Y-108672397D01*
X134656286Y-108836116D01*
X134656179Y-109045812D01*
X134655658Y-109222604D01*
X134654416Y-109369874D01*
X134652148Y-109491003D01*
X134648550Y-109589373D01*
X134643317Y-109668366D01*
X134636144Y-109731362D01*
X134626726Y-109781745D01*
X134614758Y-109822895D01*
X134599935Y-109858194D01*
X134581952Y-109891023D01*
X134560505Y-109924765D01*
X134557745Y-109928943D01*
X134530083Y-109972644D01*
X134513382Y-110002695D01*
X134511143Y-110009033D01*
X134528643Y-110011033D01*
X134578574Y-110012660D01*
X134657085Y-110013888D01*
X134760323Y-110014689D01*
X134884436Y-110015039D01*
X135025571Y-110014911D01*
G37*
X135025571Y-110014911D02*
X135179876Y-110014277D01*
X135232321Y-110013958D01*
X135953500Y-110009214D01*
X135962571Y-107242428D01*
X135963769Y-106867244D01*
X135964832Y-106526583D01*
X135965827Y-106218682D01*
X135966823Y-105941779D01*
X135967888Y-105694112D01*
X135969091Y-105473919D01*
X135970499Y-105279438D01*
X135972182Y-105108906D01*
X135974206Y-104960560D01*
X135976641Y-104832639D01*
X135979554Y-104723380D01*
X135983015Y-104631021D01*
X135987090Y-104553800D01*
X135991849Y-104489954D01*
X135997360Y-104437722D01*
X136003691Y-104395340D01*
X136010910Y-104361047D01*
X136019085Y-104333080D01*
X136028285Y-104309676D01*
X136038577Y-104289075D01*
X136050031Y-104269513D01*
X136062715Y-104249228D01*
X136076695Y-104226457D01*
X136079561Y-104221607D01*
X136127640Y-104139567D01*
X134737928Y-104149071D01*
X134728857Y-104301705D01*
X134723918Y-104374955D01*
X134718771Y-104417304D01*
X134711786Y-104434108D01*
X134701337Y-104430723D01*
X134692571Y-104421040D01*
X134654388Y-104385771D01*
X134592155Y-104340437D01*
X134514641Y-104290454D01*
X134430613Y-104241239D01*
X134348839Y-104198209D01*
X134286052Y-104169899D01*
X134138954Y-104123376D01*
X133970180Y-104090421D01*
X133792191Y-104072293D01*
X133617447Y-104070250D01*
X133458407Y-104085553D01*
X133455788Y-104085991D01*
X133238168Y-104140598D01*
X133034455Y-104227599D01*
X132846613Y-104345124D01*
X132676607Y-104491303D01*
X132526402Y-104664266D01*
X132397964Y-104862143D01*
X132293257Y-105083064D01*
X132236246Y-105246714D01*
X132198651Y-105383625D01*
X132170771Y-105516202D01*
X132151753Y-105652498D01*
X132140745Y-105800567D01*
X132136895Y-105968463D01*
X132138600Y-106105560D01*
X133477359Y-106105560D01*
X133483694Y-105875671D01*
X133503679Y-105677889D01*
X133537927Y-105510461D01*
X133587055Y-105371631D01*
X133651676Y-105259642D01*
X133732405Y-105172741D01*
X133825591Y-105111308D01*
X133874080Y-105088374D01*
X133916134Y-105074625D01*
X133963020Y-105068334D01*
X134026004Y-105067778D01*
X134093857Y-105070227D01*
X134227295Y-105081996D01*
X134332832Y-105105045D01*
X134366000Y-105116590D01*
X134441735Y-105150689D01*
X134521614Y-105193509D01*
X134556500Y-105214943D01*
X134647214Y-105274444D01*
X134647214Y-107160416D01*
X134547428Y-107220229D01*
X134408267Y-107287815D01*
X134266087Y-107327786D01*
X134126090Y-107340378D01*
X133993474Y-107325827D01*
X133873440Y-107284368D01*
X133771188Y-107216237D01*
X133738195Y-107183534D01*
X133658667Y-107076381D01*
X133594299Y-106946673D01*
X133544553Y-106792186D01*
X133508891Y-106610698D01*
X133486775Y-106399985D01*
X133477667Y-106157825D01*
X133477359Y-106105560D01*
X132138600Y-106105560D01*
X132139310Y-106162626D01*
X132154605Y-106461287D01*
X132185358Y-106730675D01*
X132232381Y-106974715D01*
X132296482Y-107197330D01*
X132378472Y-107402444D01*
X132407730Y-107463254D01*
X132525581Y-107661560D01*
X132667996Y-107837788D01*
X132831629Y-107989092D01*
X133013131Y-108112629D01*
X133209153Y-108205553D01*
X133326655Y-108243885D01*
X133442054Y-108266641D01*
X133580907Y-108280180D01*
X133731574Y-108284508D01*
X133882413Y-108279632D01*
X134021785Y-108265556D01*
X134133691Y-108243475D01*
X134266884Y-108200172D01*
X134395979Y-108144489D01*
X134508928Y-108082064D01*
X134569043Y-108039697D01*
X134610510Y-108008193D01*
X134639545Y-107989010D01*
X134646150Y-107986286D01*
X134648198Y-108003837D01*
X134650107Y-108054125D01*
X134651836Y-108133600D01*
X134653341Y-108238714D01*
X134654581Y-108365917D01*
X134655513Y-108511661D01*
X134656095Y-108672397D01*
X134656286Y-108836116D01*
X134656179Y-109045812D01*
X134655658Y-109222604D01*
X134654416Y-109369874D01*
X134652148Y-109491003D01*
X134648550Y-109589373D01*
X134643317Y-109668366D01*
X134636144Y-109731362D01*
X134626726Y-109781745D01*
X134614758Y-109822895D01*
X134599935Y-109858194D01*
X134581952Y-109891023D01*
X134560505Y-109924765D01*
X134557745Y-109928943D01*
X134530083Y-109972644D01*
X134513382Y-110002695D01*
X134511143Y-110009033D01*
X134528643Y-110011033D01*
X134578574Y-110012660D01*
X134657085Y-110013888D01*
X134760323Y-110014689D01*
X134884436Y-110015039D01*
X135025571Y-110014911D01*
G36*
X130169632Y-108287270D02*
G01*
X130259523Y-108280465D01*
X130516715Y-108246247D01*
X130744485Y-108191669D01*
X130943943Y-108115980D01*
X131116197Y-108018430D01*
X131262359Y-107898268D01*
X131383536Y-107754742D01*
X131480839Y-107587102D01*
X131551891Y-107405714D01*
X131569927Y-107347854D01*
X131585632Y-107293671D01*
X131599192Y-107240248D01*
X131610792Y-107184667D01*
X131620617Y-107124012D01*
X131628853Y-107055365D01*
X131635684Y-106975810D01*
X131641295Y-106882428D01*
X131645872Y-106772304D01*
X131649600Y-106642519D01*
X131652665Y-106490158D01*
X131655250Y-106312302D01*
X131657542Y-106106035D01*
X131659725Y-105868439D01*
X131661286Y-105682143D01*
X131671785Y-104403071D01*
X131739821Y-104279982D01*
X131772038Y-104220683D01*
X131796012Y-104174623D01*
X131807450Y-104150107D01*
X131807857Y-104148447D01*
X131790375Y-104146546D01*
X131740574Y-104144795D01*
X131662421Y-104143242D01*
X131559882Y-104141938D01*
X131436922Y-104140930D01*
X131297510Y-104140269D01*
X131145611Y-104140003D01*
X131127500Y-104140000D01*
X130447143Y-104140000D01*
X130447143Y-104294214D01*
X130445982Y-104363906D01*
X130442887Y-104417206D01*
X130438432Y-104445783D01*
X130436463Y-104448428D01*
X130418455Y-104437347D01*
X130381393Y-104408264D01*
X130333222Y-104367421D01*
X130332141Y-104366476D01*
X130244235Y-104301029D01*
X130133217Y-104235312D01*
X130011631Y-104175781D01*
X129892021Y-104128891D01*
X129839357Y-104112867D01*
X129734551Y-104092515D01*
X129605950Y-104079528D01*
X129465325Y-104074091D01*
X129324448Y-104076389D01*
X129195093Y-104086608D01*
X129104571Y-104101311D01*
X128882580Y-104166501D01*
X128682729Y-104259406D01*
X128506319Y-104378874D01*
X128354650Y-104523753D01*
X128229024Y-104692890D01*
X128130741Y-104885133D01*
X128088341Y-105001786D01*
X128061768Y-105115167D01*
X128044158Y-105251278D01*
X128036010Y-105397563D01*
X128036278Y-105418849D01*
X129263321Y-105418849D01*
X129273496Y-105310150D01*
X129307378Y-105219815D01*
X129370000Y-105136005D01*
X129394052Y-105111429D01*
X129479551Y-105044989D01*
X129578373Y-105002426D01*
X129696768Y-104981823D01*
X129821445Y-104980306D01*
X129939698Y-104990323D01*
X130030239Y-105009915D01*
X130069560Y-105024630D01*
X130140432Y-105064735D01*
X130215525Y-105121137D01*
X130284038Y-105184439D01*
X130335172Y-105245245D01*
X130348750Y-105267551D01*
X130359305Y-105298788D01*
X130366810Y-105348493D01*
X130371613Y-105421413D01*
X130374065Y-105522297D01*
X130374571Y-105618311D01*
X130374228Y-105730250D01*
X130372843Y-105811191D01*
X130369881Y-105866415D01*
X130364808Y-105901206D01*
X130357090Y-105920846D01*
X130346192Y-105930620D01*
X130342821Y-105932176D01*
X130313529Y-105936971D01*
X130255756Y-105940892D01*
X130177304Y-105943586D01*
X130085974Y-105944701D01*
X130066143Y-105944702D01*
X129944063Y-105942754D01*
X129849749Y-105936959D01*
X129774807Y-105926525D01*
X129712903Y-105911286D01*
X129559349Y-105853216D01*
X129438932Y-105781821D01*
X129350610Y-105695961D01*
X129293339Y-105594493D01*
X129266078Y-105476275D01*
X129263321Y-105418849D01*
X128036278Y-105418849D01*
X128037823Y-105541467D01*
X128050096Y-105670435D01*
X128059670Y-105722540D01*
X128120801Y-105916003D01*
X128213757Y-106094007D01*
X128336783Y-106254845D01*
X128488124Y-106396810D01*
X128666025Y-106518194D01*
X128868732Y-106617291D01*
X129041071Y-106677467D01*
X129156253Y-106709081D01*
X129266423Y-106733646D01*
X129378719Y-106751961D01*
X129500275Y-106764822D01*
X129638229Y-106773028D01*
X129799715Y-106777376D01*
X129945715Y-106778600D01*
X130378645Y-106779785D01*
X130370351Y-106909920D01*
X130346801Y-107051117D01*
X130296703Y-107172482D01*
X130222191Y-107270983D01*
X130125399Y-107343591D01*
X130040171Y-107379021D01*
X129918056Y-107401350D01*
X129772683Y-107404557D01*
X129610867Y-107389823D01*
X129439422Y-107358330D01*
X129265163Y-107311260D01*
X129094904Y-107249797D01*
X128971176Y-107193583D01*
X128911647Y-107164717D01*
X128866242Y-107144557D01*
X128843150Y-107136690D01*
X128841897Y-107136942D01*
X128833929Y-107154563D01*
X128814031Y-107201267D01*
X128784077Y-107272582D01*
X128745939Y-107364031D01*
X128701488Y-107471141D01*
X128656305Y-107580451D01*
X128475667Y-108018260D01*
X128604155Y-108039364D01*
X128659846Y-108049953D01*
X128743564Y-108067737D01*
X128848139Y-108091102D01*
X128966399Y-108118435D01*
X129091172Y-108148119D01*
X129140857Y-108160182D01*
X129355807Y-108210038D01*
X129543995Y-108247416D01*
X129712446Y-108273073D01*
X129868186Y-108287765D01*
X130018240Y-108292245D01*
X130169632Y-108287270D01*
G37*
X130169632Y-108287270D02*
X130259523Y-108280465D01*
X130516715Y-108246247D01*
X130744485Y-108191669D01*
X130943943Y-108115980D01*
X131116197Y-108018430D01*
X131262359Y-107898268D01*
X131383536Y-107754742D01*
X131480839Y-107587102D01*
X131551891Y-107405714D01*
X131569927Y-107347854D01*
X131585632Y-107293671D01*
X131599192Y-107240248D01*
X131610792Y-107184667D01*
X131620617Y-107124012D01*
X131628853Y-107055365D01*
X131635684Y-106975810D01*
X131641295Y-106882428D01*
X131645872Y-106772304D01*
X131649600Y-106642519D01*
X131652665Y-106490158D01*
X131655250Y-106312302D01*
X131657542Y-106106035D01*
X131659725Y-105868439D01*
X131661286Y-105682143D01*
X131671785Y-104403071D01*
X131739821Y-104279982D01*
X131772038Y-104220683D01*
X131796012Y-104174623D01*
X131807450Y-104150107D01*
X131807857Y-104148447D01*
X131790375Y-104146546D01*
X131740574Y-104144795D01*
X131662421Y-104143242D01*
X131559882Y-104141938D01*
X131436922Y-104140930D01*
X131297510Y-104140269D01*
X131145611Y-104140003D01*
X131127500Y-104140000D01*
X130447143Y-104140000D01*
X130447143Y-104294214D01*
X130445982Y-104363906D01*
X130442887Y-104417206D01*
X130438432Y-104445783D01*
X130436463Y-104448428D01*
X130418455Y-104437347D01*
X130381393Y-104408264D01*
X130333222Y-104367421D01*
X130332141Y-104366476D01*
X130244235Y-104301029D01*
X130133217Y-104235312D01*
X130011631Y-104175781D01*
X129892021Y-104128891D01*
X129839357Y-104112867D01*
X129734551Y-104092515D01*
X129605950Y-104079528D01*
X129465325Y-104074091D01*
X129324448Y-104076389D01*
X129195093Y-104086608D01*
X129104571Y-104101311D01*
X128882580Y-104166501D01*
X128682729Y-104259406D01*
X128506319Y-104378874D01*
X128354650Y-104523753D01*
X128229024Y-104692890D01*
X128130741Y-104885133D01*
X128088341Y-105001786D01*
X128061768Y-105115167D01*
X128044158Y-105251278D01*
X128036010Y-105397563D01*
X128036278Y-105418849D01*
X129263321Y-105418849D01*
X129273496Y-105310150D01*
X129307378Y-105219815D01*
X129370000Y-105136005D01*
X129394052Y-105111429D01*
X129479551Y-105044989D01*
X129578373Y-105002426D01*
X129696768Y-104981823D01*
X129821445Y-104980306D01*
X129939698Y-104990323D01*
X130030239Y-105009915D01*
X130069560Y-105024630D01*
X130140432Y-105064735D01*
X130215525Y-105121137D01*
X130284038Y-105184439D01*
X130335172Y-105245245D01*
X130348750Y-105267551D01*
X130359305Y-105298788D01*
X130366810Y-105348493D01*
X130371613Y-105421413D01*
X130374065Y-105522297D01*
X130374571Y-105618311D01*
X130374228Y-105730250D01*
X130372843Y-105811191D01*
X130369881Y-105866415D01*
X130364808Y-105901206D01*
X130357090Y-105920846D01*
X130346192Y-105930620D01*
X130342821Y-105932176D01*
X130313529Y-105936971D01*
X130255756Y-105940892D01*
X130177304Y-105943586D01*
X130085974Y-105944701D01*
X130066143Y-105944702D01*
X129944063Y-105942754D01*
X129849749Y-105936959D01*
X129774807Y-105926525D01*
X129712903Y-105911286D01*
X129559349Y-105853216D01*
X129438932Y-105781821D01*
X129350610Y-105695961D01*
X129293339Y-105594493D01*
X129266078Y-105476275D01*
X129263321Y-105418849D01*
X128036278Y-105418849D01*
X128037823Y-105541467D01*
X128050096Y-105670435D01*
X128059670Y-105722540D01*
X128120801Y-105916003D01*
X128213757Y-106094007D01*
X128336783Y-106254845D01*
X128488124Y-106396810D01*
X128666025Y-106518194D01*
X128868732Y-106617291D01*
X129041071Y-106677467D01*
X129156253Y-106709081D01*
X129266423Y-106733646D01*
X129378719Y-106751961D01*
X129500275Y-106764822D01*
X129638229Y-106773028D01*
X129799715Y-106777376D01*
X129945715Y-106778600D01*
X130378645Y-106779785D01*
X130370351Y-106909920D01*
X130346801Y-107051117D01*
X130296703Y-107172482D01*
X130222191Y-107270983D01*
X130125399Y-107343591D01*
X130040171Y-107379021D01*
X129918056Y-107401350D01*
X129772683Y-107404557D01*
X129610867Y-107389823D01*
X129439422Y-107358330D01*
X129265163Y-107311260D01*
X129094904Y-107249797D01*
X128971176Y-107193583D01*
X128911647Y-107164717D01*
X128866242Y-107144557D01*
X128843150Y-107136690D01*
X128841897Y-107136942D01*
X128833929Y-107154563D01*
X128814031Y-107201267D01*
X128784077Y-107272582D01*
X128745939Y-107364031D01*
X128701488Y-107471141D01*
X128656305Y-107580451D01*
X128475667Y-108018260D01*
X128604155Y-108039364D01*
X128659846Y-108049953D01*
X128743564Y-108067737D01*
X128848139Y-108091102D01*
X128966399Y-108118435D01*
X129091172Y-108148119D01*
X129140857Y-108160182D01*
X129355807Y-108210038D01*
X129543995Y-108247416D01*
X129712446Y-108273073D01*
X129868186Y-108287765D01*
X130018240Y-108292245D01*
X130169632Y-108287270D01*
G36*
X126565378Y-109745769D02*
G01*
X126761019Y-109724351D01*
X126950562Y-109686015D01*
X127141717Y-109628762D01*
X127342196Y-109550591D01*
X127559708Y-109449504D01*
X127598880Y-109429924D01*
X127688772Y-109385638D01*
X127773553Y-109345761D01*
X127844855Y-109314102D01*
X127894310Y-109294468D01*
X127901908Y-109291996D01*
X127974714Y-109270183D01*
X127648803Y-108796056D01*
X127569123Y-108680177D01*
X127496272Y-108574306D01*
X127432730Y-108482038D01*
X127380972Y-108406967D01*
X127343477Y-108352687D01*
X127322723Y-108322793D01*
X127319351Y-108318059D01*
X127305655Y-108327958D01*
X127271943Y-108357715D01*
X127224244Y-108401927D01*
X127197920Y-108426916D01*
X127048772Y-108545544D01*
X126881268Y-108635687D01*
X126736928Y-108685064D01*
X126650283Y-108700571D01*
X126541796Y-108710021D01*
X126424227Y-108713239D01*
X126310334Y-108710049D01*
X126212879Y-108700276D01*
X126173990Y-108692791D01*
X125998712Y-108632488D01*
X125840765Y-108540410D01*
X125700268Y-108416727D01*
X125577335Y-108261607D01*
X125472085Y-108075219D01*
X125384635Y-107857730D01*
X125315100Y-107609308D01*
X125273775Y-107396643D01*
X125262994Y-107302759D01*
X125255648Y-107181476D01*
X125251667Y-107041507D01*
X125250979Y-106891569D01*
X125253514Y-106740378D01*
X125259200Y-106596649D01*
X125267967Y-106469097D01*
X125279744Y-106366438D01*
X125282293Y-106350599D01*
X125338481Y-106095464D01*
X125415036Y-105869658D01*
X125512426Y-105672169D01*
X125631114Y-105501986D01*
X125715363Y-105409978D01*
X125866770Y-105285057D01*
X126032817Y-105192460D01*
X126210701Y-105132691D01*
X126397622Y-105106254D01*
X126590778Y-105113652D01*
X126787369Y-105155389D01*
X126903597Y-105196229D01*
X127064438Y-105278010D01*
X127230213Y-105395322D01*
X127323073Y-105474655D01*
X127375214Y-105520571D01*
X127416180Y-105554258D01*
X127439498Y-105570490D01*
X127442393Y-105570985D01*
X127452800Y-105554399D01*
X127479767Y-105510568D01*
X127520996Y-105443252D01*
X127574189Y-105356206D01*
X127637050Y-105253190D01*
X127707281Y-105137959D01*
X127746372Y-105073769D01*
X128044964Y-104583323D01*
X127672161Y-104399085D01*
X127537369Y-104332907D01*
X127428175Y-104280722D01*
X127337907Y-104239940D01*
X127259888Y-104207967D01*
X127187444Y-104182213D01*
X127113901Y-104160086D01*
X127032584Y-104138993D01*
X126954643Y-104120470D01*
X126885366Y-104106137D01*
X126812917Y-104095306D01*
X126730042Y-104087374D01*
X126629488Y-104081742D01*
X126504003Y-104077808D01*
X126419428Y-104076109D01*
X126298754Y-104074950D01*
X126183042Y-104075535D01*
X126079951Y-104077696D01*
X125997138Y-104081268D01*
X125942260Y-104086083D01*
X125939008Y-104086563D01*
X125654043Y-104148214D01*
X125386442Y-104241715D01*
X125136297Y-104367007D01*
X124903704Y-104524026D01*
X124688757Y-104712711D01*
X124491550Y-104933000D01*
X124348727Y-105128786D01*
X124196680Y-105385051D01*
X124073773Y-105655683D01*
X123979410Y-105942851D01*
X123912999Y-106248724D01*
X123873944Y-106575472D01*
X123861640Y-106907261D01*
X123871759Y-107228221D01*
X123903561Y-107524354D01*
X123958054Y-107800655D01*
X124036250Y-108062119D01*
X124139159Y-108313742D01*
X124151447Y-108339810D01*
X124286820Y-108583493D01*
X124453089Y-108815382D01*
X124645541Y-109030677D01*
X124859466Y-109224578D01*
X125090155Y-109392285D01*
X125305109Y-109515304D01*
X125522258Y-109611655D01*
X125739868Y-109681449D01*
X125966362Y-109726587D01*
X126210166Y-109748969D01*
X126355928Y-109752269D01*
X126565378Y-109745769D01*
G37*
X126565378Y-109745769D02*
X126761019Y-109724351D01*
X126950562Y-109686015D01*
X127141717Y-109628762D01*
X127342196Y-109550591D01*
X127559708Y-109449504D01*
X127598880Y-109429924D01*
X127688772Y-109385638D01*
X127773553Y-109345761D01*
X127844855Y-109314102D01*
X127894310Y-109294468D01*
X127901908Y-109291996D01*
X127974714Y-109270183D01*
X127648803Y-108796056D01*
X127569123Y-108680177D01*
X127496272Y-108574306D01*
X127432730Y-108482038D01*
X127380972Y-108406967D01*
X127343477Y-108352687D01*
X127322723Y-108322793D01*
X127319351Y-108318059D01*
X127305655Y-108327958D01*
X127271943Y-108357715D01*
X127224244Y-108401927D01*
X127197920Y-108426916D01*
X127048772Y-108545544D01*
X126881268Y-108635687D01*
X126736928Y-108685064D01*
X126650283Y-108700571D01*
X126541796Y-108710021D01*
X126424227Y-108713239D01*
X126310334Y-108710049D01*
X126212879Y-108700276D01*
X126173990Y-108692791D01*
X125998712Y-108632488D01*
X125840765Y-108540410D01*
X125700268Y-108416727D01*
X125577335Y-108261607D01*
X125472085Y-108075219D01*
X125384635Y-107857730D01*
X125315100Y-107609308D01*
X125273775Y-107396643D01*
X125262994Y-107302759D01*
X125255648Y-107181476D01*
X125251667Y-107041507D01*
X125250979Y-106891569D01*
X125253514Y-106740378D01*
X125259200Y-106596649D01*
X125267967Y-106469097D01*
X125279744Y-106366438D01*
X125282293Y-106350599D01*
X125338481Y-106095464D01*
X125415036Y-105869658D01*
X125512426Y-105672169D01*
X125631114Y-105501986D01*
X125715363Y-105409978D01*
X125866770Y-105285057D01*
X126032817Y-105192460D01*
X126210701Y-105132691D01*
X126397622Y-105106254D01*
X126590778Y-105113652D01*
X126787369Y-105155389D01*
X126903597Y-105196229D01*
X127064438Y-105278010D01*
X127230213Y-105395322D01*
X127323073Y-105474655D01*
X127375214Y-105520571D01*
X127416180Y-105554258D01*
X127439498Y-105570490D01*
X127442393Y-105570985D01*
X127452800Y-105554399D01*
X127479767Y-105510568D01*
X127520996Y-105443252D01*
X127574189Y-105356206D01*
X127637050Y-105253190D01*
X127707281Y-105137959D01*
X127746372Y-105073769D01*
X128044964Y-104583323D01*
X127672161Y-104399085D01*
X127537369Y-104332907D01*
X127428175Y-104280722D01*
X127337907Y-104239940D01*
X127259888Y-104207967D01*
X127187444Y-104182213D01*
X127113901Y-104160086D01*
X127032584Y-104138993D01*
X126954643Y-104120470D01*
X126885366Y-104106137D01*
X126812917Y-104095306D01*
X126730042Y-104087374D01*
X126629488Y-104081742D01*
X126504003Y-104077808D01*
X126419428Y-104076109D01*
X126298754Y-104074950D01*
X126183042Y-104075535D01*
X126079951Y-104077696D01*
X125997138Y-104081268D01*
X125942260Y-104086083D01*
X125939008Y-104086563D01*
X125654043Y-104148214D01*
X125386442Y-104241715D01*
X125136297Y-104367007D01*
X124903704Y-104524026D01*
X124688757Y-104712711D01*
X124491550Y-104933000D01*
X124348727Y-105128786D01*
X124196680Y-105385051D01*
X124073773Y-105655683D01*
X123979410Y-105942851D01*
X123912999Y-106248724D01*
X123873944Y-106575472D01*
X123861640Y-106907261D01*
X123871759Y-107228221D01*
X123903561Y-107524354D01*
X123958054Y-107800655D01*
X124036250Y-108062119D01*
X124139159Y-108313742D01*
X124151447Y-108339810D01*
X124286820Y-108583493D01*
X124453089Y-108815382D01*
X124645541Y-109030677D01*
X124859466Y-109224578D01*
X125090155Y-109392285D01*
X125305109Y-109515304D01*
X125522258Y-109611655D01*
X125739868Y-109681449D01*
X125966362Y-109726587D01*
X126210166Y-109748969D01*
X126355928Y-109752269D01*
X126565378Y-109745769D01*
G36*
X118113911Y-110653340D02*
G01*
X118463460Y-110653293D01*
X118626170Y-110653286D01*
X121230571Y-110653285D01*
X121230571Y-110499762D01*
X121246957Y-110312937D01*
X121296412Y-110140633D01*
X121379380Y-109981825D01*
X121496305Y-109835490D01*
X121535864Y-109795968D01*
X121678170Y-109683862D01*
X121835078Y-109602101D01*
X122001928Y-109550647D01*
X122174061Y-109529463D01*
X122346815Y-109538513D01*
X122515530Y-109577758D01*
X122675546Y-109647162D01*
X122822202Y-109746689D01*
X122888068Y-109806735D01*
X123010808Y-109953957D01*
X123100812Y-110115853D01*
X123157294Y-110290573D01*
X123179471Y-110476265D01*
X123179766Y-110494533D01*
X123180928Y-110653280D01*
X123250700Y-110653283D01*
X123312595Y-110644882D01*
X123369135Y-110624444D01*
X123372872Y-110622333D01*
X123385642Y-110615707D01*
X123397368Y-110610546D01*
X123408094Y-110605349D01*
X123417861Y-110598610D01*
X123426712Y-110588829D01*
X123434689Y-110574500D01*
X123441835Y-110554122D01*
X123448192Y-110526192D01*
X123453802Y-110489205D01*
X123458707Y-110441660D01*
X123462951Y-110382053D01*
X123466576Y-110308881D01*
X123469623Y-110220641D01*
X123472136Y-110115830D01*
X123474156Y-109992945D01*
X123475726Y-109850483D01*
X123476888Y-109686940D01*
X123477686Y-109500814D01*
X123478160Y-109290602D01*
X123478354Y-109054800D01*
X123478310Y-108791906D01*
X123478070Y-108500416D01*
X123477677Y-108178828D01*
X123477173Y-107825638D01*
X123476600Y-107439343D01*
X123476001Y-107018440D01*
X123475932Y-106967160D01*
X123475395Y-106543574D01*
X123474939Y-106154770D01*
X123474516Y-105799247D01*
X123474079Y-105475502D01*
X123473578Y-105182034D01*
X123472965Y-104917339D01*
X123472192Y-104679915D01*
X123471211Y-104468260D01*
X123469974Y-104280871D01*
X123468432Y-104116246D01*
X123466537Y-103972883D01*
X123464241Y-103849280D01*
X123461496Y-103743933D01*
X123458253Y-103655341D01*
X123454464Y-103582000D01*
X123450081Y-103522410D01*
X123445055Y-103475067D01*
X123439339Y-103438469D01*
X123432884Y-103411114D01*
X123425641Y-103391498D01*
X123417563Y-103378121D01*
X123408602Y-103369479D01*
X123398708Y-103364070D01*
X123387835Y-103360392D01*
X123375933Y-103356942D01*
X123362954Y-103352218D01*
X123359783Y-103350780D01*
X123349819Y-103347549D01*
X123333141Y-103344580D01*
X123308293Y-103341863D01*
X123273820Y-103339387D01*
X123228264Y-103337142D01*
X123170170Y-103335117D01*
X123098081Y-103333302D01*
X123010542Y-103331685D01*
X122906095Y-103330257D01*
X122783285Y-103329007D01*
X122640655Y-103327924D01*
X122476749Y-103326998D01*
X122290110Y-103326218D01*
X122079284Y-103325574D01*
X121842812Y-103325054D01*
X121579239Y-103324649D01*
X121287110Y-103324348D01*
X120964966Y-103324140D01*
X120611353Y-103324015D01*
X120224814Y-103323962D01*
X119803892Y-103323971D01*
X119667544Y-103323984D01*
X119237284Y-103324053D01*
X118841836Y-103324166D01*
X118479727Y-103324335D01*
X118149483Y-103324570D01*
X117849629Y-103324884D01*
X117578692Y-103325287D01*
X117335200Y-103325793D01*
X117117677Y-103326411D01*
X116924650Y-103327154D01*
X116754646Y-103328032D01*
X116606190Y-103329059D01*
X116477810Y-103330244D01*
X116368031Y-103331600D01*
X116275380Y-103333138D01*
X116198383Y-103334870D01*
X116135566Y-103336806D01*
X116085456Y-103338960D01*
X116046579Y-103341341D01*
X116017462Y-103343963D01*
X115996629Y-103346835D01*
X115982609Y-103349970D01*
X115974966Y-103352841D01*
X115961382Y-103358570D01*
X115948910Y-103362794D01*
X115937502Y-103367015D01*
X115927111Y-103372732D01*
X115917691Y-103381445D01*
X115909192Y-103394655D01*
X115901570Y-103413863D01*
X115894775Y-103440567D01*
X115888762Y-103476270D01*
X115883483Y-103522470D01*
X115878890Y-103580668D01*
X115874936Y-103652365D01*
X115871575Y-103739060D01*
X115868759Y-103842254D01*
X115866440Y-103963447D01*
X115864572Y-104104140D01*
X115864084Y-104158143D01*
X116348296Y-104158143D01*
X118059744Y-104158143D01*
X118026813Y-104208036D01*
X117994053Y-104259307D01*
X117966311Y-104308131D01*
X117943193Y-104357924D01*
X117924303Y-104412102D01*
X117909249Y-104474084D01*
X117897633Y-104547285D01*
X117889064Y-104635122D01*
X117883144Y-104741012D01*
X117879481Y-104868372D01*
X117877679Y-105020619D01*
X117877344Y-105201168D01*
X117878081Y-105413438D01*
X117878499Y-105492245D01*
X117883214Y-106337089D01*
X118418428Y-105608443D01*
X118570054Y-105401735D01*
X118701419Y-105221740D01*
X118813943Y-105066075D01*
X118909043Y-104932353D01*
X118988138Y-104818191D01*
X119052647Y-104721203D01*
X119103988Y-104639006D01*
X119143580Y-104569214D01*
X119172840Y-104509442D01*
X119193188Y-104457307D01*
X119206042Y-104410424D01*
X119212819Y-104366407D01*
X119214940Y-104322873D01*
X119213821Y-104277436D01*
X119213536Y-104271725D01*
X119207643Y-104158067D01*
X121083229Y-104158143D01*
X120943722Y-104298811D01*
X120905865Y-104337285D01*
X120869953Y-104374721D01*
X120834407Y-104413186D01*
X120797653Y-104454742D01*
X120758114Y-104501455D01*
X120714214Y-104555390D01*
X120664377Y-104618610D01*
X120607028Y-104693182D01*
X120540589Y-104781168D01*
X120463485Y-104884635D01*
X120374139Y-105005646D01*
X120270976Y-105146266D01*
X120152420Y-105308560D01*
X120016895Y-105494593D01*
X119862823Y-105706429D01*
X119736538Y-105880196D01*
X119578046Y-106098499D01*
X119439784Y-106289371D01*
X119320501Y-106454626D01*
X119218943Y-106596074D01*
X119133859Y-106715529D01*
X119063995Y-106814802D01*
X119008100Y-106895705D01*
X118964920Y-106960051D01*
X118933203Y-107009653D01*
X118911698Y-107046321D01*
X118899150Y-107071868D01*
X118894308Y-107088107D01*
X118895763Y-107096645D01*
X118913401Y-107119365D01*
X118951534Y-107167457D01*
X119007862Y-107238062D01*
X119080084Y-107328322D01*
X119165899Y-107435379D01*
X119263006Y-107556373D01*
X119369104Y-107688446D01*
X119481891Y-107828740D01*
X119599068Y-107974397D01*
X119718333Y-108122556D01*
X119783933Y-108204000D01*
X121412686Y-108204000D01*
X121480379Y-108081535D01*
X121548071Y-107959071D01*
X121548071Y-104403071D01*
X121480379Y-104280607D01*
X121412686Y-104158143D01*
X122213441Y-104158143D01*
X122404602Y-104158198D01*
X122562499Y-104158449D01*
X122690152Y-104159021D01*
X122790581Y-104160041D01*
X122866807Y-104161635D01*
X122921852Y-104163930D01*
X122958736Y-104167050D01*
X122980479Y-104171123D01*
X122990102Y-104176275D01*
X122990627Y-104182633D01*
X122985074Y-104190321D01*
X122985016Y-104190385D01*
X122962140Y-104223476D01*
X122931849Y-104277281D01*
X122905097Y-104330992D01*
X122854357Y-104439357D01*
X122849182Y-106321678D01*
X122844007Y-108204000D01*
X121412686Y-108204000D01*
X119783933Y-108204000D01*
X119837385Y-108270361D01*
X119953923Y-108414953D01*
X120065646Y-108553472D01*
X120170254Y-108683061D01*
X120265444Y-108800860D01*
X120348917Y-108904012D01*
X120418371Y-108989657D01*
X120471506Y-109054938D01*
X120502715Y-109093000D01*
X120623903Y-109235330D01*
X120740493Y-109363770D01*
X120848397Y-109474114D01*
X120943530Y-109562159D01*
X121011043Y-109616138D01*
X121090873Y-109673571D01*
X119254892Y-109673571D01*
X119255408Y-109565835D01*
X119250276Y-109486628D01*
X119230985Y-109413195D01*
X119201123Y-109343585D01*
X119181712Y-109304259D01*
X119160841Y-109265293D01*
X119136604Y-109224099D01*
X119107094Y-109178092D01*
X119070406Y-109124683D01*
X119024632Y-109061286D01*
X118967865Y-108985315D01*
X118898200Y-108894183D01*
X118813730Y-108785302D01*
X118712547Y-108656086D01*
X118592747Y-108503948D01*
X118452421Y-108326302D01*
X118436571Y-108306258D01*
X117883214Y-107606492D01*
X117877857Y-108381496D01*
X117876779Y-108613632D01*
X117877008Y-108810154D01*
X117878557Y-108971708D01*
X117881437Y-109098944D01*
X117885659Y-109192508D01*
X117891234Y-109253048D01*
X117893107Y-109264532D01*
X117922505Y-109385501D01*
X117961022Y-109494554D01*
X118004974Y-109582237D01*
X118031379Y-109619426D01*
X118076940Y-109673571D01*
X117212470Y-109673571D01*
X117006255Y-109673395D01*
X116833812Y-109672821D01*
X116692627Y-109671783D01*
X116580188Y-109670213D01*
X116493983Y-109668046D01*
X116431498Y-109665212D01*
X116390221Y-109661647D01*
X116367640Y-109657282D01*
X116361241Y-109652051D01*
X116361683Y-109650893D01*
X116380009Y-109623231D01*
X116410604Y-109579385D01*
X116426433Y-109557209D01*
X116442798Y-109535080D01*
X116457508Y-109515291D01*
X116470656Y-109495894D01*
X116482333Y-109474942D01*
X116492632Y-109450488D01*
X116501646Y-109420584D01*
X116509468Y-109383283D01*
X116516191Y-109336637D01*
X116521906Y-109278699D01*
X116526707Y-109207521D01*
X116530685Y-109121156D01*
X116533935Y-109017656D01*
X116536548Y-108895075D01*
X116538617Y-108751463D01*
X116540234Y-108584875D01*
X116541493Y-108393363D01*
X116542485Y-108174978D01*
X116543304Y-107927774D01*
X116544042Y-107649804D01*
X116544791Y-107339119D01*
X116545492Y-107053700D01*
X116546153Y-106735508D01*
X116546497Y-106431923D01*
X116546532Y-106144885D01*
X116546268Y-105876331D01*
X116545715Y-105628202D01*
X116544880Y-105402437D01*
X116543773Y-105200974D01*
X116542404Y-105025754D01*
X116540781Y-104878714D01*
X116538913Y-104761794D01*
X116536811Y-104676933D01*
X116534482Y-104626071D01*
X116534041Y-104620696D01*
X116517992Y-104497387D01*
X116492936Y-104398356D01*
X116454779Y-104311930D01*
X116399428Y-104226435D01*
X116392504Y-104217107D01*
X116348296Y-104158143D01*
X115864084Y-104158143D01*
X115863108Y-104265832D01*
X115861999Y-104450024D01*
X115861199Y-104658216D01*
X115860661Y-104891909D01*
X115860338Y-105152602D01*
X115860183Y-105441796D01*
X115860146Y-105760991D01*
X115860183Y-106111687D01*
X115860245Y-106495386D01*
X115860285Y-106913586D01*
X115860286Y-106996607D01*
X115860309Y-107419211D01*
X115860388Y-107807019D01*
X115860533Y-108161520D01*
X115860756Y-108484203D01*
X115861069Y-108776558D01*
X115861483Y-109040073D01*
X115862009Y-109276238D01*
X115862660Y-109486542D01*
X115863447Y-109672474D01*
X115864381Y-109835525D01*
X115865474Y-109977182D01*
X115866737Y-110098936D01*
X115868183Y-110202275D01*
X115869821Y-110288689D01*
X115871666Y-110359667D01*
X115873726Y-110416699D01*
X115876015Y-110461273D01*
X115878544Y-110494879D01*
X115881324Y-110519007D01*
X115884367Y-110535144D01*
X115887684Y-110544782D01*
X115887807Y-110545022D01*
X115894640Y-110559745D01*
X115900330Y-110573074D01*
X115906626Y-110585078D01*
X115915272Y-110595827D01*
X115928014Y-110605389D01*
X115946600Y-110613833D01*
X115972774Y-110621229D01*
X116008284Y-110627646D01*
X116054875Y-110633152D01*
X116114293Y-110637817D01*
X116188285Y-110641709D01*
X116278597Y-110644898D01*
X116386975Y-110647453D01*
X116515165Y-110649442D01*
X116664913Y-110650935D01*
X116837966Y-110652002D01*
X117036069Y-110652709D01*
X117260969Y-110653128D01*
X117514412Y-110653327D01*
X117798144Y-110653374D01*
X118113911Y-110653340D01*
G37*
X118113911Y-110653340D02*
X118463460Y-110653293D01*
X118626170Y-110653286D01*
X121230571Y-110653285D01*
X121230571Y-110499762D01*
X121246957Y-110312937D01*
X121296412Y-110140633D01*
X121379380Y-109981825D01*
X121496305Y-109835490D01*
X121535864Y-109795968D01*
X121678170Y-109683862D01*
X121835078Y-109602101D01*
X122001928Y-109550647D01*
X122174061Y-109529463D01*
X122346815Y-109538513D01*
X122515530Y-109577758D01*
X122675546Y-109647162D01*
X122822202Y-109746689D01*
X122888068Y-109806735D01*
X123010808Y-109953957D01*
X123100812Y-110115853D01*
X123157294Y-110290573D01*
X123179471Y-110476265D01*
X123179766Y-110494533D01*
X123180928Y-110653280D01*
X123250700Y-110653283D01*
X123312595Y-110644882D01*
X123369135Y-110624444D01*
X123372872Y-110622333D01*
X123385642Y-110615707D01*
X123397368Y-110610546D01*
X123408094Y-110605349D01*
X123417861Y-110598610D01*
X123426712Y-110588829D01*
X123434689Y-110574500D01*
X123441835Y-110554122D01*
X123448192Y-110526192D01*
X123453802Y-110489205D01*
X123458707Y-110441660D01*
X123462951Y-110382053D01*
X123466576Y-110308881D01*
X123469623Y-110220641D01*
X123472136Y-110115830D01*
X123474156Y-109992945D01*
X123475726Y-109850483D01*
X123476888Y-109686940D01*
X123477686Y-109500814D01*
X123478160Y-109290602D01*
X123478354Y-109054800D01*
X123478310Y-108791906D01*
X123478070Y-108500416D01*
X123477677Y-108178828D01*
X123477173Y-107825638D01*
X123476600Y-107439343D01*
X123476001Y-107018440D01*
X123475932Y-106967160D01*
X123475395Y-106543574D01*
X123474939Y-106154770D01*
X123474516Y-105799247D01*
X123474079Y-105475502D01*
X123473578Y-105182034D01*
X123472965Y-104917339D01*
X123472192Y-104679915D01*
X123471211Y-104468260D01*
X123469974Y-104280871D01*
X123468432Y-104116246D01*
X123466537Y-103972883D01*
X123464241Y-103849280D01*
X123461496Y-103743933D01*
X123458253Y-103655341D01*
X123454464Y-103582000D01*
X123450081Y-103522410D01*
X123445055Y-103475067D01*
X123439339Y-103438469D01*
X123432884Y-103411114D01*
X123425641Y-103391498D01*
X123417563Y-103378121D01*
X123408602Y-103369479D01*
X123398708Y-103364070D01*
X123387835Y-103360392D01*
X123375933Y-103356942D01*
X123362954Y-103352218D01*
X123359783Y-103350780D01*
X123349819Y-103347549D01*
X123333141Y-103344580D01*
X123308293Y-103341863D01*
X123273820Y-103339387D01*
X123228264Y-103337142D01*
X123170170Y-103335117D01*
X123098081Y-103333302D01*
X123010542Y-103331685D01*
X122906095Y-103330257D01*
X122783285Y-103329007D01*
X122640655Y-103327924D01*
X122476749Y-103326998D01*
X122290110Y-103326218D01*
X122079284Y-103325574D01*
X121842812Y-103325054D01*
X121579239Y-103324649D01*
X121287110Y-103324348D01*
X120964966Y-103324140D01*
X120611353Y-103324015D01*
X120224814Y-103323962D01*
X119803892Y-103323971D01*
X119667544Y-103323984D01*
X119237284Y-103324053D01*
X118841836Y-103324166D01*
X118479727Y-103324335D01*
X118149483Y-103324570D01*
X117849629Y-103324884D01*
X117578692Y-103325287D01*
X117335200Y-103325793D01*
X117117677Y-103326411D01*
X116924650Y-103327154D01*
X116754646Y-103328032D01*
X116606190Y-103329059D01*
X116477810Y-103330244D01*
X116368031Y-103331600D01*
X116275380Y-103333138D01*
X116198383Y-103334870D01*
X116135566Y-103336806D01*
X116085456Y-103338960D01*
X116046579Y-103341341D01*
X116017462Y-103343963D01*
X115996629Y-103346835D01*
X115982609Y-103349970D01*
X115974966Y-103352841D01*
X115961382Y-103358570D01*
X115948910Y-103362794D01*
X115937502Y-103367015D01*
X115927111Y-103372732D01*
X115917691Y-103381445D01*
X115909192Y-103394655D01*
X115901570Y-103413863D01*
X115894775Y-103440567D01*
X115888762Y-103476270D01*
X115883483Y-103522470D01*
X115878890Y-103580668D01*
X115874936Y-103652365D01*
X115871575Y-103739060D01*
X115868759Y-103842254D01*
X115866440Y-103963447D01*
X115864572Y-104104140D01*
X115864084Y-104158143D01*
X116348296Y-104158143D01*
X118059744Y-104158143D01*
X118026813Y-104208036D01*
X117994053Y-104259307D01*
X117966311Y-104308131D01*
X117943193Y-104357924D01*
X117924303Y-104412102D01*
X117909249Y-104474084D01*
X117897633Y-104547285D01*
X117889064Y-104635122D01*
X117883144Y-104741012D01*
X117879481Y-104868372D01*
X117877679Y-105020619D01*
X117877344Y-105201168D01*
X117878081Y-105413438D01*
X117878499Y-105492245D01*
X117883214Y-106337089D01*
X118418428Y-105608443D01*
X118570054Y-105401735D01*
X118701419Y-105221740D01*
X118813943Y-105066075D01*
X118909043Y-104932353D01*
X118988138Y-104818191D01*
X119052647Y-104721203D01*
X119103988Y-104639006D01*
X119143580Y-104569214D01*
X119172840Y-104509442D01*
X119193188Y-104457307D01*
X119206042Y-104410424D01*
X119212819Y-104366407D01*
X119214940Y-104322873D01*
X119213821Y-104277436D01*
X119213536Y-104271725D01*
X119207643Y-104158067D01*
X121083229Y-104158143D01*
X120943722Y-104298811D01*
X120905865Y-104337285D01*
X120869953Y-104374721D01*
X120834407Y-104413186D01*
X120797653Y-104454742D01*
X120758114Y-104501455D01*
X120714214Y-104555390D01*
X120664377Y-104618610D01*
X120607028Y-104693182D01*
X120540589Y-104781168D01*
X120463485Y-104884635D01*
X120374139Y-105005646D01*
X120270976Y-105146266D01*
X120152420Y-105308560D01*
X120016895Y-105494593D01*
X119862823Y-105706429D01*
X119736538Y-105880196D01*
X119578046Y-106098499D01*
X119439784Y-106289371D01*
X119320501Y-106454626D01*
X119218943Y-106596074D01*
X119133859Y-106715529D01*
X119063995Y-106814802D01*
X119008100Y-106895705D01*
X118964920Y-106960051D01*
X118933203Y-107009653D01*
X118911698Y-107046321D01*
X118899150Y-107071868D01*
X118894308Y-107088107D01*
X118895763Y-107096645D01*
X118913401Y-107119365D01*
X118951534Y-107167457D01*
X119007862Y-107238062D01*
X119080084Y-107328322D01*
X119165899Y-107435379D01*
X119263006Y-107556373D01*
X119369104Y-107688446D01*
X119481891Y-107828740D01*
X119599068Y-107974397D01*
X119718333Y-108122556D01*
X119783933Y-108204000D01*
X121412686Y-108204000D01*
X121480379Y-108081535D01*
X121548071Y-107959071D01*
X121548071Y-104403071D01*
X121480379Y-104280607D01*
X121412686Y-104158143D01*
X122213441Y-104158143D01*
X122404602Y-104158198D01*
X122562499Y-104158449D01*
X122690152Y-104159021D01*
X122790581Y-104160041D01*
X122866807Y-104161635D01*
X122921852Y-104163930D01*
X122958736Y-104167050D01*
X122980479Y-104171123D01*
X122990102Y-104176275D01*
X122990627Y-104182633D01*
X122985074Y-104190321D01*
X122985016Y-104190385D01*
X122962140Y-104223476D01*
X122931849Y-104277281D01*
X122905097Y-104330992D01*
X122854357Y-104439357D01*
X122849182Y-106321678D01*
X122844007Y-108204000D01*
X121412686Y-108204000D01*
X119783933Y-108204000D01*
X119837385Y-108270361D01*
X119953923Y-108414953D01*
X120065646Y-108553472D01*
X120170254Y-108683061D01*
X120265444Y-108800860D01*
X120348917Y-108904012D01*
X120418371Y-108989657D01*
X120471506Y-109054938D01*
X120502715Y-109093000D01*
X120623903Y-109235330D01*
X120740493Y-109363770D01*
X120848397Y-109474114D01*
X120943530Y-109562159D01*
X121011043Y-109616138D01*
X121090873Y-109673571D01*
X119254892Y-109673571D01*
X119255408Y-109565835D01*
X119250276Y-109486628D01*
X119230985Y-109413195D01*
X119201123Y-109343585D01*
X119181712Y-109304259D01*
X119160841Y-109265293D01*
X119136604Y-109224099D01*
X119107094Y-109178092D01*
X119070406Y-109124683D01*
X119024632Y-109061286D01*
X118967865Y-108985315D01*
X118898200Y-108894183D01*
X118813730Y-108785302D01*
X118712547Y-108656086D01*
X118592747Y-108503948D01*
X118452421Y-108326302D01*
X118436571Y-108306258D01*
X117883214Y-107606492D01*
X117877857Y-108381496D01*
X117876779Y-108613632D01*
X117877008Y-108810154D01*
X117878557Y-108971708D01*
X117881437Y-109098944D01*
X117885659Y-109192508D01*
X117891234Y-109253048D01*
X117893107Y-109264532D01*
X117922505Y-109385501D01*
X117961022Y-109494554D01*
X118004974Y-109582237D01*
X118031379Y-109619426D01*
X118076940Y-109673571D01*
X117212470Y-109673571D01*
X117006255Y-109673395D01*
X116833812Y-109672821D01*
X116692627Y-109671783D01*
X116580188Y-109670213D01*
X116493983Y-109668046D01*
X116431498Y-109665212D01*
X116390221Y-109661647D01*
X116367640Y-109657282D01*
X116361241Y-109652051D01*
X116361683Y-109650893D01*
X116380009Y-109623231D01*
X116410604Y-109579385D01*
X116426433Y-109557209D01*
X116442798Y-109535080D01*
X116457508Y-109515291D01*
X116470656Y-109495894D01*
X116482333Y-109474942D01*
X116492632Y-109450488D01*
X116501646Y-109420584D01*
X116509468Y-109383283D01*
X116516191Y-109336637D01*
X116521906Y-109278699D01*
X116526707Y-109207521D01*
X116530685Y-109121156D01*
X116533935Y-109017656D01*
X116536548Y-108895075D01*
X116538617Y-108751463D01*
X116540234Y-108584875D01*
X116541493Y-108393363D01*
X116542485Y-108174978D01*
X116543304Y-107927774D01*
X116544042Y-107649804D01*
X116544791Y-107339119D01*
X116545492Y-107053700D01*
X116546153Y-106735508D01*
X116546497Y-106431923D01*
X116546532Y-106144885D01*
X116546268Y-105876331D01*
X116545715Y-105628202D01*
X116544880Y-105402437D01*
X116543773Y-105200974D01*
X116542404Y-105025754D01*
X116540781Y-104878714D01*
X116538913Y-104761794D01*
X116536811Y-104676933D01*
X116534482Y-104626071D01*
X116534041Y-104620696D01*
X116517992Y-104497387D01*
X116492936Y-104398356D01*
X116454779Y-104311930D01*
X116399428Y-104226435D01*
X116392504Y-104217107D01*
X116348296Y-104158143D01*
X115864084Y-104158143D01*
X115863108Y-104265832D01*
X115861999Y-104450024D01*
X115861199Y-104658216D01*
X115860661Y-104891909D01*
X115860338Y-105152602D01*
X115860183Y-105441796D01*
X115860146Y-105760991D01*
X115860183Y-106111687D01*
X115860245Y-106495386D01*
X115860285Y-106913586D01*
X115860286Y-106996607D01*
X115860309Y-107419211D01*
X115860388Y-107807019D01*
X115860533Y-108161520D01*
X115860756Y-108484203D01*
X115861069Y-108776558D01*
X115861483Y-109040073D01*
X115862009Y-109276238D01*
X115862660Y-109486542D01*
X115863447Y-109672474D01*
X115864381Y-109835525D01*
X115865474Y-109977182D01*
X115866737Y-110098936D01*
X115868183Y-110202275D01*
X115869821Y-110288689D01*
X115871666Y-110359667D01*
X115873726Y-110416699D01*
X115876015Y-110461273D01*
X115878544Y-110494879D01*
X115881324Y-110519007D01*
X115884367Y-110535144D01*
X115887684Y-110544782D01*
X115887807Y-110545022D01*
X115894640Y-110559745D01*
X115900330Y-110573074D01*
X115906626Y-110585078D01*
X115915272Y-110595827D01*
X115928014Y-110605389D01*
X115946600Y-110613833D01*
X115972774Y-110621229D01*
X116008284Y-110627646D01*
X116054875Y-110633152D01*
X116114293Y-110637817D01*
X116188285Y-110641709D01*
X116278597Y-110644898D01*
X116386975Y-110647453D01*
X116515165Y-110649442D01*
X116664913Y-110650935D01*
X116837966Y-110652002D01*
X117036069Y-110652709D01*
X117260969Y-110653128D01*
X117514412Y-110653327D01*
X117798144Y-110653374D01*
X118113911Y-110653340D01*
%TD*%
M02*
